<?xml version="1.0" encoding="UTF-8"?>
<svg xmlns="http://www.w3.org/2000/svg" width="65" height="65" viewBox="0 0 65 65">
  <g id="Group_3" data-name="Group 3" transform="translate(-1874 -186)">
    <rect id="Rectangle_3" data-name="Rectangle 3" width="65" height="65" transform="translate(1874 186)" fill="none"></rect>
    <g id="audit" transform="translate(1875 186.73)">
      <path id="Path_13064" data-name="Path 13064" d="M32.644,43.07A7.143,7.143,0,1,0,39.8,50.213a7.143,7.143,0,0,0-7.153-7.143Zm0,12.378a5.232,5.232,0,1,1,5.244-5.232A5.232,5.232,0,0,1,32.644,55.448Z" transform="translate(-0.42 -0.656)" fill="#32397c"></path>
      <path id="Path_13065" data-name="Path 13065" d="M36.088,48.189l-4.36,4.36a.962.962,0,0,1-1.348,0l-1.841-1.841a.955.955,0,0,1,1.35-1.351l1.171,1.163,3.67-3.682a.957.957,0,0,1,1.356,1.348ZM32.842,11.744a.955.955,0,0,1-.954.954H7.839a.954.954,0,1,1,0-1.909H31.887a.949.949,0,0,1,.954.954ZM22.659,43.428a.962.962,0,0,1-.954.954H6.314a.954.954,0,0,1,0-1.909H21.7a.955.955,0,0,1,.954.953ZM54.576,19.5A11.184,11.184,0,1,0,49.4,34.453,11.184,11.184,0,0,0,54.576,19.5ZM48.565,32.732a9.281,9.281,0,1,1-8.108-16.7A9.14,9.14,0,0,1,44.5,15.1a9.281,9.281,0,0,1,4.064,17.634Z" transform="translate(-0.086 -0.137)" fill="#32397c"></path>
      <path id="Path_13066" data-name="Path 13066" d="M62.529,50.493c-.01,0-.01-.01-.01-.02l-6.406-12.26a.944.944,0,0,0-1.26-.413l-.256.118-.876-1.781a15.078,15.078,0,0,0-9.082-26.98v-4.8A2.087,2.087,0,0,0,42.555,2.27H2.086A2.087,2.087,0,0,0,0,4.356V49.489c0,.02.01.039.01.059a.992.992,0,0,0,.048.246.3.3,0,0,0,.039.1,1.04,1.04,0,0,0,.167.256l.02.02L10.606,60.5a.977.977,0,0,0,.678.276H42.555a2.087,2.087,0,0,0,2.086-2.086V39.346a15.047,15.047,0,0,0,3.375-.443l.866,1.792-.256.128a.991.991,0,0,0-.492.557.92.92,0,0,0,.069.738l6.386,12.24a4.353,4.353,0,0,0,5.785,2.076,5.511,5.511,0,0,0,.581-.325A4.377,4.377,0,0,0,62.529,50.493Zm-52.2,7.025L3.258,50.445h6.9a.183.183,0,0,1,.177.177Zm32.4,1.171a.183.183,0,0,1-.177.177H12.24V50.621a2.087,2.087,0,0,0-2.086-2.086H1.909V4.356a.176.176,0,0,1,.177-.177H42.555a.176.176,0,0,1,.177.177v4.9A14.986,14.986,0,0,0,31.2,16.98H12.417a.954.954,0,1,0,0,1.909H30.325c-.048.145-.118.276-.167.413a15.454,15.454,0,0,0-.8,4.015H6.228a.954.954,0,1,0,0,1.909h23.13a14.725,14.725,0,0,0,.984,4.427H6.228a.954.954,0,1,0,0,1.909H31.24A14.929,14.929,0,0,0,34.97,36H6.228a.954.954,0,1,0,0,1.909H38a13.021,13.021,0,0,0,1.484.6,15.045,15.045,0,0,0,3.246.738ZM40.113,36.707a13.189,13.189,0,1,1,10.077-.6,13.189,13.189,0,0,1-10.077.6Zm10.912,1.122c.374-.187.748-.393,1.1-.61l.748,1.535-2.273,1.1-.748-1.545c.395-.147.789-.295,1.172-.482Zm8.914,16.665a4.364,4.364,0,0,1-.443.236,2.45,2.45,0,0,1-3.208-1.23L50.347,42.107l4.505-2.194,5.963,11.424a2.473,2.473,0,0,1-.874,3.161Z" fill="#32397c"></path>
      <path id="Path_13067" data-name="Path 13067" d="M56.8,18.629a13.187,13.187,0,1,0-2,14.516A13.191,13.191,0,0,0,56.8,18.629ZM49.827,34.461a11.177,11.177,0,1,1,5.691-6.4A11.195,11.195,0,0,1,49.827,34.461Z" transform="translate(-0.513 -0.145)" fill="#caebff"></path>
      <path id="Path_13068" data-name="Path 13068" d="M53.691,39.322l-2.273,1.1-.748-1.545a12.053,12.053,0,0,0,1.171-.484c.374-.187.748-.393,1.1-.61Zm7.064,15.745a4.364,4.364,0,0,1-.443.236,2.45,2.45,0,0,1-3.207-1.233L51.162,42.678l4.505-2.194,5.966,11.424a2.473,2.473,0,0,1-.878,3.158Z" transform="translate(-0.814 -0.568)" fill="#4ebde5"></path>
      <path id="Path_13069" data-name="Path 13069" d="M10.385,51.409v6.9L3.31,51.23h6.9a.183.183,0,0,1,.177.179Z" transform="translate(-0.053 -0.787)" fill="#e0e0e0"></path>
      <path id="Path_13070" data-name="Path 13070" d="M12.448,17.011H31.23a14.986,14.986,0,0,1,11.53-7.724v-4.9a.176.176,0,0,0-.177-.177H2.117a.176.176,0,0,0-.177.177V48.566h8.245a2.087,2.087,0,0,1,2.086,2.086V58.9H42.586a.183.183,0,0,0,.177-.177V39.277a15.044,15.044,0,0,1-3.246-.738,13.021,13.021,0,0,1-1.486-.6H6.259a.954.954,0,1,1,0-1.909H35a14.929,14.929,0,0,1-3.73-4.438H6.259a.954.954,0,0,1,0-1.909H30.375a14.725,14.725,0,0,1-.986-4.427H6.259a.954.954,0,0,1,0-1.909h23.13a15.454,15.454,0,0,1,.8-4.014c.048-.138.118-.265.167-.413H12.448a.954.954,0,1,1,0-1.909ZM32.255,42.445a7.143,7.143,0,1,1-7.143,7.144,7.143,7.143,0,0,1,7.143-7.144Zm-26-.078H21.648a.954.954,0,1,1,0,1.909H6.259a.954.954,0,1,1,0-1.909ZM7.783,12.593a.954.954,0,0,1,0-1.909H31.832a.954.954,0,0,1,0,1.909Z" transform="translate(-0.031 -0.031)" fill="#eaeaea"></path>
      <path id="Path_13071" data-name="Path 13071" d="M32.68,45.01a5.232,5.232,0,1,0,5.244,5.232A5.232,5.232,0,0,0,32.68,45.01ZM32.1,53.1a.962.962,0,0,1-1.348,0l-1.841-1.841a.953.953,0,1,1,1.348-1.348L31.43,51.07l3.67-3.682a.957.957,0,0,1,1.356,1.348Z" transform="translate(-0.456 -0.687)" fill="#f49292"></path>
    </g>
  </g>
</svg>
