<?xml version="1.0" encoding="UTF-8"?>
<svg xmlns="http://www.w3.org/2000/svg" width="24" height="24.087" viewBox="0 0 24 24.087">
  <g id="Smart_Compliance" data-name="Smart Compliance" transform="translate(-98 57.087)">
    <rect id="Rectangle_777" data-name="Rectangle 777" width="24" height="24" transform="translate(98 -57)" fill="#fff" opacity="0"></rect>
    <g id="process" transform="translate(99.618 -58.087)">
      <path id="Path_11963" data-name="Path 11963" d="M16.443,14.616a7.825,7.825,0,0,0,2.306-5.568V8.875A7.875,7.875,0,1,0,3,8.875v.173a7.825,7.825,0,0,0,2.306,5.568l1.479,1.479a2.872,2.872,0,0,1,.821,1.675,1.378,1.378,0,0,0-.539,2.222,1.376,1.376,0,0,0,.59,2.239,3.24,3.24,0,0,0,6.435,0,1.376,1.376,0,0,0,.59-2.239,1.378,1.378,0,0,0-.539-2.222,2.867,2.867,0,0,1,.821-1.675ZM13.654,18.6a.463.463,0,1,1,0,.926H8.1a.463.463,0,1,1,0-.926Zm-2.779,5.559a2.32,2.32,0,0,1-2.269-1.853h4.539A2.32,2.32,0,0,1,10.875,24.161Zm2.779-2.779H8.1a.463.463,0,1,1,0-.926h5.559a.463.463,0,1,1,0,.926Zm-.432-3.706H8.527A3.786,3.786,0,0,0,7.44,15.439L5.962,13.961A6.9,6.9,0,0,1,3.926,9.047V8.875a6.948,6.948,0,1,1,13.9,0v.173a6.9,6.9,0,0,1-2.035,4.913l-1.479,1.479A3.786,3.786,0,0,0,13.222,17.676Z" fill="#fff"></path>
      <path id="Path_11970" data-name="Path 11970" d="M15.706,10a3.706,3.706,0,1,0,3.706,3.706A3.71,3.71,0,0,0,15.706,10Zm0,6.485a2.779,2.779,0,1,1,2.779-2.779A2.782,2.782,0,0,1,15.706,16.485Z" transform="translate(-4.831 -4.831)" fill="#fff"></path>
      <path id="Path_11971" data-name="Path 11971" d="M17.853,14a1.853,1.853,0,1,0,1.853,1.853A1.855,1.855,0,0,0,17.853,14Zm0,2.779a.926.926,0,1,1,.926-.926A.927.927,0,0,1,17.853,16.779Z" transform="translate(-6.978 -6.978)" fill="#fff"></path>
      <path id="Path_11972" data-name="Path 11972" d="M18.107,13.256c.032-.072.063-.145.091-.218l.846-.3V9.3l-.846-.3q-.043-.109-.091-.218l.387-.81L16.065,5.549l-.81.387c-.072-.032-.145-.063-.218-.091L14.739,5H11.3l-.3.846q-.109.043-.218.091l-.809-.387L7.549,7.978l.387.81c-.032.072-.063.145-.091.218L7,9.3v3.435l.846.3q.043.109.091.218l-.387.809,2.429,2.429.81-.387c.072.032.145.063.218.091l.3.846h3.435l.3-.846q.109-.043.218-.091l.81.387,2.429-2.429Zm-.707-.733a4.529,4.529,0,0,1-.221.531l-.1.2.3.618-1.5,1.5-.618-.3-.2.1a4.609,4.609,0,0,1-.531.221l-.212.073-.227.644H11.96l-.227-.645L11.52,15.4a4.529,4.529,0,0,1-.531-.221l-.2-.1-.618.3-1.5-1.5.3-.618-.1-.2a4.609,4.609,0,0,1-.221-.531L8.57,12.31l-.644-.227V9.96l.645-.227.073-.212a4.529,4.529,0,0,1,.221-.531l.1-.2-.3-.618,1.5-1.5.618.3.2-.1a4.609,4.609,0,0,1,.531-.221l.212-.073.227-.644h2.124l.227.645.212.073a4.529,4.529,0,0,1,.531.221l.2.1.618-.3,1.5,1.5-.3.618.1.2a4.609,4.609,0,0,1,.221.531l.073.212.644.227v2.124l-.645.227Z" transform="translate(-2.147 -2.147)" fill="#fff"></path>
    </g>
  </g>
</svg>
