<?xml version="1.0" encoding="UTF-8"?>
<svg xmlns="http://www.w3.org/2000/svg" width="134.354" height="146.481" viewBox="0 0 134.354 146.481">
  <g id="Group_4071" data-name="Group 4071" transform="translate(-4590 -14079.373)">
    <path id="Path_12012" data-name="Path 12012" d="M1.594,25.978,26.977,1.043A3.641,3.641,0,0,1,29.529,0H93.711A13.6,13.6,0,0,1,107.3,13.584v97.1a13.6,13.6,0,0,1-13.584,13.584H14.081A13.6,13.6,0,0,1,.5,110.683V28.575a3.641,3.641,0,0,1,1.094-2.6ZM25.887,12.319,13.043,24.935H24.729a1.159,1.159,0,0,0,1.157-1.157Zm-11.8,104.667H93.714a6.31,6.31,0,0,0,6.3-6.3v-97.1a6.31,6.31,0,0,0-6.3-6.3H33.167v16.5a8.45,8.45,0,0,1-8.439,8.439H7.781v78.467a6.31,6.31,0,0,0,6.3,6.3Zm0,0" transform="translate(4589.5 14101.587)" fill="#fff"></path>
    <ellipse id="Ellipse_2" data-name="Ellipse 2" cx="40.368" cy="34.298" rx="40.368" ry="34.298" transform="translate(4643.619 14081.023)" fill="#fcb900"></ellipse>
    <path id="Path_12013" data-name="Path 12013" d="M101.833,238h51.321a3.641,3.641,0,0,1,0,7.281H101.833a3.641,3.641,0,1,1,0-7.281Zm0,0" transform="translate(4516.291 13921.353)" fill="#fff"></path>
    <path id="Path_12014" data-name="Path 12014" d="M143.678,305.281H101.832a3.641,3.641,0,0,1,0-7.281h41.846a3.641,3.641,0,1,1,0,7.281Zm0,0" transform="translate(4525.767 13875.915)" fill="#fff"></path>
    <path id="Path_12015" data-name="Path 12015" d="M101.832,358h46.895a3.641,3.641,0,1,1,0,7.281H101.832a3.641,3.641,0,1,1,0-7.281Zm0,0" transform="translate(4520.719 13830.478)" fill="#fff"></path>
    <g id="chat" transform="translate(4643.398 14079.373)">
      <g id="Group_463" data-name="Group 463">
        <g id="Group_462" data-name="Group 462">
          <path id="Path_12016" data-name="Path 12016" d="M40.32,16C17.805,16,0,32.119,0,51.577A33.143,33.143,0,0,0,9.245,74.256,14.424,14.424,0,0,1,5.438,87.848,2.374,2.374,0,0,0,7.115,91.9a26.166,26.166,0,0,0,18.116-7.316A44.759,44.759,0,0,0,40.32,87.154c22.578,0,40.636-16.167,40.636-35.577S62.886,16,40.32,16Zm0,66.441a39.909,39.909,0,0,1-14.826-2.83,2.372,2.372,0,0,0-2.629.6A21.412,21.412,0,0,1,12.22,86.53a19.179,19.179,0,0,0,1.445-14.117,2.369,2.369,0,0,0-.58-1A28.538,28.538,0,0,1,4.712,51.577c0-17,15.992-30.865,35.608-30.865,19.791,0,35.925,13.863,35.925,30.865S60.112,82.441,40.32,82.441Z" transform="translate(0 -16)" fill="#fff"></path>
        </g>
      </g>
      <g id="Group_465" data-name="Group 465" transform="translate(14.231 28.461)">
        <g id="Group_464" data-name="Group 464">
          <path id="Path_12017" data-name="Path 12017" d="M97.115,196a7.115,7.115,0,1,0,7.115,7.115A7.115,7.115,0,0,0,97.115,196Zm0,9.487a2.372,2.372,0,1,1,2.372-2.372A2.372,2.372,0,0,1,97.115,205.487Z" transform="translate(-90 -196)" fill="#fff"></path>
        </g>
      </g>
      <g id="Group_467" data-name="Group 467" transform="translate(33.205 28.461)">
        <g id="Group_466" data-name="Group 466">
          <path id="Path_12018" data-name="Path 12018" d="M217.115,196a7.115,7.115,0,1,0,7.115,7.115A7.115,7.115,0,0,0,217.115,196Zm0,9.487a2.372,2.372,0,1,1,2.372-2.372A2.372,2.372,0,0,1,217.115,205.487Z" transform="translate(-210 -196)" fill="#fff"></path>
        </g>
      </g>
      <g id="Group_469" data-name="Group 469" transform="translate(52.496 28.461)">
        <g id="Group_468" data-name="Group 468">
          <path id="Path_12019" data-name="Path 12019" d="M339.115,196a7.115,7.115,0,1,0,7.115,7.115A7.115,7.115,0,0,0,339.115,196Zm0,9.487a2.372,2.372,0,1,1,2.372-2.372A2.372,2.372,0,0,1,339.115,205.487Z" transform="translate(-332 -196)" fill="#fff"></path>
        </g>
      </g>
    </g>
  </g>
</svg>
