<?xml version="1.0" encoding="UTF-8"?>
<svg xmlns="http://www.w3.org/2000/svg" width="24" height="24" viewBox="0 0 24 24">
  <g id="IAM" transform="translate(18 -52.51)">
    <rect id="Rectangle_779" data-name="Rectangle 779" width="24" height="24" transform="translate(-18 52.51)" fill="#fff" opacity="0"></rect>
    <g id="Group_462" data-name="Group 462" transform="translate(-18 20.221)">
      <path id="Path_11432" data-name="Path 11432" d="M286.175,131.332a2.058,2.058,0,1,0-2.058-2.059A2.061,2.061,0,0,0,286.175,131.332Z" transform="translate(-270.363 -89.25)" fill="#fff"></path>
      <path id="Path_11433" data-name="Path 11433" d="M4.492,48.057a1.821,1.821,0,0,1-.508.072,1.825,1.825,0,0,1-1.39-.64H1.988a.376.376,0,0,1-.375-.376V45.853a1.839,1.839,0,0,1,0-1.756V43.2a1.844,1.844,0,0,1,0-1.754V35.414a.376.376,0,0,1,.375-.376h8.875a1.974,1.974,0,0,1,1.992-.132,2,2,0,0,1,.819-1.48H1.988A1.991,1.991,0,0,0,0,35.414v11.7A1.991,1.991,0,0,0,1.988,49.1H5.207A1.834,1.834,0,0,1,4.492,48.057Z" transform="translate(0 0)" fill="#fff"></path>
      <path id="Path_11434" data-name="Path 11434" d="M145.953,33.425h-4.064a1.992,1.992,0,0,1,.818,1.481,1.954,1.954,0,0,1,1.983.132h1.263a.376.376,0,0,1,.375.376v2.033a1.949,1.949,0,0,1,0,1.827v1.508a1.993,1.993,0,0,1,0,1.817v4.515a.376.376,0,0,1-.375.376H135.418a1.849,1.849,0,0,1-.91.576,1.82,1.82,0,0,1-.478.064,1.841,1.841,0,0,1-.508-.071,2.094,2.094,0,0,1-.081.238,1.842,1.842,0,0,1-.938.982v1.065a2.521,2.521,0,0,0-2.256,2.5v.741a.606.606,0,0,0,.6.605h10.183a.605.605,0,0,0,.6-.605v-.741a2.521,2.521,0,0,0-2.256-2.5V49.1h6.572a1.991,1.991,0,0,0,1.988-1.989v-11.7A1.991,1.991,0,0,0,145.953,33.425Zm-5.525,19.418v.136h-8.973v-.136a1.319,1.319,0,0,1,1.318-1.317h6.337A1.319,1.319,0,0,1,140.428,52.843Z" transform="translate(-123.941)" fill="#fff"></path>
      <path id="Path_11435" data-name="Path 11435" d="M213.222,52.059a.789.789,0,0,0-1.078.29l-.96,1.661a.789.789,0,0,0,.289,1.079l.725.418c-.009.065-.018.13-.027.195a1.778,1.778,0,0,1,.366.438l.764,1.321a1.836,1.836,0,0,1-.317,2.238,1.833,1.833,0,0,1,.283.357l.675-.39a4.484,4.484,0,0,0,.98.584v.814a.79.79,0,0,0,.79.789h1.918a.789.789,0,0,0,.789-.789V60.25a4.464,4.464,0,0,0,.979-.584l.722.416a.793.793,0,0,0,.4.106.8.8,0,0,0,.2-.027.791.791,0,0,0,.48-.368l.959-1.661a.789.789,0,0,0-.289-1.079l-.724-.419a2.742,2.742,0,0,0,0-1.127l.724-.418a.78.78,0,0,0,.367-.479.789.789,0,0,0-.078-.6l-.959-1.661a.788.788,0,0,0-1.078-.29l-.722.416a4.46,4.46,0,0,0-.979-.584v-.813a.79.79,0,0,0-.789-.79h-1.918a.791.791,0,0,0-.79.79v.813a4.462,4.462,0,0,0-.98.584Zm3.449,1.146a2.865,2.865,0,1,1-2.864,2.865A2.868,2.868,0,0,1,216.671,53.205Z" transform="translate(-200.86 -16.047)" fill="#fff"></path>
      <path id="Path_11436" data-name="Path 11436" d="M59.461,158.428v-.647a3.509,3.509,0,0,0,.779-.464l.572.329a.616.616,0,0,0,.313.085.638.638,0,0,0,.16-.021.63.63,0,0,0,.381-.292l.764-1.319a.627.627,0,0,0-.231-.856l-.574-.332a2.308,2.308,0,0,0,0-.895l.574-.331a.627.627,0,0,0,.231-.857l-.764-1.319a.623.623,0,0,0-.542-.313.612.612,0,0,0-.312.084l-.572.33a3.57,3.57,0,0,0-.779-.464V150.5a.627.627,0,0,0-.627-.627H57.312a.626.626,0,0,0-.627.627v.645a3.537,3.537,0,0,0-.778.464l-.573-.331a.617.617,0,0,0-.311-.083.639.639,0,0,0-.164.021.628.628,0,0,0-.381.291l-.762,1.319a.63.63,0,0,0,.23.857l.575.331a2.3,2.3,0,0,0,0,.894l-.575.332a.629.629,0,0,0-.23.857l.762,1.319a.637.637,0,0,0,.381.292.657.657,0,0,0,.162.021.617.617,0,0,0,.314-.085l.571-.329a3.536,3.536,0,0,0,.779.464v.647a.626.626,0,0,0,.627.626h1.522A.627.627,0,0,0,59.461,158.428Zm-3.117-3.963a1.729,1.729,0,1,1,1.727,1.728A1.729,1.729,0,0,1,56.344,154.465Z" transform="translate(-51.037 -110.813)" fill="#fff"></path>
    </g>
  </g>
</svg>
