<?xml version="1.0" encoding="UTF-8"?>
<svg xmlns="http://www.w3.org/2000/svg" width="24.406" height="24" viewBox="0 0 24.406 24">
  <g id="Smart_Visitor" data-name="Smart Visitor" transform="translate(410 -31)">
    <rect id="Rectangle_782" data-name="Rectangle 782" width="24" height="24" transform="translate(-410 31)" fill="#fff" opacity="0"></rect>
    <g id="identification_2_" data-name="identification (2)" transform="translate(-410 38.969)">
      <path id="Path_11936" data-name="Path 11936" d="M117.254,87.007a2.629,2.629,0,1,0-2.629-2.629A2.629,2.629,0,0,0,117.254,87.007Zm0-4.235a1.612,1.612,0,1,1-1.612,1.612A1.612,1.612,0,0,1,117.254,82.772Zm0,0" transform="translate(-109.962 -83.461)" fill="#fff"></path>
      <path id="Path_11937" data-name="Path 11937" d="M84.037,234.872a3.945,3.945,0,0,0-2.858,1.195A4.217,4.217,0,0,0,80,239.052a.51.51,0,0,0,.508.508h7.057a.51.51,0,0,0,.508-.508,4.217,4.217,0,0,0-1.18-2.985A3.945,3.945,0,0,0,84.037,234.872Zm-2.985,3.671a3.11,3.11,0,0,1,.854-1.764,3,3,0,0,1,4.261,0,3.125,3.125,0,0,1,.854,1.764Zm0,0" transform="translate(-76.746 -230.355)" fill="#fff"></path>
      <path id="Path_11938" data-name="Path 11938" d="M21.864-5.25H2.542A2.543,2.543,0,0,0,0-2.708V10.207A2.543,2.543,0,0,0,2.542,12.75H21.864a2.543,2.543,0,0,0,2.542-2.542V-2.708A2.543,2.543,0,0,0,21.864-5.25Zm1.525,15.457a1.53,1.53,0,0,1-1.525,1.525H2.542a1.53,1.53,0,0,1-1.525-1.525V-2.708A1.53,1.53,0,0,1,2.542-4.233H21.864a1.53,1.53,0,0,1,1.525,1.525Zm0,0" fill="#fff"></path>
      <path id="Path_11939" data-name="Path 11939" d="M355.057,203.5h-5.924a.508.508,0,1,0,0,1.017h5.924a.508.508,0,0,0,0-1.017Zm0,0" transform="translate(-334.444 -200.259)" fill="#fff"></path>
      <path id="Path_11940" data-name="Path 11940" d="M355.057,283.5h-5.924a.508.508,0,1,0,0,1.017h5.924a.508.508,0,0,0,0-1.017Zm0,0" transform="translate(-334.444 -277.005)" fill="#fff"></path>
      <path id="Path_11941" data-name="Path 11941" d="M355.057,123.5h-5.924a.508.508,0,1,0,0,1.017h5.924a.508.508,0,0,0,0-1.017Zm0,0" transform="translate(-334.444 -123.513)" fill="#fff"></path>
    </g>
  </g>
</svg>
