<?xml version="1.0" encoding="UTF-8"?>
<svg xmlns="http://www.w3.org/2000/svg" xmlns:xlink="http://www.w3.org/1999/xlink" width="65" height="65" viewBox="0 0 65 65">
  <defs>
    <clipPath id="clip-path">
      <rect id="Rectangle_1196" data-name="Rectangle 1196" width="64.691" height="65" fill="none"></rect>
    </clipPath>
  </defs>
  <g id="Group_6" data-name="Group 6" transform="translate(-2147 -287)">
    <rect id="Rectangle_22" data-name="Rectangle 22" width="65" height="65" transform="translate(2147 287)" fill="none"></rect>
    <g id="Group_896" data-name="Group 896" transform="translate(2147 287)" clip-path="url(#clip-path)">
      <path id="Path_13082" data-name="Path 13082" d="M29.747,3.4A27.072,27.072,0,1,1,2.675,30.472,27.072,27.072,0,0,1,29.747,3.4" transform="translate(1.001 1.272)" fill="#9bc1f9"></path>
      <path id="Path_13083" data-name="Path 13083" d="M17.523,13.9a3.841,3.841,0,0,0-3.848,3.848,3.848,3.848,0,1,0,7.7,0A3.841,3.841,0,0,0,17.523,13.9m12.505,3.848A3.852,3.852,0,1,0,33.876,13.9a3.932,3.932,0,0,0-3.848,3.848" transform="translate(5.117 5.201)" fill="#fff"></path>
      <path id="Path_13084" data-name="Path 13084" d="M17.523,25.8a3.848,3.848,0,1,1-3.848,3.848A3.848,3.848,0,0,1,17.523,25.8" transform="translate(5.117 9.654)" fill="#fff"></path>
      <path id="Path_13085" data-name="Path 13085" d="M27.725,55.38l-3.3-3.3a5.818,5.818,0,0,0-4.122-1.65H13.158a1.819,1.819,0,0,1-1.786-1.786V41.5a5.818,5.818,0,0,0-1.649-4.123L4.638,32.293a1.742,1.742,0,0,1,0-2.473l5.085-5.085a5.818,5.818,0,0,0,1.649-4.123V13.467a1.819,1.819,0,0,1,1.786-1.786H20.3a5.818,5.818,0,0,0,4.123-1.649l5.085-5.085a1.742,1.742,0,0,1,2.473,0l5.082,5.085A5.818,5.818,0,0,0,41.19,11.68h7.146a1.819,1.819,0,0,1,1.786,1.786v7.146a5.958,5.958,0,0,0,1.786,4.123l3.3,3.3a20.907,20.907,0,0,1,5.222,3.3c.412.275.687.687,1.1.962a6.257,6.257,0,0,0-1.511-5.5l-5.083-5.085a2.046,2.046,0,0,1-.55-1.237V13.329A5.865,5.865,0,0,0,48.475,7.42H41.329a1.492,1.492,0,0,1-1.237-.55L35.008,1.786A5.958,5.958,0,0,0,30.885,0a5.818,5.818,0,0,0-4.123,1.649L21.678,6.733a2.046,2.046,0,0,1-1.237.55H13.3a5.865,5.865,0,0,0-5.909,5.909v7.146a1.492,1.492,0,0,1-.55,1.237L1.752,26.659a5.889,5.889,0,0,0,0,8.383l5.084,5.084a2.046,2.046,0,0,1,.55,1.238V48.51A5.865,5.865,0,0,0,13.3,54.419h7.146a1.492,1.492,0,0,1,1.237.55l5.085,5.085A5.818,5.818,0,0,0,30.885,61.7a3.8,3.8,0,0,0,1.237-.137,7.856,7.856,0,0,1-.962-1.1,14.475,14.475,0,0,1-3.436-5.085" transform="translate(0 0)" fill="#1e1e1c"></path>
      <path id="Path_13086" data-name="Path 13086" d="M50.7,25.5a17.743,17.743,0,0,0-11.818-4.4,18,18,0,1,0,18,18,18.344,18.344,0,0,0-6.186-13.6" transform="translate(7.811 7.896)" fill="#2e2e83"></path>
      <path id="Path_13087" data-name="Path 13087" d="M36.544,42.9a2.067,2.067,0,0,1-1.511.55,2.88,2.88,0,0,1-1.511-.55l-7.147-7.146,2.886-2.886,5.772,5.772L44.377,29.3l2.886,2.886Z" transform="translate(9.87 10.964)" fill="#fff"></path>
    </g>
  </g>
</svg>
