<?xml version="1.0" encoding="UTF-8"?>
<svg xmlns="http://www.w3.org/2000/svg" width="24" height="24" viewBox="0 0 24 24">
  <g id="Smart_Audit" data-name="Smart Audit" transform="translate(-153 -973)">
    <rect id="Rectangle_775" data-name="Rectangle 775" width="24" height="24" transform="translate(153 973)" fill="#fff" opacity="0"></rect>
    <g id="audit" transform="translate(155.002 974.976)">
      <path id="Path_11954" data-name="Path 11954" d="M8.665,17.349a8.618,8.618,0,0,0,4.841-1.481l3.681,3.668a1.644,1.644,0,1,0,2.142-2.482l-3.943-2.908a8.662,8.662,0,1,0-6.721,3.2Zm10.269.242a.971.971,0,0,1,.111,1.472,1.01,1.01,0,0,1-1.388,0l-3.609-3.6a8.822,8.822,0,0,0,.895-.818ZM8.665.683a8,8,0,1,1-8,8,8,8,0,0,1,8-8Z" transform="translate(0 0)" fill="#fff"></path>
      <path id="Path_11955" data-name="Path 11955" d="M13,14.164V19.4a1.164,1.164,0,0,0,1.164,1.164H19.4A1.164,1.164,0,0,0,20.565,19.4V14.164A1.164,1.164,0,0,0,19.4,13H14.164A1.164,1.164,0,0,0,13,14.164Zm6.4,5.82H14.164a.582.582,0,0,1-.582-.582V15.91h6.4V19.4A.582.582,0,0,1,19.4,19.983Zm.582-5.82v1.164h-6.4V14.164a.582.582,0,0,1,.582-.582H19.4A.582.582,0,0,1,19.983,14.164Z" transform="translate(-8.193 -7.549)" fill="#fff"></path>
      <path id="Path_11956" data-name="Path 11956" d="M11.327,18.667A7.333,7.333,0,0,0,11.327,4a.333.333,0,0,0,0,.667,6.664,6.664,0,1,1-2,.306.333.333,0,0,0-.2-.636,7.333,7.333,0,0,0,2.2,14.33Z" transform="translate(-2.662 -2.651)" fill="#fff"></path>
      <path id="Path_11957" data-name="Path 11957" d="M17.333,17.667h.333a.333.333,0,1,0,0-.667h-.333a.333.333,0,1,0,0,.667Z" transform="translate(-9.91 -10.367)" fill="#fff"></path>
      <path id="Path_11958" data-name="Path 11958" d="M22.333,17.667h.333a.333.333,0,1,0,0-.667h-.333a.333.333,0,1,0,0,.667Z" transform="translate(-13.243 -10.367)" fill="#fff"></path>
      <path id="Path_11959" data-name="Path 11959" d="M21.75,27H21.5V26a.25.25,0,0,0-.5,0v1h-.5V25.5a.25.25,0,1,0-.5,0V27h-.5v-.75a.25.25,0,1,0-.5,0V27h-.5V25.25a.25.25,0,1,0-.5,0v2a.25.25,0,0,0,.25.25h3.5a.25.25,0,1,0,0-.5Z" transform="translate(-11.527 -15.818)" fill="#fff"></path>
    </g>
  </g>
</svg>
