<?xml version="1.0" encoding="UTF-8"?>
<svg xmlns="http://www.w3.org/2000/svg" xmlns:xlink="http://www.w3.org/1999/xlink" id="Group_893" data-name="Group 893" width="117.173" height="123.07" viewBox="0 0 117.173 123.07">
  <defs>
    <clipPath id="clip-path">
      <rect id="Rectangle_1194" data-name="Rectangle 1194" width="117.173" height="123.07" fill="none"></rect>
    </clipPath>
  </defs>
  <g id="Group_892" data-name="Group 892" clip-path="url(#clip-path)">
    <path id="Path_13072" data-name="Path 13072" d="M49.834,24.9A27.434,27.434,0,1,1,22.4,52.334,27.436,27.436,0,0,1,49.834,24.9" transform="translate(35.033 38.943)" fill="#1c6d88"></path>
    <path id="Path_13073" data-name="Path 13073" d="M42.4,28.9A15.9,15.9,0,1,1,26.5,44.8,15.9,15.9,0,0,1,42.4,28.9" transform="translate(41.445 45.199)" fill="#fff"></path>
    <rect id="Rectangle_1193" data-name="Rectangle 1193" width="45.895" height="59.228" transform="translate(14.615 3.077)" fill="#e09c14"></rect>
    <path id="Path_13074" data-name="Path 13074" d="M77.506,82.229H9.561A8.536,8.536,0,0,1,1.1,73.768V17.361A8.536,8.536,0,0,1,9.561,8.9H77.506a8.536,8.536,0,0,1,8.461,8.461V73.768a8.217,8.217,0,0,1-8.461,8.461" transform="translate(1.72 13.919)" fill="#e09c14"></path>
    <path id="Path_13075" data-name="Path 13075" d="M112.814,84.1l-2.564-.513a17.217,17.217,0,0,0-2.564-5.9l1.538-2.308A4.3,4.3,0,0,0,108.712,70l-3.846-3.846a3.947,3.947,0,0,0-5.384-.513l-2.308,1.538a23.517,23.517,0,0,0-5.9-2.308l-.256-2.051V32.306A11.382,11.382,0,0,0,79.739,21.025H77.688a3.043,3.043,0,0,0-.769-2.564L59.228.769c0-.513-.769-.769-1.282-.769H19.486a6.3,6.3,0,0,0-6.41,6.154V21.025H11.281A11.382,11.382,0,0,0,0,32.306V88.713a9.739,9.739,0,0,0,9.743,9.743H58.2A21.763,21.763,0,0,0,60.51,104.1l-1.538,2.051a3.974,3.974,0,0,0,.513,5.384l4.1,4.1a4.267,4.267,0,0,0,5.384.513l2.308-1.538a40.909,40.909,0,0,0,5.9,2.564l.513,2.564a3.929,3.929,0,0,0,4.1,3.333h5.641a4.351,4.351,0,0,0,4.1-3.59l.513-2.564a17.216,17.216,0,0,0,5.9-2.564l2.051,1.538a4,4,0,0,0,5.384-.513l4.1-4.1a4.268,4.268,0,0,0,.513-5.384l-1.538-2.051a40.908,40.908,0,0,0,2.564-5.9l2.308-.513a4.163,4.163,0,0,0,3.846-4.1V87.688c-.769-1.538-2.308-3.333-4.359-3.59M5.128,87.175V43.587a4.6,4.6,0,0,1,4.615-4.615H28.46a4.4,4.4,0,0,1,4.359,3.333,9.852,9.852,0,0,0,9.23,6.923H81.278a4.6,4.6,0,0,1,4.615,4.615V87.175A6.021,6.021,0,0,1,80,93.328H11.025a6.382,6.382,0,0,1-5.9-6.154M80,98.456h1.538a9.739,9.739,0,0,0,9.743-9.743V80a13.283,13.283,0,0,1,6.154,12.82c-1.538,11.794-16.922,15.9-23.845,5.641Zm0-72.3a6.239,6.239,0,0,1,6.154,6.154V45.382A8.854,8.854,0,0,0,81.534,44.1H78.2V26.152ZM60.51,8.717l8.974,8.974H62.817a2.3,2.3,0,0,1-2.308-2.308ZM18.2,6.154A1.1,1.1,0,0,1,19.23,5.128H55.382V15.384a7.441,7.441,0,0,0,7.436,7.435H73.073V43.844H42.305a4.4,4.4,0,0,1-4.359-3.333,9.852,9.852,0,0,0-9.23-6.923H18.461Zm-6.923,20h1.795v7.692H9.743a8.854,8.854,0,0,0-4.615,1.282v-2.82a6.074,6.074,0,0,1,6.154-6.154m99.995,66.663-2.308.513a4.494,4.494,0,0,0-3.333,3.077,21.764,21.764,0,0,1-2.308,5.641,4.328,4.328,0,0,0,.256,4.615l1.538,2.051-2.82,2.82-2.051-1.282a4.279,4.279,0,0,0-4.615-.256A21.763,21.763,0,0,1,90,112.3a4.125,4.125,0,0,0-3.077,3.333l-.769,2.308h-4.1l-.513-2.308a4.494,4.494,0,0,0-3.077-3.333,21.763,21.763,0,0,1-5.641-2.308,4.9,4.9,0,0,0-4.615,0l-2.051,1.282-2.82-2.82,1.282-2.051a4.279,4.279,0,0,0,.256-4.615,23.443,23.443,0,0,1-1.795-3.59h4.1a17.971,17.971,0,0,0,16.666,10.769,7.1,7.1,0,0,0,2.308-.256,18.328,18.328,0,0,0,4.359-35.126V69.74a19.846,19.846,0,0,1,4.1,1.795,4.279,4.279,0,0,0,4.615-.256l2.051-1.538,2.82,2.82-1.538,2.051a3.472,3.472,0,0,0,0,4.359,21.763,21.763,0,0,1,2.308,5.641,4.125,4.125,0,0,0,3.333,3.077l2.308.513v4.615Z" fill="#1e1e1c"></path>
    <path id="Path_13076" data-name="Path 13076" d="M11.464,8.328H36.847a2.422,2.422,0,0,0,2.564-2.564A2.422,2.422,0,0,0,36.847,3.2H11.464A2.422,2.422,0,0,0,8.9,5.764a2.569,2.569,0,0,0,2.564,2.564m0,10.769H24.54A2.422,2.422,0,0,0,27.1,16.533a2.422,2.422,0,0,0-2.564-2.564H11.464A2.422,2.422,0,0,0,8.9,16.533,2.569,2.569,0,0,0,11.464,19.1" transform="translate(13.919 5.005)" fill="#fff"></path>
  </g>
</svg>
