<?xml version="1.0" encoding="UTF-8"?>
<svg xmlns="http://www.w3.org/2000/svg" xmlns:xlink="http://www.w3.org/1999/xlink" width="24px" height="24px" viewBox="0 0 24 24">
  <g id="surface1">
    <path style=" stroke:none;fill-rule:nonzero;fill:rgb(4.313725%,8.627451%,24.705882%);fill-opacity:1;" d="M 22.945312 19.9375 L 1.042969 19.9375 L 1.042969 4.136719 L 22.945312 4.136719 Z M 2.542969 18.4375 L 21.445312 18.4375 L 21.445312 5.636719 L 2.542969 5.636719 Z M 2.542969 18.4375 "></path>
    <path style=" stroke:none;fill-rule:nonzero;fill:rgb(4.313725%,8.627451%,24.705882%);fill-opacity:1;" d="M 22.042969 10.835938 L 2.042969 10.835938 C 1.644531 10.835938 1.242188 10.535156 1.242188 10.136719 C 1.242188 9.738281 1.542969 9.335938 2.042969 9.335938 L 22.042969 9.335938 C 22.445312 9.335938 22.84375 9.636719 22.84375 10.136719 C 22.84375 10.636719 22.445312 10.835938 22.042969 10.835938 Z M 22.042969 10.835938 "></path>
    <path style=" stroke:none;fill-rule:nonzero;fill:rgb(4.313725%,8.627451%,24.705882%);fill-opacity:1;" d="M 11.996094 9.144531 C 11.097656 9.144531 10.398438 8.34375 10.398438 7.445312 C 10.398438 6.542969 11.097656 5.84375 11.996094 5.84375 C 12.898438 5.84375 13.597656 6.542969 13.597656 7.445312 C 13.597656 8.34375 12.898438 9.144531 11.996094 9.144531 Z M 11.996094 6.84375 C 11.699219 6.84375 11.398438 7.144531 11.398438 7.445312 C 11.398438 7.742188 11.699219 8.042969 11.996094 8.042969 C 12.398438 8.144531 12.597656 7.84375 12.597656 7.445312 C 12.597656 7.042969 12.398438 6.84375 11.996094 6.84375 Z M 11.996094 6.84375 "></path>
    <path style=" stroke:none;fill-rule:nonzero;fill:rgb(4.313725%,8.627451%,24.705882%);fill-opacity:1;" d="M 9.296875 9.144531 C 8.796875 9.144531 8.296875 8.945312 7.996094 8.542969 C 7.597656 7.84375 7.597656 7.042969 7.996094 6.542969 C 8.398438 5.945312 9.199219 5.742188 9.898438 6.042969 C 10.199219 6.042969 10.296875 6.34375 10.199219 6.644531 C 10.097656 6.84375 9.796875 7.042969 9.496094 6.84375 C 9.296875 6.742188 8.996094 6.84375 8.796875 7.042969 C 8.699219 7.34375 8.699219 7.644531 8.898438 7.84375 C 9.097656 8.042969 9.296875 8.144531 9.597656 8.042969 C 9.898438 7.945312 10.097656 8.042969 10.296875 8.34375 C 10.496094 8.644531 10.296875 8.84375 9.996094 9.042969 C 9.699219 9.042969 9.496094 9.144531 9.296875 9.144531 Z M 15.796875 9.144531 C 15.699219 9.144531 15.597656 9.144531 15.597656 9.042969 L 14.796875 8.644531 C 14.796875 8.84375 14.597656 9.042969 14.296875 9.042969 C 13.996094 9.042969 13.796875 8.84375 13.796875 8.542969 L 13.796875 6.34375 C 13.796875 6.042969 13.996094 5.84375 14.296875 5.84375 L 15.796875 5.84375 C 16.097656 5.84375 16.296875 6.042969 16.296875 6.34375 L 16.296875 7.144531 C 16.296875 7.34375 16.199219 7.542969 15.996094 7.542969 L 15.398438 7.84375 L 15.996094 8.144531 C 16.199219 8.242188 16.296875 8.542969 16.199219 8.84375 C 16.097656 9.042969 15.898438 9.144531 15.796875 9.144531 Z M 14.796875 6.84375 L 14.796875 7.042969 L 15.199219 6.84375 Z M 14.796875 6.84375 "></path>
    <path style=" stroke:none;fill-rule:nonzero;fill:rgb(4.313725%,8.627451%,24.705882%);fill-opacity:1;" d="M 18.402344 9.144531 L 16.902344 9.144531 C 16.601562 9.144531 16.402344 8.945312 16.402344 8.644531 L 16.402344 6.347656 C 16.402344 6.046875 16.601562 5.847656 16.902344 5.847656 L 18.402344 5.847656 C 18.699219 5.847656 18.902344 6.046875 18.902344 6.347656 C 18.902344 6.644531 18.699219 6.847656 18.402344 6.847656 L 17.402344 6.847656 L 17.402344 6.945312 L 17.601562 6.945312 C 17.902344 6.945312 18.101562 7.144531 18.101562 7.445312 C 18.101562 7.746094 17.902344 7.945312 17.601562 7.945312 L 17.402344 7.945312 L 17.402344 8.046875 L 18.402344 8.046875 C 18.699219 8.144531 18.902344 8.347656 18.902344 8.644531 C 18.902344 8.945312 18.699219 9.144531 18.402344 9.144531 Z M 18.402344 9.144531 "></path>
    <path style=" stroke:none;fill-rule:nonzero;fill:rgb(4.313725%,8.627451%,24.705882%);fill-opacity:1;" d="M 7.097656 9.144531 L 5.597656 9.144531 C 5.296875 9.144531 5.097656 8.945312 5.097656 8.644531 C 5.097656 8.34375 5.296875 8.144531 5.597656 8.144531 L 6.199219 8.144531 L 5.199219 6.644531 C 5.097656 6.445312 5.097656 6.242188 5.199219 6.144531 C 5.296875 6.042969 5.398438 5.84375 5.597656 5.84375 L 7.097656 5.84375 C 7.398438 5.84375 7.597656 6.042969 7.597656 6.34375 C 7.597656 6.644531 7.398438 6.84375 7.097656 6.84375 L 6.496094 6.84375 L 7.496094 8.34375 C 7.597656 8.445312 7.597656 8.644531 7.496094 8.84375 C 7.398438 9.042969 7.296875 9.144531 7.097656 9.144531 Z M 7.097656 9.144531 "></path>
    <path style=" stroke:none;fill-rule:nonzero;fill:rgb(4.313725%,8.627451%,24.705882%);fill-opacity:1;" d="M 16.945312 19.238281 C 16.644531 19.238281 16.445312 19.035156 16.445312 18.738281 L 16.445312 15.136719 L 15.144531 15.136719 L 15.144531 18.738281 C 15.144531 19.035156 14.945312 19.238281 14.644531 19.238281 C 14.34375 19.238281 14.144531 19.035156 14.144531 18.738281 L 14.144531 15.136719 L 12.84375 15.136719 L 12.84375 18.738281 C 12.84375 19.035156 12.644531 19.238281 12.34375 19.238281 C 12.042969 19.238281 11.84375 19.035156 11.84375 18.738281 L 11.84375 15.136719 L 4.542969 15.136719 L 4.542969 18.738281 C 4.542969 19.035156 4.34375 19.238281 4.042969 19.238281 C 3.742188 19.238281 3.542969 19.035156 3.542969 18.738281 L 3.542969 15.136719 L 2.042969 15.136719 C 1.742188 15.136719 1.542969 14.9375 1.542969 14.636719 C 1.542969 14.335938 1.742188 14.136719 2.042969 14.136719 L 3.644531 14.136719 L 3.644531 10.335938 C 3.542969 10.035156 3.84375 9.835938 4.042969 9.835938 C 4.242188 9.835938 4.542969 10.035156 4.542969 10.335938 L 4.542969 14.136719 L 11.84375 14.136719 L 11.84375 10.335938 C 11.84375 10.035156 12.042969 9.835938 12.34375 9.835938 C 12.644531 9.835938 12.84375 10.035156 12.84375 10.335938 L 12.84375 14.136719 L 14.144531 14.136719 L 14.144531 10.335938 C 14.144531 10.035156 14.34375 9.835938 14.644531 9.835938 C 14.945312 9.835938 15.144531 10.035156 15.144531 10.335938 L 15.144531 14.136719 L 16.445312 14.136719 L 16.445312 10.335938 C 16.445312 10.035156 16.644531 9.835938 16.945312 9.835938 C 17.242188 9.835938 17.445312 10.035156 17.445312 10.335938 L 17.445312 14.136719 L 22.144531 14.136719 C 22.445312 14.136719 22.644531 14.335938 22.644531 14.636719 C 22.644531 14.9375 22.445312 15.136719 22.144531 15.136719 L 17.445312 15.136719 L 17.445312 18.738281 C 17.445312 19.035156 17.144531 19.238281 16.945312 19.238281 Z M 19.144531 13.535156 L 18.144531 12.738281 C 17.945312 12.535156 17.945312 12.238281 18.042969 12.035156 C 18.242188 11.835938 18.542969 11.835938 18.742188 11.9375 L 19.144531 12.238281 L 20.242188 11.335938 C 20.445312 11.136719 20.742188 11.238281 20.945312 11.4375 C 21.144531 11.636719 21.042969 11.9375 20.84375 12.136719 Z M 19.144531 13.535156 "></path>
    <path style=" stroke:none;fill-rule:nonzero;fill:rgb(4.313725%,8.627451%,24.705882%);fill-opacity:1;" d="M 19.976562 18.234375 C 19.773438 18.234375 19.675781 18.234375 19.574219 18.136719 L 19.273438 17.835938 L 19.074219 18.136719 C 18.875 18.335938 18.574219 18.335938 18.375 18.136719 C 18.175781 17.933594 18.175781 17.636719 18.273438 17.433594 L 18.675781 17.035156 L 18.273438 16.636719 C 18.074219 16.433594 18.074219 16.136719 18.375 15.933594 C 18.675781 15.734375 18.875 15.734375 19.074219 16.035156 L 19.375 16.335938 L 19.675781 16.035156 C 19.875 15.835938 20.175781 15.835938 20.375 15.933594 C 20.574219 16.136719 20.574219 16.433594 20.476562 16.636719 L 19.976562 17.035156 L 20.375 17.433594 C 20.574219 17.636719 20.574219 17.933594 20.273438 18.136719 C 20.175781 18.234375 20.074219 18.234375 19.976562 18.234375 Z M 19.976562 18.234375 "></path>
  </g>
</svg>
