<?xml version="1.0" encoding="UTF-8"?>
<svg xmlns="http://www.w3.org/2000/svg" width="65" height="65" viewBox="0 0 65 65">
  <g id="Group_5" data-name="Group 5" transform="translate(-2061 -186)">
    <rect id="Rectangle_5" data-name="Rectangle 5" width="65" height="65" transform="translate(2061 186)" fill="none"></rect>
    <g id="Group_2" data-name="Group 2" transform="translate(-41 -293.6)">
      <path id="Path_11" data-name="Path 11" d="M58.815,43.667H4.344A3,3,0,0,1,1.4,40.723V4.144A3,3,0,0,1,4.344,1.2H58.815A3,3,0,0,1,61.76,4.144V40.609A3.023,3.023,0,0,1,58.815,43.667Z" transform="translate(2103.186 489.759)" fill="#a5e0fa"></path>
      <path id="Path_12" data-name="Path 12" d="M60.02,0H3.4A3.337,3.337,0,0,0,0,3.4V41.9a3.337,3.337,0,0,0,3.4,3.4H60.02a3.337,3.337,0,0,0,3.4-3.4V3.4A3.337,3.337,0,0,0,60.02,0ZM2.265,3.4A1.07,1.07,0,0,1,3.4,2.265H60.02A1.07,1.07,0,0,1,61.152,3.4v3.4H2.265ZM61.152,41.9a1.07,1.07,0,0,1-1.132,1.132H3.4A1.07,1.07,0,0,1,2.265,41.9V9.06H61.152Z" transform="translate(2103 489.6)" fill="#4e5292"></path>
      <path id="Path_13" data-name="Path 13" d="M51.132,3h0a1.132,1.132,0,0,0,0,2.265,1.218,1.218,0,0,0,1.132-1.132A1.07,1.07,0,0,0,51.132,3Z" transform="translate(2109.623 489.997)" fill="#4e5292"></path>
      <path id="Path_14" data-name="Path 14" d="M47.132,3h0a1.132,1.132,0,1,0,0,2.265,1.218,1.218,0,0,0,1.132-1.132A1.07,1.07,0,0,0,47.132,3Z" transform="translate(2109.093 489.997)" fill="#4e5292"></path>
      <path id="Path_15" data-name="Path 15" d="M43.132,3h0a1.132,1.132,0,0,0,0,2.265,1.218,1.218,0,0,0,1.132-1.132A1.07,1.07,0,0,0,43.132,3Z" transform="translate(2108.563 489.997)" fill="#4e5292"></path>
      <path id="Path_16" data-name="Path 16" d="M5.132,12.265H13.06a1.07,1.07,0,0,0,1.132-1.132A1.07,1.07,0,0,0,13.06,10H5.132A1.07,1.07,0,0,0,4,11.132,1.07,1.07,0,0,0,5.132,12.265Z" transform="translate(2103.53 490.924)" fill="#4e5292"></path>
      <path id="Path_17" data-name="Path 17" d="M5.132,16.265H13.06a1.132,1.132,0,0,0,0-2.265H5.132a1.132,1.132,0,1,0,0,2.265Z" transform="translate(2103.53 491.454)" fill="#4e5292"></path>
      <path id="Path_18" data-name="Path 18" d="M5.132,20.265H13.06a1.132,1.132,0,0,0,0-2.265H5.132a1.132,1.132,0,0,0,0,2.265Z" transform="translate(2103.53 491.984)" fill="#4e5292"></path>
      <path id="Path_19" data-name="Path 19" d="M5.132,24.265H13.06a1.132,1.132,0,0,0,0-2.265H5.132a1.132,1.132,0,0,0,0,2.265Z" transform="translate(2103.53 492.514)" fill="#4e5292"></path>
      <path id="Path_20" data-name="Path 20" d="M35.132,23.457H45.1a1.07,1.07,0,0,0,1.132-1.132V22.1A13.119,13.119,0,0,0,42.72,15.3l1.019-2.038h4.983a1.07,1.07,0,0,0,1.132-1.132A1.07,1.07,0,0,0,48.722,11H43.06a1.088,1.088,0,0,0-1.019.679l-1.019,2.038a13.385,13.385,0,0,0-5.662-2.491A1.242,1.242,0,0,0,34,12.132V22.325A1.07,1.07,0,0,0,35.132,23.457Z" transform="translate(2107.503 491.057)" fill="#4e5292"></path>
      <path id="Path_21" data-name="Path 21" d="M36,13.5a11.136,11.136,0,0,1,7.361,7.361H36Z" transform="translate(2107.768 491.388)" fill="#ffdb7c"></path>
      <path id="Path_22" data-name="Path 22" d="M51.132,13.265h0a1.132,1.132,0,0,0,0-2.265A1.218,1.218,0,0,0,50,12.132,1.07,1.07,0,0,0,51.132,13.265Z" transform="translate(2109.623 491.057)" fill="#4e5292"></path>
      <path id="Path_23" data-name="Path 23" d="M51.53,14h-3.4a1.132,1.132,0,1,0,0,2.265h3.4a1.132,1.132,0,1,0,0-2.265Z" transform="translate(2109.225 491.454)" fill="#4e5292"></path>
      <path id="Path_24" data-name="Path 24" d="M24.474,33.17l-1.359,2.718H18.132a1.132,1.132,0,1,0,0,2.265h5.662a1.088,1.088,0,0,0,1.019-.679l1.359-2.718a13.5,13.5,0,0,0,19.138-1.246,13.727,13.727,0,0,0,3.171-6.568,1.242,1.242,0,0,0-.906-1.359H33.987V12.332A1.07,1.07,0,0,0,32.854,11.2h-.226A13.563,13.563,0,0,0,21.756,27.054a16.4,16.4,0,0,0,2.718,6.115Z" transform="translate(2105.251 491.083)" fill="#4e5292"></path>
      <path id="Path_25" data-name="Path 25" d="M30.925,13.5V26.523a1.07,1.07,0,0,0,1.132,1.132H45.081a11.282,11.282,0,1,1-21.517-6.795A10.913,10.913,0,0,1,30.925,13.5Z" transform="translate(2106.048 491.388)" fill="#f98882"></path>
      <path id="Path_26" data-name="Path 26" d="M14.132,35.265a1.132,1.132,0,0,0,0-2.265h0a1.132,1.132,0,1,0,0,2.265Z" transform="translate(2104.722 493.971)" fill="#4e5292"></path>
      <path id="Path_27" data-name="Path 27" d="M14.132,32.265h3.4a1.132,1.132,0,1,0,0-2.265h-3.4A1.07,1.07,0,0,0,13,31.132,1.135,1.135,0,0,0,14.132,32.265Z" transform="translate(2104.722 493.573)" fill="#4e5292"></path>
    </g>
  </g>
</svg>
