<?xml version="1.0" encoding="UTF-8"?>
<svg xmlns="http://www.w3.org/2000/svg" xmlns:xlink="http://www.w3.org/1999/xlink" width="24px" height="24px" viewBox="0 0 24 24">
  <g id="surface1">
    <path style=" stroke:none;fill-rule:nonzero;fill:rgb(4.313725%,8.627451%,24.705882%);fill-opacity:1;" d="M 14.378906 19.1875 C 9.082031 19.1875 4.863281 14.863281 4.863281 9.675781 C 4.863281 4.378906 9.1875 0.0546875 14.378906 0.0546875 C 19.675781 0.0546875 23.890625 4.378906 23.890625 9.566406 C 24 14.863281 19.675781 19.1875 14.378906 19.1875 Z M 14.378906 1.675781 C 10.054688 1.675781 6.488281 5.242188 6.488281 9.566406 C 6.488281 13.890625 10.054688 17.460938 14.378906 17.460938 C 18.703125 17.460938 22.269531 13.890625 22.269531 9.566406 C 22.378906 5.242188 18.8125 1.675781 14.378906 1.675781 Z M 14.378906 1.675781 "></path>
    <path style=" stroke:none;fill-rule:nonzero;fill:rgb(4.313725%,8.627451%,24.705882%);fill-opacity:1;" d="M 13.945312 13.242188 C 13.730469 13.242188 13.511719 13.136719 13.40625 13.027344 L 11.027344 10.648438 L 8.863281 12.917969 C 8.539062 13.242188 8 13.242188 7.675781 12.917969 C 7.351562 12.59375 7.351562 12.054688 7.675781 11.730469 L 10.488281 8.917969 C 10.8125 8.59375 11.351562 8.59375 11.675781 8.917969 L 13.945312 11.296875 L 16.214844 8.8125 C 16.539062 8.488281 17.082031 8.488281 17.40625 8.8125 C 17.730469 9.136719 17.730469 9.675781 17.40625 10 L 14.59375 13.027344 C 14.378906 13.136719 14.164062 13.242188 13.945312 13.242188 Z M 13.945312 13.242188 "></path>
    <path style=" stroke:none;fill-rule:nonzero;fill:rgb(4.313725%,8.627451%,24.705882%);fill-opacity:1;" d="M 14.378906 7.621094 L 18.703125 11.730469 L 18.59375 7.511719 Z M 14.378906 7.621094 "></path>
    <path style=" stroke:none;fill-rule:nonzero;fill:rgb(4.313725%,8.627451%,24.705882%);fill-opacity:1;" d="M 3.351562 23.945312 C 2.488281 23.945312 1.621094 23.621094 0.972656 22.972656 C -0.324219 21.675781 -0.324219 19.621094 0.972656 18.324219 L 2.59375 16.703125 C 3.890625 15.40625 5.945312 15.40625 7.242188 16.703125 C 8.539062 18 8.539062 20.054688 7.242188 21.351562 L 5.621094 22.972656 C 4.972656 23.621094 4.109375 23.945312 3.351562 23.945312 Z M 4.863281 17.351562 C 4.433594 17.351562 4 17.566406 3.675781 17.890625 L 2.164062 19.40625 C 1.511719 20.054688 1.511719 21.136719 2.164062 21.785156 C 2.8125 22.433594 3.890625 22.433594 4.539062 21.785156 L 6.164062 20.164062 C 6.8125 19.511719 6.8125 18.433594 6.164062 17.785156 C 5.730469 17.566406 5.296875 17.351562 4.863281 17.351562 Z M 4.863281 17.351562 "></path>
  </g>
</svg>
