<?xml version="1.0" encoding="UTF-8"?>
<svg xmlns="http://www.w3.org/2000/svg" xmlns:xlink="http://www.w3.org/1999/xlink" width="24px" height="24px" viewBox="0 0 24 24">
  <g id="surface1">
    <path style=" stroke:none;fill-rule:nonzero;fill:rgb(4.313725%,8.627451%,24.705882%);fill-opacity:1;" d="M 17.914062 22.285156 C 15.015625 22.285156 12.617188 19.886719 12.617188 16.988281 C 12.617188 14.085938 15.015625 11.6875 17.914062 11.6875 C 20.816406 11.6875 23.214844 14.085938 23.214844 16.988281 C 23.214844 19.886719 20.816406 22.285156 17.914062 22.285156 Z M 17.914062 13.1875 C 15.816406 13.1875 14.117188 14.886719 14.117188 16.988281 C 14.117188 19.085938 15.816406 20.785156 17.914062 20.785156 C 20.015625 20.785156 21.714844 19.085938 21.714844 16.988281 C 21.714844 14.886719 20.015625 13.1875 17.914062 13.1875 Z M 17.914062 13.1875 "></path>
    <path style=" stroke:none;fill-rule:nonzero;fill:rgb(4.313725%,8.627451%,24.705882%);fill-opacity:1;" d="M 17.816406 19.488281 C 17.414062 19.488281 17.117188 19.1875 17.117188 18.785156 L 17.117188 15.1875 C 17.117188 14.785156 17.414062 14.386719 17.914062 14.386719 C 18.414062 14.386719 18.714844 14.6875 18.714844 15.1875 L 18.714844 18.785156 C 18.617188 19.1875 18.214844 19.488281 17.816406 19.488281 Z M 17.816406 19.488281 "></path>
    <path style=" stroke:none;fill-rule:nonzero;fill:rgb(4.313725%,8.627451%,24.705882%);fill-opacity:1;" d="M 19.714844 17.6875 L 16.015625 17.6875 C 15.617188 17.6875 15.214844 17.386719 15.214844 16.886719 C 15.214844 16.386719 15.515625 16.085938 16.015625 16.085938 L 19.714844 16.085938 C 20.117188 16.1875 20.414062 16.488281 20.414062 16.886719 C 20.414062 17.285156 20.117188 17.6875 19.714844 17.6875 Z M 19.714844 17.6875 "></path>
    <path style=" stroke:none;fill-rule:nonzero;fill:rgb(4.313725%,8.627451%,24.705882%);fill-opacity:1;" d="M 13.453125 18.683594 L 2.953125 18.683594 C 1.753906 18.683594 0.855469 17.785156 0.855469 16.585938 L 0.855469 3.882812 C 0.855469 2.683594 1.753906 1.785156 2.953125 1.785156 L 8.855469 1.785156 C 9.054688 1.785156 9.253906 1.882812 9.355469 1.984375 L 10.953125 3.585938 L 19.253906 3.585938 C 20.453125 3.585938 21.355469 4.484375 21.355469 5.683594 L 21.355469 13.382812 C 21.355469 13.785156 21.054688 14.183594 20.554688 14.183594 C 20.054688 14.183594 19.753906 13.882812 19.753906 13.382812 L 19.753906 5.683594 C 19.753906 5.382812 19.453125 5.085938 19.152344 5.085938 L 10.652344 5.085938 C 10.453125 5.085938 10.253906 4.984375 10.152344 4.882812 L 8.453125 3.183594 L 2.953125 3.183594 C 2.554688 3.183594 2.355469 3.484375 2.355469 3.882812 L 2.355469 16.585938 C 2.355469 16.882812 2.652344 17.183594 2.953125 17.183594 L 13.453125 17.183594 C 13.855469 17.183594 14.253906 17.484375 14.253906 17.984375 C 14.253906 18.484375 13.855469 18.683594 13.453125 18.683594 Z M 13.453125 18.683594 "></path>
  </g>
</svg>
