<?xml version="1.0" encoding="UTF-8"?>
<svg xmlns="http://www.w3.org/2000/svg" width="90" height="90" viewBox="0 0 90 90">
  <g id="Audit_Ready_Latest_1_" data-name="Audit Ready Latest (1)" transform="translate(5.003 4)">
    <path id="Path_81" data-name="Path 81" d="M0,0H90V90H0Z" transform="translate(-5.003 -4)" fill="none"></path>
    <path id="Path_80" data-name="Path 80" d="M0,0H90V90H0Z" transform="translate(-5.003 -4)" fill="none" opacity="0"></path>
    <path id="Path_42" data-name="Path 42" d="M7.5,82.351V12.308A4.808,4.808,0,0,1,12.308,7.5H61.515a4.808,4.808,0,0,1,4.808,4.808V74.346L53.307,87.159h-41A4.808,4.808,0,0,1,7.5,82.351Z" transform="translate(-6.298 -6.298)" fill="#f0f0f2"></path>
    <path id="Path_43" data-name="Path 43" d="M293.5,437.322v-8.014a4.808,4.808,0,0,1,4.808-4.808h8.174Z" transform="translate(-246.458 -356.461)" fill="#dadadc"></path>
    <path id="Path_44" data-name="Path 44" d="M77.6,395.835l-8.815-.014a1.282,1.282,0,0,1-1.28-1.282V392.3a1.282,1.282,0,0,1,1.284-1.282l8.815.014a1.282,1.282,0,0,1,1.28,1.282v2.244a1.282,1.282,0,0,1-1.284,1.282Z" transform="translate(-56.681 -328.341)" fill="#2370b5"></path>
    <path id="Path_45" data-name="Path 45" d="M83.934,391.027l-8.815-.014c-.026,0-.05,0-.075,0l6.487.01a1.282,1.282,0,0,1,1.28,1.282v2.244a1.281,1.281,0,0,1-1.209,1.279l2.329,0a1.282,1.282,0,0,0,1.284-1.282v-2.244A1.282,1.282,0,0,0,83.934,391.027Z" transform="translate(-63.015 -328.341)" fill="#1067ae"></path>
    <path id="Path_46" data-name="Path 46" d="M193.6,395.835l-8.815-.014a1.282,1.282,0,0,1-1.28-1.282V392.3a1.282,1.282,0,0,1,1.284-1.282l8.815.014a1.282,1.282,0,0,1,1.28,1.282v2.244a1.282,1.282,0,0,1-1.284,1.282Z" transform="translate(-154.089 -328.341)" fill="#fed947"></path>
    <path id="Path_47" data-name="Path 47" d="M199.934,391.027l-8.815-.014c-.026,0-.05,0-.075,0l6.487.01a1.282,1.282,0,0,1,1.28,1.282v2.244a1.281,1.281,0,0,1-1.209,1.279l2.329,0a1.282,1.282,0,0,0,1.284-1.282v-2.244A1.282,1.282,0,0,0,199.934,391.027Z" transform="translate(-160.423 -328.341)" fill="#fed030"></path>
    <path id="Path_48" data-name="Path 48" d="M80.9,297.113h2.4a2.4,2.4,0,0,1,2.4,2.4v7.854H78.5v-7.854A2.4,2.4,0,0,1,80.9,297.113Z" transform="translate(-65.918 -249.492)" fill="#fed947"></path>
    <path id="Path_49" data-name="Path 49" d="M95.9,297.113H93.5a2.4,2.4,0,0,1,2.4,2.4v7.854h2.4v-7.854A2.4,2.4,0,0,0,95.9,297.113Z" transform="translate(-78.514 -249.492)" fill="#fed030"></path>
    <path id="Path_50" data-name="Path 50" d="M170.9,267.113h2.4a2.4,2.4,0,0,1,2.4,2.4v12.662H168.5V269.517A2.4,2.4,0,0,1,170.9,267.113Z" transform="translate(-141.493 -224.3)" fill="#2370b5"></path>
    <path id="Path_51" data-name="Path 51" d="M185.9,267.113h-2.4a2.4,2.4,0,0,1,2.4,2.4v12.662h2.4V269.517A2.4,2.4,0,0,0,185.9,267.113Z" transform="translate(-154.089 -224.3)" fill="#1067ae"></path>
    <path id="Path_52" data-name="Path 52" d="M260.9,207.113h2.4a2.4,2.4,0,0,1,2.4,2.4V231.8H258.5V209.517A2.4,2.4,0,0,1,260.9,207.113Z" transform="translate(-217.068 -173.917)" fill="#fed947"></path>
    <path id="Path_53" data-name="Path 53" d="M275.9,207.113h-2.4a2.4,2.4,0,0,1,2.4,2.4V231.8h2.4V209.517A2.4,2.4,0,0,0,275.9,207.113Z" transform="translate(-229.663 -173.917)" fill="#fed030"></path>
    <path id="Path_54" data-name="Path 54" d="M341.749,211.5l4.134-4.134,9.688,9.688-4.134,4.134Z" transform="translate(-286.973 -174.131)" fill="#8b8893"></path>
    <path id="Path_55" data-name="Path 55" d="M359.5,207.368l-1.535,1.535,5.829,5.829a2.059,2.059,0,0,1,0,2.911l-1.143,1.143,2.4,2.4,4.134-4.134Z" transform="translate(-300.588 -174.131)" fill="#787681"></path>
    <path id="Path_56" data-name="Path 56" d="M399.5,265.115a4.384,4.384,0,0,1,6.2,0l8.267,8.267a4.384,4.384,0,1,1-6.2,6.2l-8.267-8.267A4.384,4.384,0,0,1,399.5,265.115Z" transform="translate(-334.386 -221.544)" fill="#b28b6a"></path>
    <path id="Path_57" data-name="Path 57" d="M424.338,273.381l-8.267-8.267a4.386,4.386,0,0,0-5.5-.567,4.406,4.406,0,0,1,.7.567l8.267,8.267a4.387,4.387,0,0,1-.7,6.767,4.385,4.385,0,0,0,5.5-6.768Z" transform="translate(-344.76 -221.543)" fill="#a17855"></path>
    <circle id="Ellipse_8" data-name="Ellipse 8" cx="18.025" cy="18.025" r="18.025" transform="translate(30.482 9.081)" fill="#8b8893"></circle>
    <path id="Path_58" data-name="Path 58" d="M306.3,61.924a17.988,17.988,0,0,0-14.479-5.2,18.025,18.025,0,0,1,0,35.883A18.025,18.025,0,0,0,306.3,61.924Z" transform="translate(-245.044 -47.564)" fill="#787681"></path>
    <path id="Path_59" data-name="Path 59" d="M247.435,113.915a12.1,12.1,0,1,1,3.6-8.612A12.179,12.179,0,0,1,247.435,113.915Z" transform="translate(-190.317 -78.198)" fill="#52bbe9"></path>
    <path id="Path_60" data-name="Path 60" d="M298.645,96.717A12.176,12.176,0,0,0,287.63,93.4a12.172,12.172,0,0,1,0,23.868,12.176,12.176,0,0,0,11.016-20.547Z" transform="translate(-241.528 -78.223)" fill="#1cabe1"></path>
    <path id="Path_61" data-name="Path 61" d="M269.187,167.544v10.178A12.2,12.2,0,0,1,260,175.858v-8.314a2.4,2.4,0,0,1,2.4-2.4h4.379a2.4,2.4,0,0,1,2.4,2.4Z" transform="translate(-218.327 -138.671)" fill="#fed947"></path>
    <path id="Path_62" data-name="Path 62" d="M282.708,165.14h-3.743a2.4,2.4,0,0,1,2.4,2.4v10.178c-.161.032-.323.058-.485.083a12.271,12.271,0,0,0,4.228-.083V167.544A2.4,2.4,0,0,0,282.708,165.14Z" transform="translate(-234.252 -138.671)" fill="#fed030"></path>
    <path id="Path_63" data-name="Path 63" d="M22.2,71.1l-11.38-.014h0a1.2,1.2,0,1,0,0,2.4L22.2,73.5h0a1.2,1.2,0,0,0,0-2.4ZM80.427,50.988,72.16,42.721a5.565,5.565,0,0,0-3.694-1.627L64.76,37.388A19.244,19.244,0,0,0,62.1,13.51q-.427-.427-.874-.82V6.011A6.017,6.017,0,0,0,55.217,0H6.011A6.017,6.017,0,0,0,0,6.011V76.053a6.017,6.017,0,0,0,6.011,6.011H47.042a1.2,1.2,0,0,0,.994-.526L60.868,68.9a1.2,1.2,0,0,0,.359-.857V45.521l1.405,1.4a5.565,5.565,0,0,0,1.627,3.7l8.267,8.267a5.587,5.587,0,0,0,7.9-7.9ZM48.244,77.959V72.848a3.61,3.61,0,0,1,3.606-3.606H57.1ZM58.823,66.837H51.851a6.017,6.017,0,0,0-6.011,6.011v6.812H6.011A3.61,3.61,0,0,1,2.4,76.053V6.011A3.61,3.61,0,0,1,6.011,2.4H55.217a3.61,3.61,0,0,1,3.606,3.606V10.88a19.234,19.234,0,0,0-26.578,5.965L8.416,16.829h0a1.2,1.2,0,0,0,0,2.4l22.545.015a19.146,19.146,0,0,0-.886,2.4L8.416,21.638a1.2,1.2,0,0,0,0,2.4l21.117.013a19.374,19.374,0,0,0-.231,2.4L8.416,26.446a1.2,1.2,0,1,0,0,2.4l20.955.014A19.253,19.253,0,0,0,40.23,44.47v12.2l-4.808,0V45.217a3.61,3.61,0,0,0-3.606-3.606h-2.4a3.61,3.61,0,0,0-3.606,3.606V56.666l-4.808,0V50.025a3.61,3.61,0,0,0-3.606-3.606h-2.4a3.61,3.61,0,0,0-3.606,3.606v6.634l-3.285,0h0a1.2,1.2,0,1,0,0,2.4l4.292,0a1.2,1.2,0,0,0,.2.017h7.213a1.207,1.207,0,0,0,.174-.014l6.884,0a1.207,1.207,0,0,0,.154.011H34.22a1.216,1.216,0,0,0,.133-.008l6.989,0c.03,0,.06,0,.091,0h7.24l4.861,0h0a1.2,1.2,0,1,0,0-2.4l-3.687,0V46.285a19.048,19.048,0,0,0,8.976-2.948ZM33.018,45.217V56.669l-4.808,0V45.217a1.2,1.2,0,0,1,1.2-1.2h2.4a1.2,1.2,0,0,1,1.2,1.2ZM18.593,50.025v6.637l-4.808,0V50.025a1.2,1.2,0,0,1,1.2-1.2h2.4A1.2,1.2,0,0,1,18.593,50.025Zm24.042,6.648V45.422a19.206,19.206,0,0,0,4.808.88V56.675ZM60.4,39a17.05,17.05,0,0,1-1.963,1.686c-.013.008-.025.018-.037.027a16.871,16.871,0,0,1-16.425,1.9,1.192,1.192,0,0,0-.139-.06A16.824,16.824,0,1,1,62.266,36.79q-.035.044-.066.092A17.037,17.037,0,0,1,60.4,39Zm2.834,5.129-2.33-2.33q.617-.522,1.2-1.1.648-.648,1.226-1.346L65.669,41.7a5.569,5.569,0,0,0-2.433,2.433ZM78.727,57.189a3.182,3.182,0,0,1-4.5,0L65.96,48.921a3.182,3.182,0,1,1,4.5-4.5l8.267,8.267a3.186,3.186,0,0,1,0,4.5ZM20.434,9.617l15.547.018h0a1.2,1.2,0,0,0,0-2.4L20.437,7.213h0a1.2,1.2,0,1,0,0,2.4ZM39.513,61.484,30.7,61.47h0a2.484,2.484,0,0,0-2.484,2.484V66.2a2.488,2.488,0,0,0,2.481,2.484l8.815.014h0a2.484,2.484,0,0,0,2.484-2.485V63.968a2.488,2.488,0,0,0-2.481-2.484Zm.076,4.728a.076.076,0,0,1-.023.057.067.067,0,0,1-.057.024l-8.815-.014a.08.08,0,0,1-.08-.08V63.954a.08.08,0,0,1,.08-.08l8.815.014a.08.08,0,0,1,.08.08ZM20.92,61.484,12.1,61.47h0a2.484,2.484,0,0,0-2.484,2.484V66.2A2.488,2.488,0,0,0,12.1,68.682l8.815.014h0A2.484,2.484,0,0,0,23.4,66.212V63.968a2.488,2.488,0,0,0-2.481-2.484ZM21,66.212a.076.076,0,0,1-.023.057.068.068,0,0,1-.057.024L12.1,66.278a.08.08,0,0,1-.08-.08V63.954a.076.076,0,0,1,.024-.057.089.089,0,0,1,.057-.023l8.815.014a.08.08,0,0,1,.08.08ZM48.506,13.73a13.375,13.375,0,1,0,9.462,3.914,13.375,13.375,0,0,0-9.462-3.914Zm1.152,24.285a11,11,0,0,1-6.783-1.487V28.873a1.2,1.2,0,0,1,1.2-1.2h4.379a1.2,1.2,0,0,1,1.2,1.2Zm6.61-3.148a10.907,10.907,0,0,1-4.206,2.62V28.873a3.61,3.61,0,0,0-3.606-3.606H44.077a3.61,3.61,0,0,0-3.606,3.606V34.58a11.012,11.012,0,0,1-2.087-11.725l12.023.017h0a1.2,1.2,0,1,0,0-2.4l-10.632-.015a10.976,10.976,0,1,1,16.49,14.415ZM40.793,71.1l-10.866-.014h0a1.2,1.2,0,1,0,0,2.4L40.79,73.5h0a1.2,1.2,0,0,0,0-2.4Z" fill="#3c3b41"></path>
  </g>
</svg>
