<?xml version="1.0" encoding="UTF-8"?>
<svg xmlns="http://www.w3.org/2000/svg" width="24" height="24" viewBox="0 0 24 24">
  <g id="Smart_Farm" data-name="Smart Farm" transform="translate(65 -297)">
    <rect id="Rectangle_771" data-name="Rectangle 771" width="24" height="24" transform="translate(-65 297)" fill="#fff" opacity="0"></rect>
    <g id="agronomy" transform="translate(-64 298)">
      <g id="Group_251" data-name="Group 251" transform="translate(6.148 2.76)">
        <g id="Group_250" data-name="Group 250">
          <path id="Path_11478" data-name="Path 11478" d="M153.918,73.3a.425.425,0,0,0-.262-.28,3.022,3.022,0,0,0-.561-.131,3.612,3.612,0,0,0,.823-3.546.425.425,0,0,0-.262-.28,3.659,3.659,0,0,0-2.286.024,3.82,3.82,0,0,0,.106-.908,3.611,3.611,0,0,0-1.928-3.217.425.425,0,0,0-.383-.013,3.6,3.6,0,0,0-1.953,3.23,3.82,3.82,0,0,0,.107.91,3.659,3.659,0,0,0-2.291-.026.425.425,0,0,0-.262.28,3.612,3.612,0,0,0,.823,3.546,3.022,3.022,0,0,0-.561.131.425.425,0,0,0-.262.28,3.611,3.611,0,0,0,.912,3.638,3.528,3.528,0,0,0,2.552,1.075,3.8,3.8,0,0,0,.684-.062v2.782a.425.425,0,0,0,.85,0V77.953a3.808,3.808,0,0,0,.69.063,3.528,3.528,0,0,0,2.552-1.075A3.611,3.611,0,0,0,153.918,73.3Zm-5,3.325a2.835,2.835,0,0,1-.062.472,2.805,2.805,0,0,1-3.331-3.332,2.851,2.851,0,0,1,1.461.069l.121.043a2.787,2.787,0,0,1,.988.648,2.71,2.71,0,0,1,.823,1.817Zm0-3.957a2.834,2.834,0,0,1-.062.472,2.38,2.38,0,0,1-1.261-.122c-.061-.024-.11-.11-.17-.129a2.847,2.847,0,0,1-.929-.67,2.764,2.764,0,0,1-.97-2.411,2.722,2.722,0,0,1,2.436.9h0c.037.042.1.075.134.113a2.707,2.707,0,0,1,.823,1.565Zm.431-2.133a2.891,2.891,0,0,1-.52-.43l-.061-.065a3.223,3.223,0,0,1,.578-4.216,3.274,3.274,0,0,1,.647,4.145q-.1.1-.194.209A2.855,2.855,0,0,1,149.345,70.538Zm.422,2a2.586,2.586,0,0,1,.826-1.577c.063-.062.2-.174.261-.246a2.559,2.559,0,0,1,2.309-.9,2.747,2.747,0,0,1-.96,2.412,2.583,2.583,0,0,1-.833.67c-.062.02-.137.105-.2.129a2.668,2.668,0,0,1-1.338.122,2.855,2.855,0,0,1-.066-.6S149.766,72.537,149.766,72.534ZM152.4,76.34a2.744,2.744,0,0,1-2.572.76,2.758,2.758,0,0,1,.759-2.573,2.807,2.807,0,0,1,.959-.639q.091-.029.183-.065a2.826,2.826,0,0,1,1.429-.058A2.741,2.741,0,0,1,152.4,76.34Z" transform="translate(-144.605 -64.913)" fill="#fff"></path>
        </g>
      </g>
      <g id="Group_253" data-name="Group 253" transform="translate(0)">
        <g id="Group_252" data-name="Group 252">
          <path id="Path_11479" data-name="Path 11479" d="M13.153.237A10.957,10.957,0,0,0,10.884,0,10.884,10.884,0,0,0,2.3,17.575a1.616,1.616,0,1,0,1.359-.741.509.509,0,0,0-.4.1,7.552,7.552,0,0,1-1.214-2.155A11.821,11.821,0,0,1,1.4,10.884a9.568,9.568,0,0,1,9.686-9.815,6.807,6.807,0,0,1,1.717,0c.23.049.631-.1.68-.328A.425.425,0,0,0,13.153.237ZM3.117,17.909a.765.765,0,1,1-.224.541A.763.763,0,0,1,3.117,17.909Z" transform="translate(0)" fill="#fff"></path>
        </g>
      </g>
      <g id="Group_255" data-name="Group 255" transform="translate(8.612 1.703)">
        <g id="Group_254" data-name="Group 254">
          <path id="Path_11480" data-name="Path 11480" d="M213.413,42.541a1.616,1.616,0,1,0-1.359.741c.256,0,.319.112.541,0a9.393,9.393,0,0,1,1.891,5.95,9.293,9.293,0,0,1-9.658,9.509,9.553,9.553,0,0,1-1.721,0c-.231-.041-.5.481-.545.713a.425.425,0,0,0,.344.493,10.986,10.986,0,0,0,1.922.169,10.884,10.884,0,0,0,8.584-17.575Zm-.817-.333a.765.765,0,1,1,.224-.541A.76.76,0,0,1,212.6,42.208Z" transform="translate(-202.556 -40.051)" fill="#fff"></path>
        </g>
      </g>
      <g id="Group_257" data-name="Group 257" transform="translate(6.563 20.168)">
        <g id="Group_256" data-name="Group 256">
          <path id="Path_11481" data-name="Path 11481" d="M154.941,474.392l-.161.394.159-.394a.425.425,0,1,0-.319.788l.013.005a.425.425,0,1,0,.307-.793Z" transform="translate(-154.355 -474.36)" fill="#fff"></path>
        </g>
      </g>
      <g id="Group_259" data-name="Group 259" transform="translate(14.367 0.755)">
        <g id="Group_258" data-name="Group 258">
          <path id="Path_11482" data-name="Path 11482" d="M338.519,17.787l-.008,0a.425.425,0,1,0-.316.789l0,0a.425.425,0,0,0,.318-.788Z" transform="translate(-337.929 -17.754)" fill="#fff"></path>
        </g>
      </g>
    </g>
  </g>
</svg>
