<?xml version="1.0" encoding="UTF-8"?>
<svg xmlns="http://www.w3.org/2000/svg" width="24" height="24" viewBox="0 0 24 24">
  <g id="Smart_Regulatory" data-name="Smart Regulatory" transform="translate(-102 35)">
    <rect id="Rectangle_776" data-name="Rectangle 776" width="24" height="24" transform="translate(102 -35)" fill="#fff" opacity="0"></rect>
    <g id="law" transform="translate(102.763 -43.421)">
      <g id="Group_452" data-name="Group 452" transform="translate(1.631 9.421)">
        <g id="Group_451" data-name="Group 451">
          <path id="Path_11949" data-name="Path 11949" d="M58.26,26.612l-4.479-4.479a.806.806,0,0,0-.987-.12L50.278,19.5a.33.33,0,0,0-.467.467l2.5,2.5-.921.921L46.805,18.8l.921-.921.613.613a.33.33,0,1,0,.467-.467l-.613-.613,1.6-1.6.126.126a.831.831,0,0,0,1.175,0l.588-.588a.831.831,0,0,0,0-1.175L47.164,9.664a.831.831,0,0,0-1.175,0l-.588.588a.831.831,0,0,0,0,1.175l.126.126L40.481,16.6l-.126-.126a.832.832,0,0,0-1.175,0l-.588.588a.831.831,0,0,0,0,1.175l4.514,4.514a.831.831,0,0,0,1.175,0l.588-.588h0a.832.832,0,0,0,0-1.175l-.126-.126,1.6-1.6,4.6,4.6a.806.806,0,0,0,.12.987l4.479,4.479a.807.807,0,0,0,1.142,0l1.58-1.58a.807.807,0,0,0,0-1.142ZM45.868,10.72l.588-.588a.17.17,0,0,1,.241,0l4.514,4.514a.17.17,0,0,1,0,.241l-.588.588a.174.174,0,0,1-.241,0L45.868,10.96a.17.17,0,0,1,0-.241ZM44.4,21.7l-.588.588a.174.174,0,0,1-.241,0L39.058,17.77a.17.17,0,0,1,0-.241l.588-.588a.17.17,0,0,1,.241,0L44.4,21.455A.17.17,0,0,1,44.4,21.7Zm1.7-3.131h0l-1.83,1.83-3.327-3.327,5.047-5.047,3.327,3.327-1.829,1.829h0Zm11.689,8.721-1.58,1.58a.147.147,0,0,1-.208,0l-4.479-4.479a.147.147,0,0,1,0-.208l.1-.1L53.106,22.6a.147.147,0,0,1,.208,0l4.479,4.479a.147.147,0,0,1,0,.208Z" transform="translate(-38.348 -9.421)" fill="#fff"></path>
        </g>
      </g>
      <g id="Group_454" data-name="Group 454" transform="translate(0 25.028)">
        <g id="Group_453" data-name="Group 453">
          <path id="Path_11950" data-name="Path 11950" d="M12.542,378.753h-.506v-1.74a.7.7,0,0,0-.7-.7H5.639a.33.33,0,1,0,0,.66h5.692a.044.044,0,0,1,.044.044v1.74H2.6v-1.74a.044.044,0,0,1,.044-.044h.92a.33.33,0,1,0,0-.66h-.92a.7.7,0,0,0-.7.7v1.74H1.434A1.436,1.436,0,0,0,0,380.188v.94a.553.553,0,0,0,.552.552H13.424a.553.553,0,0,0,.552-.552v-.94A1.436,1.436,0,0,0,12.542,378.753Zm.774,2.267H.66v-.832a.775.775,0,0,1,.774-.774H12.542a.775.775,0,0,1,.774.774Z" transform="translate(0 -376.309)" fill="#fff"></path>
        </g>
      </g>
    </g>
  </g>
</svg>
