<?xml version="1.0" encoding="UTF-8"?>
<svg xmlns="http://www.w3.org/2000/svg" width="29.499" height="36.303" viewBox="0 0 29.499 36.303">
  <path id="pinterest" d="M15.239,0C5.289,0,0,6.377,0,13.328c0,3.224,1.8,7.245,4.686,8.52.438.2.676.114.774-.293.086-.309.465-1.795.649-2.5a.642.642,0,0,0-.154-.631,8.259,8.259,0,0,1-1.718-5.017c0-4.849,3.855-9.557,10.415-9.557,5.673,0,9.641,3.686,9.641,8.958,0,5.956-3.152,10.077-7.248,10.077a3.245,3.245,0,0,1-3.419-3.981c.647-2.621,1.917-5.439,1.917-7.329a2.814,2.814,0,0,0-2.912-3.1c-2.308,0-4.18,2.285-4.18,5.353a7.631,7.631,0,0,0,.69,3.265S6.852,26.32,6.428,28.044c-.717,2.916.1,7.638.168,8.044a.239.239,0,0,0,.436.111c.224-.295,2.984-4.232,3.757-7.078.281-1.037,1.438-5.242,1.438-5.242.76,1.373,2.954,2.523,5.292,2.523,6.952,0,11.976-6.111,11.976-13.694C29.468,5.439,23.247,0,15.239,0" transform="translate(0.004)" fill="#fff"></path>
</svg>
