<?xml version="1.0" encoding="UTF-8"?>
<svg xmlns="http://www.w3.org/2000/svg" width="133.575" height="126" viewBox="0 0 133.575 126">
  <g id="Group_1380" data-name="Group 1380" transform="translate(0.2 -1.6)">
    <path id="Path_41964" data-name="Path 41964" d="M131.1,108.639,114.994,94.367a23.792,23.792,0,0,0,4.078-15.291A24.447,24.447,0,0,0,97.46,56.037V5.474H75.645V1.6H21.616V5.474H-.2V127.6H97.664V105.173a24.707,24.707,0,0,0,10.6-3.874l13.864,16.515a6.513,6.513,0,0,0,4.893,2.243,6.325,6.325,0,0,0,4.485-1.835,6,6,0,0,0,1.835-4.689A7.849,7.849,0,0,0,131.1,108.639Z" transform="translate(0 0)"></path>
    <path id="Path_41965" data-name="Path 41965" d="M55.757,5V52.5a22.907,22.907,0,0,0-6.524.816V14.379H37V5Z" transform="translate(38.645 3.532)" fill="#f9a08f"></path>
    <path id="Path_41966" data-name="Path 41966" d="M63.7,74.1A24.589,24.589,0,0,0,78.99,93.673h-.612v12.233H6V11.1h9.175v4.282H69.2V11.1h9.175V48h.408a26.878,26.878,0,0,0-9.379,6.524A24.982,24.982,0,0,0,63.7,74.1Z" transform="translate(6.441 9.869)" fill="#f7d4ff"></path>
    <rect id="Rectangle_1345" data-name="Rectangle 1345" width="47.913" height="17.33" transform="translate(24.674 4.658)" fill="#aaffdc"></rect>
    <path id="Path_41967" data-name="Path 41967" d="M1.3,121.01V5H20.057v9.379H7.824V115.1h78.5V100.825a22.908,22.908,0,0,0,6.524.816v19.165H1.3Z" transform="translate(1.558 3.532)" fill="#f9a08f"></path>
    <path id="Path_41968" data-name="Path 41968" d="M91.965,86.708a3.515,3.515,0,0,1-4.893-.2l-15.7-18.757-1.223.816a20.008,20.008,0,0,1-12.437,4.282H57.3A21.684,21.684,0,0,1,40.994,36.961a21.78,21.78,0,0,1,17.738-7.34,21.363,21.363,0,0,1,15.5,34.456L73.411,65.3l18.35,16.107a4.651,4.651,0,0,1,1.223,2.447A3.7,3.7,0,0,1,91.965,86.708Z" transform="translate(37.301 29.067)" fill="#fff"></path>
    <rect id="Rectangle_1346" data-name="Rectangle 1346" width="3.058" height="3.058" transform="translate(50.975 11.794)" fill="#6a3500"></rect>
    <rect id="Rectangle_1347" data-name="Rectangle 1347" width="3.058" height="3.058" transform="translate(59.742 11.794)" fill="#6a3500"></rect>
    <rect id="Rectangle_1348" data-name="Rectangle 1348" width="3.058" height="3.058" transform="translate(33.645 11.794)" fill="#6a3500"></rect>
    <rect id="Rectangle_1349" data-name="Rectangle 1349" width="3.058" height="3.058" transform="translate(42.412 11.794)" fill="#6a3500"></rect>
    <rect id="Rectangle_1350" data-name="Rectangle 1350" width="25.485" height="3.058" transform="translate(20.188 82.746)" fill="#6a3500"></rect>
    <rect id="Rectangle_1351" data-name="Rectangle 1351" width="42" height="3.058" transform="translate(20.188 92.736)" fill="#6a3500"></rect>
    <rect id="Rectangle_1352" data-name="Rectangle 1352" width="53.825" height="3.058" transform="translate(20.188 102.726)" fill="#6a3500"></rect>
    <path id="Path_41969" data-name="Path 41969" d="M37.7,49.334h3.058A14.531,14.531,0,0,1,55.234,34.858V31.8A17.4,17.4,0,0,0,37.7,49.334Z" transform="translate(39.372 31.373)" fill="#bf5000"></path>
    <g id="Group_1379" data-name="Group 1379" transform="translate(29.325 33.783)">
      <path id="Path_41970" data-name="Path 41970" d="M30.3,36.191a3.136,3.136,0,0,1-3.058,3.058,3,3,0,0,1-3.058-3.058,3.058,3.058,0,1,1,6.117,0Zm4.893-6.117a1.453,1.453,0,0,1-.612,1.223,3.044,3.044,0,0,1-1.427.612h0a1.851,1.851,0,0,1-1.427-.612,5.827,5.827,0,0,0-8.767,0,2.168,2.168,0,0,1-2.447.408c-.2,0-.2-.2-.408-.2a1.971,1.971,0,0,1,0-2.854,10.122,10.122,0,0,1,6.932-3.262h.408a9.87,9.87,0,0,1,7.34,3.262A2.376,2.376,0,0,1,35.194,30.074Z" transform="translate(-8.865 -9.074)" fill="#fc6d6d"></path>
      <path id="Path_41971" data-name="Path 41971" d="M42.688,29.236a2.2,2.2,0,0,1-1.427.612,1.851,1.851,0,0,1-1.427-.612,13.928,13.928,0,0,0-6.524-3.67,15.846,15.846,0,0,0-3.262-.408,13.731,13.731,0,0,0-9.786,4.078,2.018,2.018,0,0,1-2.854-2.854,18.432,18.432,0,0,1,12.641-5.1,17.66,17.66,0,0,1,6.524,1.223,19.429,19.429,0,0,1,6.117,3.874A2.171,2.171,0,0,1,42.688,29.236Z" transform="translate(-11.67 -13.334)" fill="#fc6d6d"></path>
      <path id="Path_41972" data-name="Path 41972" d="M50.4,27.171a1.971,1.971,0,0,1-2.854,0,25.9,25.9,0,0,0-5.5-3.67,22.748,22.748,0,0,0-9.583-2.243,21.489,21.489,0,0,0-14.883,5.913,1.982,1.982,0,0,1-2.854-.2,1.921,1.921,0,0,1,.2-2.65,26.615,26.615,0,0,1,17.738-6.932A26.938,26.938,0,0,1,45.1,20.647a30.785,30.785,0,0,1,5.3,3.67A1.968,1.968,0,0,1,50.4,27.171Z" transform="translate(-14.281 -17.385)" fill="#fc6d6d"></path>
      <path id="Path_41973" data-name="Path 41973" d="M26.195,29.52h0a1.851,1.851,0,0,0,1.427-.612,1.762,1.762,0,0,0,.612-1.223A8.764,8.764,0,0,0,26.195,29.52Z" transform="translate(-1.905 -6.685)" fill="#f74f4f"></path>
      <path id="Path_41974" data-name="Path 41974" d="M29.885,42.943A3.136,3.136,0,0,1,26.827,46a3,3,0,0,1-3.058-3.058,3.058,3.058,0,1,1,6.117,0ZM39.468,31.73a2.2,2.2,0,0,1-1.427.612,1.851,1.851,0,0,1-1.427-.612,13.928,13.928,0,0,0-6.524-3.67L33.351,24.8a19.429,19.429,0,0,1,6.117,3.874A2.448,2.448,0,0,1,39.468,31.73Zm5.1-6.117a1.971,1.971,0,0,1-2.854,0,25.9,25.9,0,0,0-5.5-3.67l3.058-3.058a50.485,50.485,0,0,1,5.3,3.874A1.968,1.968,0,0,1,44.565,25.613ZM34.167,35.2a10.574,10.574,0,0,0-7.34-3.262h-.408L19.9,38.458a1.886,1.886,0,0,0,2.447-.408,5.827,5.827,0,0,1,8.767,0,1.851,1.851,0,0,0,1.427.612h0a1.851,1.851,0,0,0,1.427-.612,1.762,1.762,0,0,0,.612-1.223A1.586,1.586,0,0,0,34.167,35.2Z" transform="translate(-8.449 -15.827)" opacity="0.1" style="isolation: isolate"></path>
      <path id="Path_41975" data-name="Path 41975" d="M39.567,29.735c0-.2-.2-.2-.2-.408s-.2-.2-.408-.2a8.7,8.7,0,0,0-5.5-2.039,7.537,7.537,0,0,0-4.282,1.223,1.453,1.453,0,0,1-.612,1.223,3.044,3.044,0,0,1-1.427.612h0a7.83,7.83,0,0,0-1.835,5.1,8.7,8.7,0,0,0,2.039,5.5l.2.2A8.074,8.074,0,0,0,41.4,35.24,7.542,7.542,0,0,0,39.567,29.735ZM33.45,31.163a1.838,1.838,0,0,1,1.019.2L29.577,36.26c0-.408-.2-.612-.2-1.019A4.09,4.09,0,0,1,33.45,31.163Zm0,8.155a1.838,1.838,0,0,1-1.019-.2l4.893-4.893c0,.408.2.612.2,1.019A4.09,4.09,0,0,1,33.45,39.318Z" transform="translate(-2.84 -7.308)" fill="#f74f4f"></path>
    </g>
  </g>
</svg>
