<?xml version="1.0" encoding="UTF-8"?>
<svg xmlns="http://www.w3.org/2000/svg" width="24" height="24" viewBox="0 0 24 24">
  <g id="Smart_EMP" data-name="Smart EMP" transform="translate(-127 93)">
    <rect id="Rectangle_781" data-name="Rectangle 781" width="24" height="24" transform="translate(127 -93)" fill="#fff" opacity="0"></rect>
    <g id="Page-1" transform="translate(128.001 -91.784)">
      <g id="_011---Milling" data-name="011---Milling" transform="translate(-0.001 0)">
        <path id="Shape" d="M26.3,22H19.73a.73.73,0,0,0-.73.73v1.825a.73.73,0,0,0,.73.73H26.3a.73.73,0,0,0,.73-.73V22.73A.73.73,0,0,0,26.3,22Zm-4.4,2.554,1.3-1.825h1.657l-1.3,1.825Zm-1.822,0,1.3-1.825H22.3L21,24.554Zm.405-1.825-.751,1.053V22.73Zm3.972,1.825,1.3-1.825H26.3v1.825Z" transform="translate(-12.431 -13.972)" fill="#fff"></path>
        <path id="Shape-2" data-name="Shape" d="M22.164,9.123a2.189,2.189,0,1,0-3.284,1.893v1.026H17.056V8.028a1.46,1.46,0,0,0-1.46-1.46H14.424L17,2.381c.006-.011.009-.022.015-.033a.332.332,0,0,0,.014-.031.364.364,0,0,0,.026-.124v-1.1A1.1,1.1,0,0,0,15.961,0H7.2A1.1,1.1,0,0,0,6.108,1.095v1.1a.365.365,0,0,0,.025.124.332.332,0,0,0,.014.031c.005.011.008.023.015.033L8.74,6.568H7.568a1.46,1.46,0,0,0-1.46,1.46v4.014H4.284V11.016a2.189,2.189,0,1,0-2.189,0v1.095a1.1,1.1,0,0,0-.73,1.026V14.6a1.1,1.1,0,0,0,1.095,1.095H3.554v5.474a.73.73,0,0,0,.73.73H5.379a.73.73,0,0,0,.73-.73V15.691h1.6l-.466.932s0,.009,0,.014-.005.016-.008.024a.368.368,0,0,0-.022.109c0,.005,0,.009,0,.014v.006a.359.359,0,0,0,.025.123c0,.009.008.018.012.027a.362.362,0,0,0,.017.036L9,19.765l-.214.856a.73.73,0,0,0,.709.909h4.174a.73.73,0,0,0,.708-.907l-.214-.856,1.742-2.788a.362.362,0,0,0,.017-.036c0-.009.009-.018.012-.027a.36.36,0,0,0,.026-.123v-.006s0-.009,0-.014a.368.368,0,0,0-.022-.109c0-.008-.005-.016-.008-.024s0-.009,0-.014l-.466-.933h1.6v5.474a.73.73,0,0,0,.73.73H18.88a.73.73,0,0,0,.73-.73V15.691h1.46A1.1,1.1,0,0,0,22.164,14.6v-1.46a1.1,1.1,0,0,0-1.095-1.095V11.016A2.189,2.189,0,0,0,22.164,9.123Zm-2.189-1.46a1.46,1.46,0,1,1-1.46,1.46A1.46,1.46,0,0,1,19.975,7.663ZM13.567,6.568H12.441l1.235-4.014h2.362Zm-2.08,0L10.252,2.554h2.661L11.678,6.568ZM6.838,1.095A.365.365,0,0,1,7.2.73h8.758a.365.365,0,0,1,.365.365v.73H6.838Zm.288,1.46H9.488l1.235,4.014H9.6ZM6.838,8.028a.73.73,0,0,1,.73-.73H15.6a.73.73,0,0,1,.73.73v4.014H6.838ZM3.189,7.663a1.46,1.46,0,1,1-1.46,1.46A1.46,1.46,0,0,1,3.189,7.663Zm0,3.649a2.189,2.189,0,0,0,.365-.033v.763h-.73v-.763A2.189,2.189,0,0,0,3.189,11.312Zm2.189,9.853H4.284V15.691H5.379ZM9.5,20.8l.182-.73h3.809l.182.73Zm4.074-1.46H9.595l-1.37-2.189h6.714Zm1.436-2.919H8.158l.365-.73h6.117Zm3.875,4.744H17.785V15.691H18.88Zm2.554-8.028V14.6a.365.365,0,0,1-.365.365H2.459a.365.365,0,0,1-.365-.365v-1.46a.365.365,0,0,1,.365-.365H21.07A.365.365,0,0,1,21.434,13.137ZM20.34,12.042h-.73v-.763a2.044,2.044,0,0,0,.73,0Z" transform="translate(-0.999 0)" fill="#fff"></path>
        <path id="Shape-3" data-name="Shape" d="M6.472,23.718a.365.365,0,0,0,.516-.516l-.258-.258v-.579a.365.365,0,1,0-.73,0v.73a.365.365,0,0,0,.107.258Z" transform="translate(-4.175 -13.972)" fill="#fff"></path>
        <path id="Shape-4" data-name="Shape" d="M52.365,23.825a.365.365,0,0,0,.365-.365V22.365a.365.365,0,1,0-.73,0V23.46A.365.365,0,0,0,52.365,23.825Z" transform="translate(-33.39 -13.972)" fill="#fff"></path>
        <ellipse id="Oval" cy="0.5" ry="0.5" transform="translate(7 13.784)" fill="#fff"></ellipse>
        <circle id="Oval-2" data-name="Oval" cx="0.5" cy="0.5" r="0.5" transform="translate(5 13.784)" fill="#fff"></circle>
        <ellipse id="Oval-3" data-name="Oval" cy="0.5" ry="0.5" transform="translate(9 13.784)" fill="#fff"></ellipse>
        <circle id="Oval-4" data-name="Oval" cx="0.5" cy="0.5" r="0.5" transform="translate(10 13.784)" fill="#fff"></circle>
        <ellipse id="Oval-5" data-name="Oval" cy="0.5" ry="0.5" transform="translate(12 13.784)" fill="#fff"></ellipse>
        <circle id="Oval-6" data-name="Oval" cx="0.5" cy="0.5" r="0.5" transform="translate(14 13.784)" fill="#fff"></circle>
        <ellipse id="Oval-7" data-name="Oval" cy="0.5" ry="0.5" transform="translate(16 13.784)" fill="#fff"></ellipse>
      </g>
    </g>
  </g>
</svg>
