<?xml version="1.0" encoding="UTF-8"?>
<svg xmlns="http://www.w3.org/2000/svg" xmlns:xlink="http://www.w3.org/1999/xlink" width="65px" height="65px" viewBox="0 0 65 65">
  <g id="surface1">
    <path style=" stroke:none;fill-rule:nonzero;fill:rgb(40%,80.784314%,96.470588%);fill-opacity:1;" d="M 51.132812 37.980469 C 58.214844 37.980469 63.96875 43.734375 63.96875 50.816406 C 63.96875 57.894531 58.214844 63.597656 51.132812 63.597656 C 44.054688 63.597656 38.351562 57.894531 38.351562 50.816406 C 38.351562 43.734375 44.054688 37.980469 51.132812 37.980469 "></path>
    <path style=" stroke:none;fill-rule:nonzero;fill:rgb(94.509804%,41.568627%,51.372549%);fill-opacity:1;" d="M 49.316406 38.082031 L 49.414062 1.597656 L 1.03125 1.597656 L 1.03125 56.910156 L 39.285156 56.910156 "></path>
    <path style=" stroke:none;fill-rule:nonzero;fill:rgb(100%,100%,100%);fill-opacity:1;" d="M 12.488281 12.5625 L 37.515625 12.5625 C 38.054688 12.613281 38.5 12.167969 38.546875 11.675781 C 38.546875 11.628906 38.546875 11.578125 38.546875 11.578125 L 38.546875 7.5 C 38.597656 6.957031 38.15625 6.515625 37.664062 6.464844 C 37.613281 6.464844 37.5625 6.464844 37.5625 6.464844 L 12.488281 6.464844 C 11.949219 6.417969 11.503906 6.859375 11.457031 7.351562 C 11.457031 7.398438 11.457031 7.449219 11.457031 7.449219 L 11.457031 11.53125 C 11.503906 12.121094 11.949219 12.5625 12.488281 12.5625 M 13.519531 8.433594 L 36.484375 8.433594 L 36.484375 10.449219 L 13.519531 10.449219 Z M 6 19.003906 L 44.546875 19.003906 C 45.085938 19.003906 45.578125 18.5625 45.578125 17.972656 C 45.578125 17.429688 45.136719 16.9375 44.546875 16.9375 L 6 16.9375 C 5.457031 16.9375 4.964844 17.382812 4.964844 17.972656 C 4.964844 18.511719 5.457031 19.003906 6 19.003906 M 6 25.789062 L 44.546875 25.789062 C 45.085938 25.789062 45.578125 25.347656 45.578125 24.757812 C 45.578125 24.167969 45.085938 23.773438 44.546875 23.773438 L 6 23.773438 C 5.457031 23.773438 4.964844 24.214844 4.964844 24.804688 C 4.964844 25.394531 5.457031 25.789062 6 25.789062 M 6 32.523438 L 44.546875 32.523438 C 45.085938 32.523438 45.578125 32.082031 45.578125 31.492188 C 45.578125 30.953125 45.136719 30.460938 44.546875 30.460938 L 6 30.460938 C 5.457031 30.460938 4.964844 30.902344 4.964844 31.492188 C 4.964844 32.03125 5.457031 32.523438 6 32.523438 M 27.238281 43.980469 L 6 43.980469 C 5.457031 43.980469 4.964844 44.421875 4.964844 45.011719 C 4.964844 45.601562 5.410156 46.046875 6 46.046875 L 27.238281 46.046875 C 27.78125 46.09375 28.222656 45.652344 28.273438 45.160156 C 28.273438 45.113281 28.273438 45.0625 28.273438 45.0625 C 28.273438 44.472656 27.828125 43.980469 27.238281 43.980469 M 16.570312 50.714844 L 6 50.714844 C 5.457031 50.714844 4.964844 51.160156 4.964844 51.75 C 4.964844 52.339844 5.410156 52.78125 6 52.78125 L 16.667969 52.78125 C 17.207031 52.832031 17.652344 52.386719 17.699219 51.898438 C 17.699219 51.847656 17.699219 51.796875 17.699219 51.796875 C 17.699219 51.160156 17.207031 50.714844 16.570312 50.714844 C 16.617188 50.714844 16.570312 50.714844 16.570312 50.714844 "></path>
    <path style=" stroke:none;fill-rule:nonzero;fill:rgb(16.470588%,23.921569%,40%);fill-opacity:1;" d="M 50.9375 36.902344 L 50.445312 36.902344 L 50.445312 4.253906 C 50.445312 1.992188 48.628906 0.171875 46.367188 0.171875 L 4.082031 0.171875 C 1.820312 0.171875 0 1.992188 0 4.253906 L 0 54.894531 C 0 57.15625 1.820312 58.976562 4.082031 58.976562 L 39.582031 58.976562 C 44.054688 65.269531 52.757812 66.792969 59.101562 62.320312 C 65.441406 57.847656 66.917969 49.144531 62.441406 42.800781 C 59.789062 39.0625 55.511719 36.851562 50.9375 36.902344 M 4.082031 56.910156 C 2.949219 56.910156 2.066406 55.976562 2.066406 54.894531 L 2.066406 4.253906 C 2.015625 3.121094 2.949219 2.1875 4.082031 2.1875 L 46.367188 2.1875 C 47.496094 2.1875 48.382812 3.121094 48.382812 4.203125 L 48.382812 37.046875 C 47.347656 37.246094 46.367188 37.539062 45.429688 37.980469 C 45.039062 36.554688 45.429688 37.589844 6 37.144531 C 5.457031 37.144531 4.964844 37.589844 4.964844 38.179688 C 4.964844 38.769531 5.410156 39.210938 6 39.210938 L 43.121094 39.210938 C 37.320312 43.09375 35.253906 50.667969 38.351562 56.910156 Z M 50.9375 62.8125 C 44.300781 62.8125 38.941406 57.453125 38.941406 50.816406 C 38.941406 44.175781 44.300781 38.816406 50.9375 38.816406 C 57.574219 38.816406 62.933594 44.175781 62.933594 50.816406 C 62.933594 57.453125 57.574219 62.8125 50.9375 62.8125 "></path>
    <path style=" stroke:none;fill-rule:nonzero;fill:rgb(40%,80.784314%,96.470588%);fill-opacity:1;" d="M 62.933594 50.765625 C 62.933594 57.445312 57.519531 62.859375 50.839844 62.859375 C 44.160156 62.859375 38.746094 57.445312 38.746094 50.765625 C 38.746094 44.085938 44.160156 38.671875 50.839844 38.671875 C 57.519531 38.671875 62.933594 44.085938 62.933594 50.765625 Z M 62.933594 50.765625 "></path>
    <path style=" stroke:none;fill-rule:nonzero;fill:rgb(100%,100%,100%);fill-opacity:1;" d="M 58.65625 46.539062 C 58.65625 46.242188 58.558594 45.996094 58.363281 45.847656 L 55.902344 43.390625 C 55.511719 42.996094 54.921875 42.996094 54.527344 43.339844 C 54.527344 43.339844 54.527344 43.339844 54.476562 43.390625 L 50.839844 47.027344 L 47.203125 43.390625 C 46.808594 42.996094 46.21875 42.996094 45.824219 43.339844 C 45.824219 43.339844 45.824219 43.339844 45.773438 43.390625 L 43.316406 45.847656 C 42.921875 46.242188 42.921875 46.832031 43.269531 47.226562 C 43.269531 47.226562 43.269531 47.226562 43.316406 47.273438 L 46.957031 50.914062 L 43.316406 54.550781 C 42.921875 54.945312 42.921875 55.535156 43.269531 55.929688 C 43.269531 55.929688 43.269531 55.929688 43.316406 55.976562 L 45.773438 58.4375 C 46.167969 58.828125 46.757812 58.828125 47.152344 58.484375 C 47.152344 58.484375 47.152344 58.484375 47.203125 58.4375 L 50.839844 54.796875 L 54.476562 58.4375 C 54.871094 58.828125 55.460938 58.828125 55.855469 58.484375 C 55.855469 58.484375 55.855469 58.484375 55.902344 58.4375 L 58.363281 55.976562 C 58.753906 55.585938 58.753906 54.996094 58.410156 54.601562 C 58.410156 54.601562 58.410156 54.601562 58.363281 54.550781 L 54.722656 50.914062 L 58.363281 47.273438 C 58.558594 47.078125 58.65625 46.785156 58.65625 46.539062 M 53.691406 50.519531 C 53.496094 50.714844 53.496094 51.011719 53.691406 51.207031 L 57.675781 55.191406 L 55.214844 57.648438 L 51.234375 53.667969 C 51.132812 53.570312 51.035156 53.570312 50.839844 53.570312 C 50.644531 53.570312 50.542969 53.667969 50.445312 53.667969 L 46.464844 57.648438 L 44.003906 55.191406 L 47.988281 51.207031 C 48.183594 51.011719 48.183594 50.714844 47.988281 50.519531 L 44.003906 46.539062 L 46.464844 44.078125 L 50.445312 48.0625 C 50.542969 48.160156 50.644531 48.160156 50.839844 48.160156 C 50.9375 48.160156 51.132812 48.0625 51.234375 48.0625 L 55.214844 44.078125 L 57.675781 46.539062 Z M 53.691406 50.519531 "></path>
  </g>
</svg>
