<?xml version="1.0" encoding="UTF-8"?>
<svg xmlns="http://www.w3.org/2000/svg" width="26.061" height="26.129" viewBox="0 0 26.061 26.129">
  <g id="Smart_Recall" data-name="Smart Recall" transform="translate(-112.033 50.201)">
    <rect id="Rectangle_783" data-name="Rectangle 783" width="24" height="24" transform="translate(113 -49)" fill="#fff" opacity="0"></rect>
    <g id="product" transform="translate(120.979 47.398)">
      <g id="Group_457" data-name="Group 457" transform="translate(-8.946 -97.6)">
        <path id="Path_11982" data-name="Path 11982" d="M88.133,180.611l4.611,2.226,0-4.742-4.615-2.543Z" transform="translate(-80.309 -164.476)" fill="none" stroke="#fff" stroke-width="1"></path>
        <path id="Path_11983" data-name="Path 11983" d="M252.076,178.045l0,4.743,4.635-2.228V175.5Z" transform="translate(-238.268 -164.425)" fill="none" stroke="#fff" stroke-width="1"></path>
        <path id="Path_11984" data-name="Path 11984" d="M110.154,87.421l4.494,2.474,4.509-2.474-4.509-2.165Z" transform="translate(-101.526 -77.473)" fill="none" stroke="#fff" stroke-width="1"></path>
        <path id="Path_11981" data-name="Path 11981" d="M10.126,0A10.134,10.134,0,0,0,.2,12.151c.1.5.214.764.713.663s.373-.542.271-1.04A9.222,9.222,0,0,1,5.355,2.545a9.047,9.047,0,0,1,10.011.415A10.087,10.087,0,0,1,18.5,7.116a9.589,9.589,0,0,1-.042,6.239c-1.176,3.3-4.931,5.506-8.434,5.507a8.673,8.673,0,0,1-5.263-2l.5-.558A.921.921,0,0,0,4.6,14.729H2.762a.921.921,0,0,0-.921.921V17.49a.921.921,0,0,0,1.571.651l.465-.507a9.813,9.813,0,0,0,11.838.938A10.126,10.126,0,0,0,10.126,0Z" transform="translate(26.061 7.217) rotate(111)" fill="#fff"></path>
      </g>
    </g>
  </g>
</svg>
