<?xml version="1.0" encoding="UTF-8"?>
<svg xmlns="http://www.w3.org/2000/svg" width="29.749" height="29.826" viewBox="0 0 29.749 29.826">
  <g id="Smart_Specification" data-name="Smart Specification" transform="translate(456 -929.929)">
    <g id="Rectangle_774" data-name="Rectangle 774" transform="translate(-453 933)" fill="#fff" stroke="#707070" stroke-width="1" opacity="0">
      <rect width="24" height="24" stroke="none"></rect>
      <rect x="0.5" y="0.5" width="23" height="23" fill="none"></rect>
    </g>
    <g id="time_1_" data-name="time (1)" transform="translate(-454.033 923.612)">
      <path id="Path_11987" data-name="Path 11987" d="M11.559,0A11.568,11.568,0,0,0,.232,13.871c.116.569.244.873.813.757s.426-.619.31-1.188A10.527,10.527,0,0,1,6.113,2.906C9.535.837,14.442.85,17.54,3.379a11.515,11.515,0,0,1,3.572,4.744,10.946,10.946,0,0,1-.048,7.121c-1.342,3.767-5.628,6.286-9.627,6.286A9.9,9.9,0,0,1,5.43,19.244L6,18.607a1.051,1.051,0,0,0-.743-1.794h-2.1A1.051,1.051,0,0,0,2.1,17.864v2.1a1.051,1.051,0,0,0,1.794.743l.53-.578A11.2,11.2,0,0,0,17.939,21.2,11.559,11.559,0,0,0,11.559,0Z" transform="translate(27.782 14.556) rotate(111)" fill="#fff"></path>
      <path id="Path_11980" data-name="Path 11980" d="M13.43,9.14a4.484,4.484,0,0,0,0-1.275L14.8,6.793a.328.328,0,0,0,.078-.416l-1.3-2.25a.325.325,0,0,0-.286-.163.3.3,0,0,0-.111.02l-1.619.65A4.751,4.751,0,0,0,10.464,4l-.247-1.723A.317.317,0,0,0,9.9,2H7.3a.317.317,0,0,0-.319.273L6.731,4a5,5,0,0,0-1.1.637l-1.619-.65a.368.368,0,0,0-.117-.02.322.322,0,0,0-.28.163l-1.3,2.25a.321.321,0,0,0,.078.416L3.766,7.866A5.157,5.157,0,0,0,3.72,8.5a5.157,5.157,0,0,0,.046.637L2.394,10.213a.328.328,0,0,0-.078.416l1.3,2.25a.325.325,0,0,0,.286.163.3.3,0,0,0,.111-.02l1.619-.65a4.751,4.751,0,0,0,1.1.637l.247,1.723a.317.317,0,0,0,.319.273H9.9a.317.317,0,0,0,.319-.273l.247-1.723a5,5,0,0,0,1.1-.637l1.619.65a.368.368,0,0,0,.117.02.322.322,0,0,0,.28-.163l1.3-2.25a.328.328,0,0,0-.078-.416ZM12.142,8.028a3.474,3.474,0,0,1,.033.475c0,.137-.013.28-.033.475l-.091.735.579.455.7.546-.455.787-.826-.332-.676-.273-.585.442a3.808,3.808,0,0,1-.813.475l-.689.28-.1.735-.13.878h-.91l-.124-.878-.1-.735-.689-.28a3.69,3.69,0,0,1-.8-.462L5.834,10.9l-.689.28-.826.332-.455-.787.7-.546.579-.455-.091-.735c-.02-.2-.033-.351-.033-.481s.013-.28.033-.475l.091-.735-.579-.455-.7-.546.455-.787.826.332.676.273.585-.442a3.809,3.809,0,0,1,.813-.475l.689-.28.1-.735.13-.878h.9l.124.878.1.735.689.28a3.69,3.69,0,0,1,.8.462l.592.455.689-.28L12.87,5.5l.455.787-.7.553-.579.455.091.735ZM8.6,5.9a2.6,2.6,0,1,0,2.6,2.6A2.6,2.6,0,0,0,8.6,5.9Zm0,3.9A1.3,1.3,0,1,1,9.9,8.5,1.3,1.3,0,0,1,8.6,9.8Z" transform="translate(4.475 12.532)" fill="#fff"></path>
    </g>
  </g>
</svg>
