<?xml version="1.0" encoding="UTF-8"?>
<svg xmlns="http://www.w3.org/2000/svg" width="120.229" height="124.373" viewBox="0 0 120.229 124.373">
  <g id="Group_1381" data-name="Group 1381" transform="translate(-3.245 -2.254)">
    <path id="Path_41976" data-name="Path 41976" d="M52.7,120.265H41.735V5.77H52.7a4.18,4.18,0,0,1,4.181,4.181V116.084A4.18,4.18,0,0,1,52.7,120.265Z" transform="translate(41.977 3.834)" fill="#52b8d9"></path>
    <path id="Path_41977" data-name="Path 41977" d="M53.243,121.855H42.28a1.046,1.046,0,0,1-1.045-1.045V6.316A1.046,1.046,0,0,1,42.28,5.271H53.243A5.234,5.234,0,0,1,58.47,10.5V116.63A5.232,5.232,0,0,1,53.243,121.855Zm-9.918-2.091h9.918a3.14,3.14,0,0,0,3.136-3.136V10.5a3.14,3.14,0,0,0-3.136-3.136H43.326Z" transform="translate(41.431 3.29)" fill="#63312d"></path>
    <path id="Path_41978" data-name="Path 41978" d="M87.348,120.265H7.926a4.18,4.18,0,0,1-4.181-4.181V9.951A4.18,4.18,0,0,1,7.926,5.77H87.348a4.18,4.18,0,0,1,4.181,4.181V116.084A4.18,4.18,0,0,1,87.348,120.265Z" transform="translate(0.545 3.834)" fill="#82d9ff"></path>
    <path id="Path_41979" data-name="Path 41979" d="M10.017,9.951H91.529A4.18,4.18,0,0,0,87.348,5.77H7.926A4.18,4.18,0,0,0,3.745,9.951V116.084a4.18,4.18,0,0,0,4.181,4.181V12.042A2.091,2.091,0,0,1,10.017,9.951Z" transform="translate(0.545 3.834)" fill="#caf4ff"></path>
    <path id="Path_41980" data-name="Path 41980" d="M87.893,121.855H8.471a5.234,5.234,0,0,1-5.226-5.226V10.5A5.234,5.234,0,0,1,8.471,5.271H87.893A5.234,5.234,0,0,1,93.119,10.5V116.63A5.232,5.232,0,0,1,87.893,121.855ZM8.471,7.362A3.14,3.14,0,0,0,5.336,10.5V116.63a3.14,3.14,0,0,0,3.136,3.136H87.893a3.14,3.14,0,0,0,3.136-3.136V10.5a3.14,3.14,0,0,0-3.136-3.136Z" transform="translate(0 3.29)" fill="#63312d"></path>
    <path id="Path_41981" data-name="Path 41981" d="M7.745,9.77H78.8v97.77H7.745Z" transform="translate(4.908 8.197)" fill="#f8f3f3"></path>
    <path id="Path_41982" data-name="Path 41982" d="M79.349,109.13H8.29a1.046,1.046,0,0,1-1.045-1.045V10.316A1.046,1.046,0,0,1,8.29,9.271H79.349a1.046,1.046,0,0,1,1.045,1.045v97.77A1.045,1.045,0,0,1,79.349,109.13ZM9.336,107.039H78.3V11.362H9.336Z" transform="translate(4.362 7.653)" fill="#63312d"></path>
    <path id="Path_41983" data-name="Path 41983" d="M61.72,107.506l4.593-9.036V24.531a7.131,7.131,0,0,0-14.262,0V98.473l4.593,9.036a2.846,2.846,0,0,0,5.076,0Z" transform="translate(53.227 16.518)" fill="#f9dd9d"></path>
    <path id="Path_41984" data-name="Path 41984" d="M66.313,40.037V24.882a7.369,7.369,0,0,0-5.8-7.361,7.136,7.136,0,0,0-8.461,7.012v15.5Z" transform="translate(53.227 16.514)" fill="#f9a287"></path>
    <path id="Path_41985" data-name="Path 41985" d="M52.051,50.23H66.313v5.711H52.051Z" transform="translate(53.227 52.322)" fill="#82d9ff"></path>
    <path id="Path_41986" data-name="Path 41986" d="M59.727,110.654a3.877,3.877,0,0,1-3.472-2.13l-4.591-9.033a1.037,1.037,0,0,1-.113-.475V25.076a8.176,8.176,0,1,1,16.353,0V99.018a1.071,1.071,0,0,1-.113.475L63.2,108.526A3.879,3.879,0,0,1,59.727,110.654ZM53.642,98.767l4.478,8.81a1.872,1.872,0,0,0,3.215,0l4.478-8.81V25.076a6.086,6.086,0,0,0-12.171,0Z" transform="translate(52.682 15.973)" fill="#63312d"></path>
    <path id="Path_41987" data-name="Path 41987" d="M52.051,27.727H66.313v2.091H52.051Zm.19,46h13.8v2.091h-13.8Zm0,5.711h13.8v2.091h-13.8Z" transform="translate(53.227 27.78)" fill="#63312d"></path>
    <path id="Path_41988" data-name="Path 41988" d="M60.4,51.933a3.348,3.348,0,0,1-3.347-3.347h0V28.22a3.347,3.347,0,0,1,6.694,0V48.586A3.344,3.344,0,0,1,60.4,51.933Z" transform="translate(58.681 24.67)" fill="#82d9ff"></path>
    <path id="Path_41989" data-name="Path 41989" d="M60.945,53.527a4.4,4.4,0,0,1-4.394-4.394V28.766a4.394,4.394,0,0,1,8.789,0V49.133A4.4,4.4,0,0,1,60.945,53.527Zm0-27.063a2.307,2.307,0,0,0-2.3,2.3V49.135a2.306,2.306,0,0,0,4.608,0V28.769A2.305,2.305,0,0,0,60.945,26.465Z" transform="translate(58.135 24.122)" fill="#63312d"></path>
    <path id="Path_41990" data-name="Path 41990" d="M14.987,2.754H58.279V22.389H14.987Z" transform="translate(12.806 0.545)" fill="#f9dd9d"></path>
    <path id="Path_41991" data-name="Path 41991" d="M19.168,6.935H58.279V2.754H14.987V22.387h4.181Z" transform="translate(12.806 0.545)" fill="#ffeecf"></path>
    <path id="Path_41992" data-name="Path 41992" d="M58.824,23.979H15.532a1.046,1.046,0,0,1-1.045-1.045V3.3a1.046,1.046,0,0,1,1.045-1.045H58.824A1.046,1.046,0,0,1,59.869,3.3V22.934A1.046,1.046,0,0,1,58.824,23.979ZM16.578,21.889h41.2V4.345h-41.2Z" transform="translate(12.26 0)" fill="#63312d"></path>
    <path id="Path_41993" data-name="Path 41993" d="M12.955,36.145H34.216V57.406H12.955Z" transform="translate(10.59 36.961)" fill="#f9a287"></path>
    <path id="Path_41994" data-name="Path 41994" d="M34.762,59H13.5a1.046,1.046,0,0,1-1.045-1.045V36.69A1.046,1.046,0,0,1,13.5,35.645H34.762a1.046,1.046,0,0,1,1.045,1.045V57.952A1.046,1.046,0,0,1,34.762,59ZM14.546,56.906H33.716V37.736H14.546Z" transform="translate(10.044 36.416)" fill="#63312d"></path>
    <path id="Path_41995" data-name="Path 41995" d="M23.814,48.44H18.4l-.93,2.64H15.257l4.631-12.943h2.454l4.631,12.943H24.742Z" transform="translate(13.1 39.135)" fill="#63312d"></path>
    <path id="Path_41996" data-name="Path 41996" d="M19.166,39.366l-2.12,6.008h4.223Z" transform="translate(15.051 40.474)" fill="#f9a287"></path>
    <rect id="Rectangle_1353" data-name="Rectangle 1353" width="13.982" height="2.091" transform="translate(59.875 72.063)" fill="#63312d"></rect>
    <rect id="Rectangle_1354" data-name="Rectangle 1354" width="22.344" height="2.091" transform="translate(51.512 77.377)" fill="#63312d"></rect>
    <rect id="Rectangle_1355" data-name="Rectangle 1355" width="22.344" height="2.091" transform="translate(51.512 82.691)" fill="#63312d"></rect>
    <rect id="Rectangle_1356" data-name="Rectangle 1356" width="22.344" height="2.091" transform="translate(51.512 88.008)" fill="#63312d"></rect>
    <rect id="Rectangle_1357" data-name="Rectangle 1357" width="13.982" height="2.091" transform="translate(51.512 93.322)" fill="#63312d"></rect>
    <path id="Path_41997" data-name="Path 41997" d="M24.125,30.378l1.369,4.21a1.207,1.207,0,0,1-1.856,1.348l-3.583-2.6a1.208,1.208,0,0,0-1.417,0l-3.575,2.6a1.205,1.205,0,0,1-1.856-1.346l1.367-4.208a1.208,1.208,0,0,0-.439-1.348l-3.575-2.6a1.205,1.205,0,0,1,.709-2.18h4.424a1.2,1.2,0,0,0,1.146-.834l1.363-4.2a1.206,1.206,0,0,1,2.293,0l1.367,4.206a1.206,1.206,0,0,0,1.146.832h4.424a1.205,1.205,0,0,1,.709,2.18l-3.575,2.6A1.208,1.208,0,0,0,24.125,30.378Z" transform="translate(7.432 17.588)" fill="#fdbb48"></path>
    <path id="Path_41998" data-name="Path 41998" d="M18.333,18.84a3.766,3.766,0,0,1-.788,2.109,6.842,6.842,0,0,0-1.068,2.013,9.289,9.289,0,0,1-.372,2.074,2.148,2.148,0,0,1-2.515.957,3.268,3.268,0,0,1-1.9-1.741h2.224a1.21,1.21,0,0,0,1.146-.832l1.361-4.206a1.2,1.2,0,0,1,1.888-.579A.761.761,0,0,1,18.333,18.84Z" transform="translate(9.211 17.589)" fill="#ffd961"></path>
    <path id="Path_41999" data-name="Path 41999" d="M25.783,23.4,22.208,26a1.192,1.192,0,0,0-.439,1.344l1.367,4.215A1.2,1.2,0,0,1,21.28,32.9L17.7,30.3a1.221,1.221,0,0,0-1.422,0L12.7,32.9a1.076,1.076,0,0,1-.41.192,4,4,0,0,1,.579-2.893,7.024,7.024,0,0,1,3.387-2.525c1.068-.422,2.285-.784,2.852-1.779a7.032,7.032,0,0,0,.458-2.628,5.828,5.828,0,0,1,.723-2.1,1.211,1.211,0,0,0,.355.054h4.426A1.207,1.207,0,0,1,25.783,23.4Z" transform="translate(9.791 20.623)" fill="#f7934e"></path>
    <path id="Path_42000" data-name="Path 42000" d="M34.954,30.378l1.369,4.21a1.207,1.207,0,0,1-1.856,1.348l-3.583-2.6a1.208,1.208,0,0,0-1.417,0l-3.577,2.6a1.2,1.2,0,0,1-1.854-1.346L25.4,30.378a1.208,1.208,0,0,0-.439-1.348l-3.575-2.6a1.205,1.205,0,0,1,.709-2.18h4.424a1.2,1.2,0,0,0,1.146-.834l1.363-4.2a1.206,1.206,0,0,1,2.293,0l1.367,4.206a1.2,1.2,0,0,0,1.146.832H38.26a1.205,1.205,0,0,1,.709,2.18l-3.575,2.6A1.208,1.208,0,0,0,34.954,30.378Z" transform="translate(19.242 17.588)" fill="#fdbb48"></path>
    <path id="Path_42001" data-name="Path 42001" d="M29.162,18.84a3.781,3.781,0,0,1-.788,2.109,6.842,6.842,0,0,0-1.068,2.013,9.41,9.41,0,0,1-.374,2.074,2.145,2.145,0,0,1-2.513.957,3.268,3.268,0,0,1-1.9-1.741h2.224a1.21,1.21,0,0,0,1.146-.832l1.361-4.206a1.2,1.2,0,0,1,1.888-.579A.856.856,0,0,1,29.162,18.84Z" transform="translate(21.021 17.589)" fill="#ffd961"></path>
    <path id="Path_42002" data-name="Path 42002" d="M36.612,23.4,33.037,26a1.192,1.192,0,0,0-.439,1.344l1.367,4.215A1.2,1.2,0,0,1,32.109,32.9l-3.581-2.6a1.221,1.221,0,0,0-1.422,0l-3.575,2.6a1.091,1.091,0,0,1-.41.192A4,4,0,0,1,23.7,30.2a7.024,7.024,0,0,1,3.387-2.525c1.066-.422,2.285-.784,2.852-1.779a7.032,7.032,0,0,0,.458-2.628,5.828,5.828,0,0,1,.723-2.1,1.211,1.211,0,0,0,.355.054H35.9A1.207,1.207,0,0,1,36.612,23.4Z" transform="translate(21.601 20.623)" fill="#f7934e"></path>
    <path id="Path_42003" data-name="Path 42003" d="M45.783,30.378l1.367,4.21A1.205,1.205,0,0,1,45.3,35.937l-3.583-2.6a1.208,1.208,0,0,0-1.417,0l-3.577,2.6a1.2,1.2,0,0,1-1.854-1.346l1.367-4.208a1.208,1.208,0,0,0-.439-1.348l-3.575-2.6a1.205,1.205,0,0,1,.709-2.18H37.35a1.206,1.206,0,0,0,1.146-.834l1.363-4.2a1.206,1.206,0,0,1,2.293,0l1.367,4.206a1.2,1.2,0,0,0,1.146.832h4.424a1.205,1.205,0,0,1,.709,2.18l-3.575,2.6A1.208,1.208,0,0,0,45.783,30.378Z" transform="translate(31.052 17.588)" fill="#fdbb48"></path>
    <path id="Path_42004" data-name="Path 42004" d="M39.991,18.84a3.768,3.768,0,0,1-.79,2.109,6.835,6.835,0,0,0-1.066,2.013,9.41,9.41,0,0,1-.374,2.074,2.145,2.145,0,0,1-2.513.957,3.262,3.262,0,0,1-1.9-1.741h2.224a1.21,1.21,0,0,0,1.146-.832l1.361-4.206a1.2,1.2,0,0,1,1.888-.579A.856.856,0,0,1,39.991,18.84Z" transform="translate(32.831 17.589)" fill="#ffd961"></path>
    <path id="Path_42005" data-name="Path 42005" d="M47.441,23.4,43.866,26a1.2,1.2,0,0,0-.441,1.344l1.369,4.215A1.2,1.2,0,0,1,42.938,32.9l-3.581-2.6a1.221,1.221,0,0,0-1.422,0L34.36,32.9a1.091,1.091,0,0,1-.41.192A4,4,0,0,1,34.53,30.2a7.024,7.024,0,0,1,3.387-2.525c1.066-.422,2.285-.784,2.852-1.779a7.074,7.074,0,0,0,.458-2.628,5.827,5.827,0,0,1,.723-2.1,1.2,1.2,0,0,0,.355.054h4.424A1.207,1.207,0,0,1,47.441,23.4Z" transform="translate(33.411 20.623)" fill="#f7934e"></path>
  </g>
</svg>
