<?xml version="1.0" encoding="UTF-8"?>
<svg xmlns="http://www.w3.org/2000/svg" width="24" height="24" viewBox="0 0 24 24">
  <g id="Smart_Record" data-name="Smart Record" transform="translate(-158 -297)">
    <rect id="Rectangle_772" data-name="Rectangle 772" width="24" height="24" transform="translate(158 297)" fill="#fff" opacity="0"></rect>
    <path id="Smart_Record_1_1_" data-name="Smart Record (1) (1)" d="M8.389,17.564a.776.776,0,1,1,.776-.776.776.776,0,0,1-.776.776Zm7.6-6.126a.776.776,0,0,0-.776.776v1.435H3.892a.775.775,0,1,0,0,1.551H15.213V16.75A1.553,1.553,0,0,1,13.662,18.3H3.116A1.553,1.553,0,0,1,1.565,16.75V3.1A1.553,1.553,0,0,1,3.116,1.551H13.662a1.544,1.544,0,0,1,.543.1A.776.776,0,1,0,14.748.2,3.091,3.091,0,0,0,13.662,0H3.116a3.105,3.105,0,0,0-3.1,3.1V16.75a3.105,3.105,0,0,0,3.1,3.1H13.662a3.105,3.105,0,0,0,3.1-3.1V12.213a.776.776,0,0,0-.776-.775Zm3.2-5.451-4.248,4.241a.775.775,0,0,1-.341.2l-3.13.867a.776.776,0,0,1-.949-.973l.927-3.052a.776.776,0,0,1,.194-.323L15.895,2.7a2.326,2.326,0,1,1,3.289,3.291Zm-2.344.148-1.1-1.1L12.871,7.906l-.461,1.516,1.575-.436Zm1.247-2.342a.776.776,0,0,0-1.1,0l-.15.149,1.1,1.1.15-.15a.776.776,0,0,0,0-1.1Z" transform="translate(159.986 299)" fill="#fff"></path>
  </g>
</svg>
