<?xml version="1.0" encoding="UTF-8"?>
<svg xmlns="http://www.w3.org/2000/svg" xmlns:xlink="http://www.w3.org/1999/xlink" width="24px" height="24px" viewBox="0 0 24 24">
  <g id="surface1">
    <path style=" stroke:none;fill-rule:nonzero;fill:rgb(4.313725%,8.627451%,24.705882%);fill-opacity:1;" d="M 21.800781 23.800781 L 2.300781 23.800781 C 1.300781 23.800781 0.5 23 0.5 22 L 0.5 2.300781 C 0.5 1.300781 1.300781 0.5 2.300781 0.5 L 21.800781 0.5 C 22.800781 0.5 23.601562 1.300781 23.601562 2.300781 L 23.601562 22 C 23.699219 23 22.800781 23.800781 21.800781 23.800781 Z M 2.300781 1.898438 C 2.101562 1.898438 2 2.101562 2 2.300781 L 2 22 C 2 22.199219 2.199219 22.300781 2.300781 22.300781 L 21.800781 22.300781 C 22 22.300781 22.101562 22.101562 22.101562 22 L 22.101562 2.300781 C 22.101562 2.101562 21.898438 2 21.800781 2 L 2.300781 2 Z M 2.300781 1.898438 "></path>
    <path style=" stroke:none;fill-rule:nonzero;fill:rgb(4.313725%,8.627451%,24.705882%);fill-opacity:1;" d="M 22.898438 5 L 1.5 5 C 1.101562 5 0.800781 4.699219 0.800781 4.300781 C 0.800781 3.898438 1.101562 3.601562 1.601562 3.601562 L 23 3.601562 C 23.398438 3.601562 23.800781 3.898438 23.800781 4.300781 C 23.800781 4.699219 23.300781 5 22.898438 5 Z M 22.898438 5 "></path>
    <path style=" stroke:none;fill-rule:nonzero;fill:rgb(4.313725%,8.627451%,24.705882%);fill-opacity:1;" d="M 11.101562 21.5 L 3.601562 21.5 C 3.199219 21.5 2.800781 21.199219 2.800781 20.699219 L 2.800781 6.5 C 2.800781 6.101562 3.101562 5.699219 3.601562 5.699219 L 11.199219 5.699219 C 11.601562 5.699219 12 6 12 6.5 L 12 20.699219 C 11.898438 21.101562 11.601562 21.5 11.101562 21.5 Z M 4.300781 20 L 10.398438 20 L 10.398438 7.300781 L 4.300781 7.300781 Z M 4.300781 20 "></path>
    <path style=" stroke:none;fill-rule:nonzero;fill:rgb(4.313725%,8.627451%,24.705882%);fill-opacity:1;" d="M 20.800781 13.199219 L 13.101562 13.199219 C 12.699219 13.199219 12.300781 12.898438 12.300781 12.398438 L 12.300781 6.398438 C 12.300781 6 12.601562 5.601562 13.101562 5.601562 L 20.800781 5.601562 C 21.199219 5.601562 21.601562 5.898438 21.601562 6.398438 L 21.601562 12.5 C 21.601562 12.898438 21.300781 13.199219 20.800781 13.199219 Z M 13.898438 11.699219 L 20.101562 11.699219 L 20.101562 7.199219 L 13.898438 7.199219 Z M 13.898438 11.699219 "></path>
    <path style=" stroke:none;fill-rule:nonzero;fill:rgb(4.313725%,8.627451%,24.705882%);fill-opacity:1;" d="M 20.800781 21.398438 L 13.300781 21.398438 C 12.898438 21.398438 12.5 21.101562 12.5 20.601562 L 12.5 14.5 C 12.5 14.101562 12.800781 13.699219 13.300781 13.699219 L 20.800781 13.699219 C 21.199219 13.699219 21.601562 14 21.601562 14.5 L 21.601562 20.601562 C 21.5 21.101562 21.199219 21.398438 20.800781 21.398438 Z M 14 19.898438 L 20 19.898438 L 20 15.300781 L 14 15.300781 Z M 14 19.898438 "></path>
    <path style=" stroke:none;fill-rule:nonzero;fill:rgb(4.313725%,8.627451%,24.705882%);fill-opacity:1;" d="M 3 3.5 C 2.601562 3.5 2.199219 3.101562 2.199219 2.699219 C 2.199219 2.300781 2.601562 1.898438 3 1.898438 C 3.398438 1.898438 3.800781 2.300781 3.800781 2.699219 C 3.800781 3.101562 3.398438 3.5 3 3.5 Z M 3 3.5 "></path>
  </g>
</svg>
