<?xml version="1.0" encoding="UTF-8"?>
<svg xmlns="http://www.w3.org/2000/svg" xmlns:xlink="http://www.w3.org/1999/xlink" width="35px" height="35px" viewBox="0 0 35 35">
  <g id="audit-nc-management">
    <path style="fill:none;stroke-width:1.5;stroke-linecap:butt;stroke-linejoin:miter;stroke:rgb(4.313725%,8.627451%,24.705882%);stroke-opacity:1;stroke-miterlimit:4;" d="M 6.399107 2.099107 L 1.100893 2.099107 C 0.500893 2.099107 -0.000000000000207834 2.6 -0.000000000000207834 3.2 L -0.000000000000207834 20.200893 C -0.000000000000207834 20.800893 0.500893 21.299107 1.100893 21.299107 L 15.999107 21.299107 C 16.599107 21.299107 17.1 20.800893 17.1 20.200893 L 17.1 3.2 C 17.1 2.6 16.599107 2.099107 15.999107 2.099107 L 10.700893 2.099107 L 10.700893 1.1 C 10.700893 0.5 10.2 -0.000892857 9.6 -0.000892857 L 7.400893 -0.000892857 C 6.9 -0.000892857 6.399107 0.5 6.399107 1.1 Z M 14.900893 4.300893 L 2.1 4.300893 L 2.1 19.199107 L 14.900893 19.199107 Z M 5.300893 14.9 C 5.900893 14.9 6.399107 15.400893 6.399107 16.000893 C 6.399107 16.600893 5.900893 17 5.300893 17 C 4.700893 17 4.2 16.499107 4.2 15.899107 C 4.299107 15.400893 4.700893 14.9 5.300893 14.9 Z M 9.6 17 L 11.7 17 C 12.3 17 12.800893 16.499107 12.800893 15.899107 C 12.800893 15.299107 12.3 14.800893 11.7 14.800893 L 9.6 14.800893 C 9 14.800893 8.499107 15.299107 8.499107 15.899107 C 8.499107 16.499107 9 17 9.6 17 Z M 5.300893 10.600893 C 5.900893 10.600893 6.399107 11.099107 6.399107 11.699107 C 6.399107 12.299107 5.900893 12.8 5.300893 12.8 C 4.700893 12.8 4.2 12.299107 4.2 11.699107 C 4.299107 11.099107 4.700893 10.600893 5.300893 10.600893 Z M 9.6 12.8 L 11.7 12.8 C 12.3 12.8 12.800893 12.299107 12.800893 11.699107 C 12.800893 11.099107 12.3 10.600893 11.7 10.600893 L 9.6 10.600893 C 9 10.600893 8.499107 11.099107 8.499107 11.699107 C 8.499107 12.299107 9 12.8 9.6 12.8 Z M 5.300893 6.400893 C 5.900893 6.400893 6.399107 6.899107 6.399107 7.499107 C 6.399107 8.099107 5.900893 8.500893 5.300893 8.500893 C 4.700893 8.500893 4.299107 8 4.299107 7.4 C 4.299107 6.899107 4.700893 6.400893 5.300893 6.400893 Z M 9.6 8.500893 L 11.7 8.500893 C 12.3 8.500893 12.800893 8 12.800893 7.4 C 12.800893 6.8 12.3 6.299107 11.7 6.299107 L 9.6 6.299107 C 9 6.400893 8.499107 6.899107 8.499107 7.4 C 8.499107 8 9 8.500893 9.6 8.500893 Z M 9.6 8.500893 " transform="matrix(1.458333,0,0,1.458333,4.375,1.458333)"></path>
  </g>
</svg>
