<?xml version="1.0" encoding="UTF-8"?>
<svg xmlns="http://www.w3.org/2000/svg" xmlns:xlink="http://www.w3.org/1999/xlink" id="Layer_1" x="0px" y="0px" viewBox="0 0 53 53" style="enable-background:new 0 0 53 53;" xml:space="preserve">
  <style type="text/css">	.st0{fill:#7B6AFF;stroke:#060938;stroke-miterlimit:10;}	.st1{fill:#FFFFFF;}	.st2{fill:#EDCF9F;stroke:#060938;stroke-miterlimit:10;}	.st3{fill:#FFE1AA;}	.st4{fill:#FC81A6;}</style>
  <path class="st0" d="M35.6,23.8c-8.2,0-14.9,4.9-14.9,11c0,6.1,6.7,11,14.9,11h0.1c2.4,3,5.5,4.7,8.6,4.7c0.3,0,0.5,0,0.8,0 c0.4,0,0.7-0.3,0.8-0.7c0.1-0.4,0-0.8-0.2-1c-1.3-1.2-2.2-2.8-2.5-4.5c4.5-2,7.3-5.5,7.3-9.5C50.5,28.7,43.8,23.8,35.6,23.8z"></path>
  <path class="st1" d="M40.2,31.9h-0.4c-0.4,1.1-1.4,3.1-3.3,5.4c1,0.9,2,1.8,3.2,2.5c0.5,0.3,0.6,0.9,0.3,1.4 c-0.3,0.5-0.9,0.6-1.4,0.3c-1.2-0.8-2.4-1.7-3.5-2.8c-1.1,1-2.2,2-3.5,2.8c-0.5,0.3-1.1,0.2-1.4-0.3c-0.3-0.5-0.2-1.1,0.3-1.4l0,0 c1.1-0.7,2.2-1.6,3.2-2.5c-0.7-0.8-1.3-1.6-1.9-2.5c-0.3-0.5-0.2-1.1,0.3-1.4c0.5-0.3,1.1-0.2,1.4,0.3c0,0,0,0,0,0.1 c0.4,0.6,0.9,1.3,1.5,2.1c1-1.2,1.8-2.5,2.5-3.9h-6.5c-0.6,0-1-0.4-1-1s0.4-1,1-1h3.5v-0.9c0-0.6,0.4-1,1-1s1,0.4,1,1v0.9h3.5 c0.6,0,1,0.4,1,1S40.7,31.9,40.2,31.9z"></path>
  <path class="st2" d="M9.8,23c-0.3,1.6-1.2,3.2-2.5,4.5c-0.3,0.3-0.4,0.7-0.2,1c0.1,0.4,0.4,0.6,0.8,0.7c0.3,0,0.6,0,0.8,0 c3.1,0,6.2-1.7,8.5-4.7c8.2,0,14.9-4.9,14.9-11c0-6.1-6.7-11-14.9-11c-8.2,0-14.9,4.9-14.9,11C2.5,17.5,5.3,21,9.8,23z"></path>
  <path class="st1" d="M11.8,18.3l4.3-10.1c0.1-0.2,0.3-0.4,0.5-0.6c0.2-0.2,0.5-0.2,0.8-0.2h0.2c0.3,0,0.5,0.1,0.7,0.2 c0.2,0.2,0.3,0.4,0.5,0.6l4.3,10.1c0.1,0.2,0.1,0.3,0.1,0.4c0,0.3-0.1,0.5-0.3,0.7c-0.2,0.2-0.5,0.3-0.7,0.3c-0.2,0-0.4-0.1-0.6-0.2 c-0.2-0.1-0.3-0.3-0.4-0.4l-1-2.5h-5.4l-1,2.5c-0.1,0.2-0.2,0.3-0.4,0.5c-0.4,0.3-1,0.2-1.3-0.1c-0.2-0.2-0.3-0.4-0.3-0.7 C11.7,18.6,11.7,18.4,11.8,18.3L11.8,18.3z"></path>
  <polygon class="st3" points="17.4,10.2 15.5,14.7 19.3,14.7 "></polygon>
  <path class="st4" d="M11.1,38.4c0.3,0.5,0.9,0.7,1.4,0.4c0.5-0.3,0.7-0.9,0.4-1.4l0,0l-2.2-4.1c-0.2-0.5-0.9-0.6-1.4-0.4l-4.1,2.2 c-0.5,0.3-0.7,0.9-0.4,1.4C5,37,5.6,37.2,6.1,36.9l0,0l1.6-0.9c-0.2,0.9-0.3,1.8-0.2,2.7c0.4,4.6,4.2,8,8.7,8c1.8,0,3.6-0.6,5.1-1.6 c0.5-0.3,0.6-0.9,0.3-1.4s-0.9-0.6-1.4-0.3c0,0,0,0-0.1,0c-1,0.7-2.1,1.1-3.3,1.2c-3.7,0.3-7-2.5-7.3-6.2c-0.1-0.9,0-1.7,0.3-2.6 L11.1,38.4L11.1,38.4z"></path>
  <path class="st4" d="M35.9,8.5c2.9-0.9,6.1,0.3,7.8,2.9c1.4,2.2,1.4,5.1-0.2,7.5l-0.5-2.6c-0.1-0.5-0.6-0.9-1.1-0.8 c-0.5,0.1-0.9,0.6-0.8,1.1c0,0,0,0,0,0c0.3,1.9,0.8,4.3,0.9,4.6c0.1,0.4,0.5,0.8,1,0.8h0c0.1,0,0.1,0,0.2,0l4.6-0.8 c0.5-0.1,0.9-0.6,0.8-1.1c-0.1-0.5-0.6-0.9-1.1-0.8c0,0,0,0,0,0l-1.8,0.3c3.1-5.1,0.3-11.7-5.5-13.1c-1.5-0.4-3.1-0.3-4.6,0.2 c-0.5,0.2-0.8,0.7-0.7,1.3C34.8,8.3,35.4,8.6,35.9,8.5C35.9,8.5,35.9,8.5,35.9,8.5z"></path>
</svg>
