<?xml version="1.0" encoding="UTF-8"?>
<svg xmlns="http://www.w3.org/2000/svg" width="34.617" height="34.617" viewBox="0 0 34.617 34.617">
  <path id="instagram" d="M28.3,3H12.32A9.33,9.33,0,0,0,3,12.32V28.3a9.33,9.33,0,0,0,9.32,9.32H28.3a9.33,9.33,0,0,0,9.32-9.32V12.32A9.33,9.33,0,0,0,28.3,3Zm6.657,25.3A6.665,6.665,0,0,1,28.3,34.955H12.32A6.665,6.665,0,0,1,5.663,28.3V12.32A6.665,6.665,0,0,1,12.32,5.663H28.3a6.665,6.665,0,0,1,6.657,6.657ZM20.309,12.32A7.989,7.989,0,1,0,28.3,20.309,8,8,0,0,0,20.309,12.32Zm0,13.314a5.326,5.326,0,1,1,5.326-5.326A5.331,5.331,0,0,1,20.309,25.634ZM30.96,11.654a2,2,0,1,1-2-2,2,2,0,0,1,2,2Z" transform="translate(-3 -3)" fill="#fff"></path>
</svg>
