<?xml version="1.0" encoding="UTF-8"?>
<svg xmlns="http://www.w3.org/2000/svg" width="24" height="24" viewBox="0 0 24 24">
  <g id="Smart_Lab" data-name="Smart Lab" transform="translate(141 35)">
    <rect id="Rectangle_778" data-name="Rectangle 778" width="24" height="24" transform="translate(-141 -35)" fill="#fff" opacity="0"></rect>
    <g id="Smart_Lab_1_1_" data-name="Smart Lab (1) (1)" transform="translate(-139.096 -33.212)">
      <path id="Path_11723" data-name="Path 11723" d="M363.718,301.856a1.813,1.813,0,1,0,1.813,1.813,1.813,1.813,0,0,0-1.813-1.813Zm0,2.418a.6.6,0,1,1,.6-.6.6.6,0,0,1-.6.6Z" transform="translate(-347.335 -289.703)" fill="#fff"></path>
      <path id="Path_11724" data-name="Path 11724" d="M18.193,10.142a6.72,6.72,0,0,0-6.709-6.515H10.91V2.418H9.7V0H6.076V2.418H4.868v9.669H10.91V7.251h.574a3.092,3.092,0,0,1,3.082,2.9,4.234,4.234,0,0,0-2.41,3.817v.606H2.45v1.208h9.707v1.21H0v3.626H20.613v-6.65A4.234,4.234,0,0,0,18.193,10.142ZM7.284,1.208h1.21v1.21H7.284ZM9.7,3.625V8.461H6.075V3.625ZM6.075,10.879V9.669H9.7v1.21Zm5.41-4.836H10.91V4.835h.574A5.512,5.512,0,0,1,16.96,9.774a4.245,4.245,0,0,0-1.215.009,4.3,4.3,0,0,0-4.26-3.741Zm7.92,13.362H1.208V18.2h18.2Zm-6.041-2.417V13.963a3.02,3.02,0,1,1,6.041,0v3.024Z" fill="#fff"></path>
    </g>
  </g>
</svg>
