<?xml version="1.0" encoding="UTF-8"?>
<svg xmlns="http://www.w3.org/2000/svg" width="90" height="90" viewBox="0 0 90 90">
  <g id="Farm_to_fork_1_" data-name="Farm to fork (1)" transform="translate(5 9)">
    <rect id="Rectangle_4" data-name="Rectangle 4" width="90" height="90" transform="translate(-5 -9)" fill="none"></rect>
    <rect id="Rectangle_1" data-name="Rectangle 1" width="81" height="71" rx="1" fill="#d3d3d3"></rect>
    <path id="Path_1" data-name="Path 1" d="M1,1H75.174V65.059H1Z" transform="translate(2.372 2.372)" fill="#fff" fill-rule="evenodd"></path>
    <path id="Path_2" data-name="Path 2" d="M3,3H13.115V6.372H3Z" transform="translate(7.115 7.115)" fill="#555" fill-rule="evenodd"></path>
    <path id="Path_3" data-name="Path 3" d="M7,3H23.858V6.372H7Z" transform="translate(16.601 7.115)" fill="#777" fill-rule="evenodd"></path>
    <path id="Path_4" data-name="Path 4" d="M3,5H13.115V8.372H3Z" transform="translate(7.115 11.858)" fill="#555" fill-rule="evenodd"></path>
    <path id="Path_5" data-name="Path 5" d="M7,5H23.858V8.372H7Z" transform="translate(16.601 11.858)" fill="#777" fill-rule="evenodd"></path>
    <path id="Path_6" data-name="Path 6" d="M3,7H13.115v3.372H3Z" transform="translate(7.115 16.601)" fill="#555" fill-rule="evenodd"></path>
    <path id="Path_7" data-name="Path 7" d="M7,7H23.858v3.372H7Z" transform="translate(16.601 16.601)" fill="#777" fill-rule="evenodd"></path>
    <path id="Path_8" data-name="Path 8" d="M3,9H13.115v3.372H3Z" transform="translate(7.115 21.344)" fill="#555" fill-rule="evenodd"></path>
    <path id="Path_9" data-name="Path 9" d="M15,13h6.743v3.372H15Zm0,6.743h6.743v3.372H15Zm0,6.743h6.743v3.372H15Z" transform="translate(35.573 30.83)" fill="#777" fill-rule="evenodd"></path>
    <path id="Path_10" data-name="Path 10" d="M18,13H28.115v3.372H18Z" transform="translate(42.688 30.83)" fill="#555" fill-rule="evenodd"></path>
    <circle id="Ellipse_1" data-name="Ellipse 1" cx="12" cy="12" r="12" transform="translate(47 10)" fill="#6dc871"></circle>
    <path id="Path_11" data-name="Path 11" d="M16.577,20.711a11.97,11.97,0,0,0,14.5-15.318L19.73,9.175Z" transform="translate(39.316 12.792)" fill="#0aa9dd" fill-rule="evenodd"></path>
    <path id="Path_12" data-name="Path 12" d="M15.466,5.219A11.923,11.923,0,0,1,33.7,11.146L22.391,14.915Z" transform="translate(36.678 7)" fill="#f8a700" fill-rule="evenodd"></path>
    <path id="Path_13" data-name="Path 13" d="M18,15H28.115v3.372H18Zm0,6.743H28.115v3.372H18Z" transform="translate(42.688 35.573)" fill="#555" fill-rule="evenodd"></path>
    <path id="Path_14" data-name="Path 14" d="M3,12H6.372V32.229H3Z" transform="translate(7.115 28.458)" fill="#f44d61" fill-rule="evenodd"></path>
    <path id="Path_15" data-name="Path 15" d="M5,16H8.372v6.743H5Z" transform="translate(11.858 37.945)" fill="#f8a700" fill-rule="evenodd"></path>
    <path id="Path_16" data-name="Path 16" d="M7,14h3.372V27.486H7Z" transform="translate(16.601 33.202)" fill="#3bbae4" fill-rule="evenodd"></path>
    <path id="Path_17" data-name="Path 17" d="M9,14h3.372V27.486H9Z" transform="translate(21.344 33.202)" fill="#f44d61" fill-rule="evenodd"></path>
    <path id="Path_18" data-name="Path 18" d="M11,15h3.372V25.115H11Z" transform="translate(26.087 35.573)" fill="#f8a700" fill-rule="evenodd"></path>
    <path id="Path_19" data-name="Path 19" d="M7,9H23.858v3.372H7Z" transform="translate(16.601 21.344)" fill="#777" fill-rule="evenodd"></path>
  </g>
</svg>
