<?xml version="1.0" encoding="UTF-8"?>
<svg xmlns="http://www.w3.org/2000/svg" width="65" height="65" viewBox="0 0 65 65">
  <g id="Group_4" data-name="Group 4" transform="translate(-1967 -186)">
    <rect id="Rectangle_4" data-name="Rectangle 4" width="65" height="65" transform="translate(1967 186)" fill="none"></rect>
    <g id="Audit_Scheduling" data-name="Audit Scheduling" transform="translate(1967.3 186.2)">
      <path id="Path_1" data-name="Path 1" d="M53.646,57.053H5.269A3.554,3.554,0,0,1,1.7,53.484V9.469A3.554,3.554,0,0,1,5.269,5.9H53.646a3.554,3.554,0,0,1,3.569,3.569V53.484a3.554,3.554,0,0,1-3.569,3.569Z" transform="translate(0 1.319)" fill="#b4dff9"></path>
      <path id="Path_2" data-name="Path 2" d="M9.466,5.7H5.5A3.614,3.614,0,0,0,1.8,9.4V53.68a3.694,3.694,0,0,0,3.7,3.7H53.878m3.437-5.68V9.4a3.694,3.694,0,0,0-3.7-3.7h-4.1m-4.1,0H13.7M57.315,16.671H1.8" transform="translate(0.032 1.255)" fill="none" stroke="#000" stroke-linecap="round" stroke-linejoin="round" stroke-miterlimit="10" stroke-width="1.5"></path>
      <rect id="Rectangle_7" data-name="Rectangle 7" width="5.023" height="4.891" transform="translate(27.078 22.684)" fill="#59b9ff" stroke="#000" stroke-linecap="round" stroke-linejoin="round" stroke-miterlimit="10" stroke-width="1.5"></rect>
      <path id="Path_3" data-name="Path 3" d="M28.6,21.169V17.6h5.023v2.247" transform="translate(8.656 5.084)" fill="none" stroke="#000" stroke-linecap="round" stroke-linejoin="round" stroke-miterlimit="10" stroke-width="1.5"></path>
      <rect id="Rectangle_8" data-name="Rectangle 8" width="5.023" height="4.891" transform="translate(47.433 22.684)" fill="#59b9ff" stroke="#000" stroke-linecap="round" stroke-linejoin="round" stroke-miterlimit="10" stroke-width="1.5"></rect>
      <rect id="Rectangle_9" data-name="Rectangle 9" width="5.023" height="4.891" transform="translate(6.723 31.408)" fill="#3cb547" stroke="#000" stroke-linecap="round" stroke-linejoin="round" stroke-miterlimit="10" stroke-width="1.5"></rect>
      <rect id="Rectangle_10" data-name="Rectangle 10" width="5.023" height="4.891" transform="translate(16.9 31.408)" fill="#f0373c" stroke="#000" stroke-linecap="round" stroke-linejoin="round" stroke-miterlimit="10" stroke-width="1.5"></rect>
      <path id="Path_4" data-name="Path 4" d="M20.9,27.769V24.2h2.379" transform="translate(6.178 7.208)" fill="none" stroke="#000" stroke-linecap="round" stroke-linejoin="round" stroke-miterlimit="10" stroke-width="1.5"></path>
      <rect id="Rectangle_11" data-name="Rectangle 11" width="5.023" height="4.891" transform="translate(6.723 40.264)" fill="#3cb547" stroke="#000" stroke-linecap="round" stroke-linejoin="round" stroke-miterlimit="10" stroke-width="1.5"></rect>
      <rect id="Rectangle_12" data-name="Rectangle 12" width="5.023" height="4.891" transform="translate(16.9 40.264)" fill="#f0373c" stroke="#000" stroke-linecap="round" stroke-linejoin="round" stroke-miterlimit="10" stroke-width="1.5"></rect>
      <rect id="Rectangle_13" data-name="Rectangle 13" width="5.023" height="4.891" transform="translate(6.723 48.987)" fill="#3cb547" stroke="#000" stroke-linecap="round" stroke-linejoin="round" stroke-miterlimit="10" stroke-width="1.5"></rect>
      <rect id="Rectangle_14" data-name="Rectangle 14" width="5.023" height="4.891" transform="translate(16.9 48.987)" fill="#f0373c" stroke="#000" stroke-linecap="round" stroke-linejoin="round" stroke-miterlimit="10" stroke-width="1.5"></rect>
      <path id="Path_5" data-name="Path 5" d="M25.923,42.391H20.9V37.5" transform="translate(6.178 11.487)" fill="none" stroke="#000" stroke-linecap="round" stroke-linejoin="round" stroke-miterlimit="10" stroke-width="1.5"></path>
      <path id="Path_6" data-name="Path 6" d="M10.508,12.242H8.922A1.325,1.325,0,0,1,7.6,10.92V3.12A1.325,1.325,0,0,1,8.922,1.8h1.454A1.325,1.325,0,0,1,11.7,3.122v7.8a1.215,1.215,0,0,1-1.192,1.32Z" transform="translate(1.898)" fill="#ffed91" stroke="#000" stroke-linecap="round" stroke-linejoin="round" stroke-miterlimit="10" stroke-width="1.5"></path>
      <path id="Path_7" data-name="Path 7" d="M12.441,10h1.322a1.08,1.08,0,0,1,1.19,1.057v2.9a1.165,1.165,0,0,1-1.19,1.057H6.89A1.08,1.08,0,0,1,5.7,13.96V10.92A1.068,1.068,0,0,1,6.89,10H8.211m38.728,2.247H45.485a1.325,1.325,0,0,1-1.322-1.322v-7.8A1.325,1.325,0,0,1,45.485,1.8h1.454a1.325,1.325,0,0,1,1.322,1.322v7.8a1.325,1.325,0,0,1-1.322,1.32Z" transform="translate(1.287)" fill="#ffed91" stroke="#000" stroke-linecap="round" stroke-linejoin="round" stroke-miterlimit="10" stroke-width="1.5"></path>
      <path id="Path_8" data-name="Path 8" d="M42.952,8.032h1.322a1.08,1.08,0,0,1,1.19,1.057V12a1.165,1.165,0,0,1-1.19,1.057H37.4A1.08,1.08,0,0,1,36.211,12V8.957A1.165,1.165,0,0,1,37.4,7.9h1.322M22.2,39.887a12.861,12.861,0,1,1,3.907,9.063A12.955,12.955,0,0,1,22.2,39.887Z" transform="translate(6.596 1.963)" fill="#ffed91" stroke="#000" stroke-linecap="round" stroke-linejoin="round" stroke-miterlimit="10" stroke-width="1.5"></path>
      <path id="Path_9" data-name="Path 9" d="M40.969,37.5l9.385,7.534c.132.132.264.132.264.264a3.75,3.75,0,0,1,0,5.287,3.883,3.883,0,0,1-5.684-.264L37.4,40.937" transform="translate(11.487 11.487)" fill="#ffa301" stroke="#000" stroke-linecap="round" stroke-linejoin="round" stroke-miterlimit="10" stroke-width="1.5"></path>
    </g>
  </g>
</svg>
