<?xml version="1.0" encoding="UTF-8"?>
<svg xmlns="http://www.w3.org/2000/svg" width="90" height="90" viewBox="0 0 90 90">
  <g id="Functional_expertise_latest_1_" data-name="Functional expertise latest (1)" transform="translate(7.073 7.058)">
    <rect id="Rectangle_5" data-name="Rectangle 5" width="90" height="90" transform="translate(-7.073 -7.058)" fill="none"></rect>
    <path id="Path_64" data-name="Path 64" d="M196.157,67.406l2.389,6.292a.489.489,0,0,0,.441.321l6.722.328a.5.5,0,0,1,.288.885l-5.246,4.216a.489.489,0,0,0-.168.518l1.766,6.494a.5.5,0,0,1-.753.547l-5.631-3.686a.488.488,0,0,0-.545,0l-5.631,3.686a.5.5,0,0,1-.753-.547l1.766-6.494a.489.489,0,0,0-.168-.518l-5.246-4.216a.5.5,0,0,1,.288-.885l6.722-.328a.488.488,0,0,0,.441-.321l2.389-6.292a.5.5,0,0,1,.93,0Z" transform="translate(-157.765 -57.136)" fill="#ffe177" fill-rule="evenodd"></path>
    <path id="Path_65" data-name="Path 65" d="M196.158,67.406l2.389,6.292-.611-.03a.489.489,0,0,1-.441-.32l-2.261-5.956a.487.487,0,0,1,.459-.306A.492.492,0,0,1,196.158,67.406Zm7.726,6.851,1.826.089a.5.5,0,0,1,.288.885l-5.246,4.216a.489.489,0,0,0-.168.518l1.766,6.494a.5.5,0,0,1-.753.547l-5.631-3.686a.488.488,0,0,0-.545,0l-5.631,3.686a.5.5,0,0,1-.753-.547l.467-1.718,4.435-2.9a.488.488,0,0,1,.545,0l5.631,3.686a.5.5,0,0,0,.753-.547L199.1,78.484a.489.489,0,0,1,.168-.518ZM189.335,78.4a.486.486,0,0,0-.184-.438L185.2,74.792a.489.489,0,0,0,.184.439Z" transform="translate(-157.765 -57.136)" fill="#ffd064" fill-rule="evenodd"></path>
    <path id="Path_66" data-name="Path 66" d="M372.82,67.406l2.389,6.292a.489.489,0,0,0,.441.321l6.722.328a.5.5,0,0,1,.288.885l-5.246,4.216a.489.489,0,0,0-.168.518l1.766,6.494a.5.5,0,0,1-.753.547l-5.631-3.686a.488.488,0,0,0-.545,0l-5.631,3.686a.5.5,0,0,1-.753-.547l1.766-6.494a.489.489,0,0,0-.168-.518l-5.246-4.216a.5.5,0,0,1,.288-.885l6.722-.328a.488.488,0,0,0,.441-.321l2.389-6.292a.5.5,0,0,1,.93,0Z" transform="translate(-308.251 -57.136)" fill="#ffe177" fill-rule="evenodd"></path>
    <path id="Path_67" data-name="Path 67" d="M372.821,67.406l2.389,6.292-.611-.03a.489.489,0,0,1-.441-.32L371.9,67.391a.487.487,0,0,1,.46-.306.492.492,0,0,1,.465.321Zm7.726,6.851,1.826.089a.5.5,0,0,1,.288.885l-5.246,4.216a.489.489,0,0,0-.168.518l1.766,6.494a.5.5,0,0,1-.753.547l-5.631-3.686a.488.488,0,0,0-.545,0l-5.631,3.686a.5.5,0,0,1-.753-.547l.467-1.718,4.435-2.9a.488.488,0,0,1,.545,0l5.631,3.686a.5.5,0,0,0,.753-.547l-1.766-6.494a.489.489,0,0,1,.168-.518l4.614-3.709ZM366,78.4a.486.486,0,0,0-.184-.438l-3.948-3.173a.488.488,0,0,0,.184.439Z" transform="translate(-308.252 -57.136)" fill="#ffd064" fill-rule="evenodd"></path>
    <path id="Path_68" data-name="Path 68" d="M18.963,67.406,21.352,73.7a.489.489,0,0,0,.441.32l6.722.328a.5.5,0,0,1,.288.885l-5.246,4.216a.489.489,0,0,0-.168.518l1.766,6.494a.5.5,0,0,1-.753.547l-5.631-3.686a.488.488,0,0,0-.545,0l-5.631,3.686a.5.5,0,0,1-.753-.547l1.766-6.494a.489.489,0,0,0-.168-.518L8.193,75.231a.5.5,0,0,1,.288-.885l6.722-.328a.488.488,0,0,0,.441-.32l2.389-6.292a.5.5,0,0,1,.931,0Z" transform="translate(-6.826 -57.136)" fill="#ffe177" fill-rule="evenodd"></path>
    <path id="Path_69" data-name="Path 69" d="M18.965,67.405,21.354,73.7l-.611-.03a.489.489,0,0,1-.441-.32L18.041,67.39a.487.487,0,0,1,.459-.306A.492.492,0,0,1,18.965,67.405Zm7.726,6.851,1.826.089a.5.5,0,0,1,.288.885l-5.246,4.216a.489.489,0,0,0-.168.518l1.766,6.494a.5.5,0,0,1-.753.547L18.773,83.32a.488.488,0,0,0-.545,0L12.6,87.006a.5.5,0,0,1-.753-.547l.467-1.718,4.435-2.9a.488.488,0,0,1,.545,0l5.631,3.686a.5.5,0,0,0,.753-.547l-1.766-6.494a.489.489,0,0,1,.168-.518ZM12.143,78.4a.486.486,0,0,0-.184-.438L8.011,74.791a.488.488,0,0,0,.184.439Z" transform="translate(-6.828 -57.135)" fill="#ffd064" fill-rule="evenodd"></path>
    <g id="Group_1" data-name="Group 1" transform="translate(1.18 42.677)">
      <path id="Path_70" data-name="Path 70" d="M19.9,363.165a12.311,12.311,0,0,1,11.757,8.661,2.813,2.813,0,0,1-2.687,3.645H10.831a2.813,2.813,0,0,1-2.687-3.645A12.312,12.312,0,0,1,19.9,363.165Z" transform="translate(-8.011 -352.023)" fill="#6cf5c2" fill-rule="evenodd"></path>
      <path id="Path_71" data-name="Path 71" d="M78.706,363.165a12.311,12.311,0,0,1,11.757,8.661,2.813,2.813,0,0,1-2.687,3.645H84.452a2.813,2.813,0,0,0,2.687-3.645,12.319,12.319,0,0,0-10.1-8.549A12.4,12.4,0,0,1,78.706,363.165Z" transform="translate(-66.815 -352.023)" fill="#00e499" fill-rule="evenodd"></path>
      <circle id="Ellipse_9" data-name="Ellipse 9" cx="6.222" cy="6.222" r="6.222" transform="translate(5.669 0)" fill="#f6dccd"></circle>
      <path id="Path_72" data-name="Path 72" d="M83.484,287.966a6.222,6.222,0,1,1-.831,12.388,6.222,6.222,0,0,0,0-12.333A6.327,6.327,0,0,1,83.484,287.966Z" transform="translate(-71.593 -287.966)" fill="#f1cbbc" fill-rule="evenodd"></path>
    </g>
    <g id="Group_2" data-name="Group 2" transform="translate(50.892 42.677)">
      <path id="Path_73" data-name="Path 73" d="M355.4,363.165a12.311,12.311,0,0,1,11.757,8.661,2.813,2.813,0,0,1-2.687,3.645H346.326a2.813,2.813,0,0,1-2.687-3.645A12.312,12.312,0,0,1,355.4,363.165Z" transform="translate(-343.506 -352.023)" fill="#6cf5c2" fill-rule="evenodd"></path>
      <path id="Path_74" data-name="Path 74" d="M414.2,363.165a12.311,12.311,0,0,1,11.757,8.661,2.813,2.813,0,0,1-2.687,3.645h-3.324a2.813,2.813,0,0,0,2.687-3.645,12.319,12.319,0,0,0-10.1-8.549A12.4,12.4,0,0,1,414.2,363.165Z" transform="translate(-402.311 -352.023)" fill="#00e499" fill-rule="evenodd"></path>
      <circle id="Ellipse_10" data-name="Ellipse 10" cx="6.222" cy="6.222" r="6.222" transform="translate(5.669 0)" fill="#f6dccd"></circle>
      <path id="Path_75" data-name="Path 75" d="M418.98,287.966a6.222,6.222,0,1,1-.831,12.388,6.222,6.222,0,0,0,0-12.333A6.327,6.327,0,0,1,418.98,287.966Z" transform="translate(-407.089 -287.966)" fill="#f1cbbc" fill-rule="evenodd"></path>
    </g>
    <g id="Group_3" data-name="Group 3" transform="translate(21.573 34.498)">
      <path id="Path_76" data-name="Path 76" d="M178.344,364.141a16.45,16.45,0,0,0-32.708,0v3.325a4.4,4.4,0,0,0,4.4,4.4h23.917a4.4,4.4,0,0,0,4.4-4.4Z" transform="translate(-145.636 -332.171)" fill="#8ac9fe" fill-rule="evenodd"></path>
      <path id="Path_77" data-name="Path 77" d="M260.863,364.141a16.451,16.451,0,0,0-16.354-14.679,16.625,16.625,0,0,0-2,.121,16.456,16.456,0,0,1,14.354,14.558v3.325a4.4,4.4,0,0,1-4.4,4.4h4a4.4,4.4,0,0,0,4.4-4.4v-3.325Z" transform="translate(-228.155 -332.171)" fill="#60b7ff" fill-rule="evenodd"></path>
      <circle id="Ellipse_11" data-name="Ellipse 11" cx="8.317" cy="8.317" r="8.317" transform="matrix(0.997, -0.082, 0.082, 0.997, 7.382, 1.37)" fill="#f6dccd"></circle>
      <path id="Path_78" data-name="Path 78" d="M249.913,237.206a8.317,8.317,0,1,1,0,16.633,8.4,8.4,0,0,1-1.06-.067,8.318,8.318,0,0,0,0-16.5A8.376,8.376,0,0,1,249.913,237.206Z" transform="translate(-233.559 -236.549)" fill="#f1cbbc" fill-rule="evenodd"></path>
    </g>
    <path id="Path_79" data-name="Path 79" d="M73.164,65.122a1.566,1.566,0,0,1-1.314.662H55.312a17.564,17.564,0,0,0-1.7-5.108,11.125,11.125,0,0,1,19.8,3A1.56,1.56,0,0,1,73.164,65.122Zm-20.07,5.171A3.214,3.214,0,0,1,49.885,73.5H25.968a3.214,3.214,0,0,1-3.211-3.21v-3.26A15.224,15.224,0,0,1,37.923,53.475h.007A15.223,15.223,0,0,1,53.094,67.033v3.26Zm-32.553-4.51H4a1.554,1.554,0,0,1-1.311-.662,1.553,1.553,0,0,1-.245-1.447,11.125,11.125,0,0,1,19.8-3,17.5,17.5,0,0,0-1.7,5.108ZM13.069,43.4A5.037,5.037,0,1,1,8.033,48.44,5.043,5.043,0,0,1,13.069,43.4Zm17.725.57A7.131,7.131,0,1,1,37.93,51.1h-.007a7.14,7.14,0,0,1-7.128-7.131ZM62.781,43.4a5.037,5.037,0,1,1-5.037,5.037A5.041,5.041,0,0,1,62.781,43.4Zm12.892,19.57a13.517,13.517,0,0,0-8.326-8.705,7.409,7.409,0,1,0-9.136,0,13.357,13.357,0,0,0-5.933,4.231,17.636,17.636,0,0,0-9.117-6.6,9.5,9.5,0,1,0-10.472,0,17.668,17.668,0,0,0-9.118,6.6,13.353,13.353,0,0,0-5.931-4.231,7.408,7.408,0,1,0-9.135,0,13.432,13.432,0,0,0-3.516,1.9,13.613,13.613,0,0,0-4.81,6.809,3.913,3.913,0,0,0,.6,3.556A3.91,3.91,0,0,0,4,68.154H20.386v2.14a5.588,5.588,0,0,0,5.582,5.581H49.884a5.588,5.588,0,0,0,5.58-5.581V68.154H71.849a4,4,0,0,0,3.824-5.181ZM8.433,18.7a1.686,1.686,0,0,0,1.492-1.084l1.745-4.6,1.746,4.6A1.684,1.684,0,0,0,14.909,18.7l4.911.239-3.833,3.081a1.681,1.681,0,0,0-.569,1.753l1.289,4.747-4.114-2.694a1.684,1.684,0,0,0-1.843,0L6.633,28.523l1.29-4.746a1.683,1.683,0,0,0-.569-1.754L3.52,18.942,8.433,18.7Zm-7.81.952,4.9,3.934L3.871,29.65A1.683,1.683,0,0,0,6.417,31.5l5.254-3.439L16.925,31.5a1.683,1.683,0,0,0,2.545-1.85l-1.648-6.06,4.894-3.934a1.683,1.683,0,0,0-.972-2.993l-6.273-.306-2.229-5.871a1.683,1.683,0,0,0-3.147,0L7.869,16.357,1.6,16.663a1.683,1.683,0,0,0-.974,2.992Zm60.32-.952a1.684,1.684,0,0,0,1.492-1.084l1.745-4.6,1.747,4.6a1.681,1.681,0,0,0,1.49,1.084l4.914.239L68.5,22.024a1.682,1.682,0,0,0-.573,1.753l1.293,4.747L65.1,25.829a1.682,1.682,0,0,0-1.843,0l-4.115,2.694,1.291-4.746a1.685,1.685,0,0,0-.571-1.754l-3.833-3.081Zm-7.81.952,4.9,3.934L56.38,29.65a1.683,1.683,0,0,0,2.546,1.85L64.18,28.06,69.438,31.5a1.683,1.683,0,0,0,2.544-1.85l-1.65-6.06,4.893-3.934a1.68,1.68,0,0,0-.972-2.993l-6.27-.306-2.23-5.871a1.683,1.683,0,0,0-3.147,0l-2.229,5.871-6.272.306a1.683,1.683,0,0,0-.974,2.992ZM25.283,6.617a1.184,1.184,0,0,1,1.674-.087L31.8,10.895a1.185,1.185,0,1,1-1.587,1.761L25.371,8.292a1.184,1.184,0,0,1-.088-1.674Zm18.676,5.952a1.186,1.186,0,0,1,.087-1.674L48.895,6.53A1.185,1.185,0,1,1,50.48,8.292l-4.846,4.365a1.186,1.186,0,0,1-1.675-.087ZM36.74,5.546V1.2a1.186,1.186,0,1,1,2.371,0v4.35a1.186,1.186,0,0,1-2.371,0ZM34.688,18.7a1.684,1.684,0,0,0,1.492-1.084l1.745-4.6,1.747,4.6A1.681,1.681,0,0,0,41.163,18.7l4.913.239-3.834,3.081a1.68,1.68,0,0,0-.569,1.753l1.29,4.747-4.117-2.694a1.686,1.686,0,0,0-1.843,0l-4.115,2.694,1.29-4.746a1.682,1.682,0,0,0-.57-1.754l-3.834-3.081,4.914-.239Zm-8.356-.879a1.67,1.67,0,0,0,.545,1.832l4.9,3.934-1.648,6.06a1.683,1.683,0,0,0,2.546,1.85l5.254-3.439L43.18,31.5a1.682,1.682,0,0,0,2.545-1.85l-1.648-6.06,4.9-3.934A1.683,1.683,0,0,0,48,16.663l-6.274-.306L39.5,10.486a1.683,1.683,0,0,0-3.147,0l-2.229,5.871-6.272.306a1.669,1.669,0,0,0-1.519,1.161Z" transform="translate(0 0)" fill-rule="evenodd"></path>
  </g>
</svg>
