<?xml version="1.0" encoding="UTF-8"?>
<!-- Generator: Adobe Illustrator 26.5.0, SVG Export Plug-In . SVG Version: 6.00 Build 0)  -->
<svg xmlns="http://www.w3.org/2000/svg" xmlns:xlink="http://www.w3.org/1999/xlink" version="1.1" id="Layer_1" x="0px" y="0px" viewBox="0 0 24 24" style="enable-background:new 0 0 24 24;" xml:space="preserve">
<style type="text/css">
	.st0{fill:none;}
	.st1{fill:#0B163F;}
</style>
<g id="Group_59" transform="translate(-2527 -171)">
	<rect id="Rectangle_91" x="2527" y="171" class="st0" width="24" height="24"></rect>
	<g id="audit_2_" transform="translate(2528 170.59)">
		<path id="Path_193" class="st1" d="M18.9,15.2l-0.3-0.7l-0.1-0.1l-0.1,0.1c-0.1,0.1-0.3,0.1-0.4,0.2s-0.3,0.1-0.4,0.2h-0.1    l0.4,0.8L18.9,15.2z M21.7,19.8l-2.2-4.2l-1.7,0.8l2.2,4.2c0.2,0.4,0.7,0.7,1.2,0.5c0.1,0,0.1-0.1,0.2-0.1    C21.8,20.7,21.9,20.2,21.7,19.8z M20,7.7c-1.2-2.4-4.1-3.4-6.5-2.2s-3.4,4.1-2.3,6.5s4.1,3.4,6.5,2.3l0,0    C20.2,13,21.2,10.1,20,7.7z M14.5,13c-1.8-0.6-2.7-2.6-2.1-4.4c0.7-1.7,2.6-2.6,4.4-2s2.7,2.6,2.1,4.4c-0.3,0.9-0.9,1.6-1.7,2    C16.3,13.3,15.4,13.3,14.5,13L14.5,13z M3,19.5H0.5l2.6,2.6L3,19.5C3.1,19.5,3.1,19.5,3,19.5z"></path>
		<path id="Path_194" class="st1" d="M13.3,14.8H1.6c-0.2,0-0.4-0.1-0.4-0.3s0.1-0.4,0.3-0.4c0,0,0,0,0.1,0h10.6    c-0.6-0.5-1-1-1.4-1.6H1.6c-0.2,0-0.4-0.1-0.4-0.3s0.1-0.4,0.3-0.4c0,0,0,0,0.1,0h8.9c-0.2-0.5-0.3-1.1-0.4-1.6H1.6    c-0.2,0-0.3-0.2-0.3-0.4s0.2-0.3,0.3-0.3h8.5c0-0.5,0.1-1,0.3-1.5c0-0.1,0-0.1,0.1-0.2H3.9c-0.2,0-0.3-0.2-0.3-0.4    c0-0.2,0.2-0.3,0.3-0.3h6.9c0.6-1,1.4-1.8,2.4-2.3c0.6-0.3,1.2-0.5,1.8-0.5V2.5c0,0,0-0.1-0.1-0.1l0,0H0.1c0,0-0.1,0-0.1,0.1v16.3    h3c0.4,0,0.8,0.3,0.8,0.8l0,0v3H15c0,0,0.1,0,0.1-0.1v-7.2c-0.4,0-0.8-0.1-1.2-0.3C13.7,15,13.5,14.9,13.3,14.8z M2.2,4.8H11    c0.2,0,0.4,0.1,0.4,0.3c0,0.2-0.1,0.4-0.3,0.4c0,0,0,0-0.1,0H2.2C2,5.5,1.8,5.4,1.8,5.2C1.8,5,1.9,4.8,2.2,4.8    C2.1,4.8,2.1,4.8,2.2,4.8z M7.3,17.2H1.6c-0.2,0-0.4-0.1-0.4-0.3c0-0.2,0.1-0.4,0.3-0.4c0,0,0,0,0.1,0h5.7c0.2,0,0.4,0.1,0.4,0.3    S7.5,17.2,7.3,17.2L7.3,17.2z M11.2,21.8c-1.5,0-2.6-1.2-2.6-2.6c0-1.5,1.2-2.6,2.6-2.6c1.5,0,2.6,1.2,2.6,2.6    C13.8,20.6,12.6,21.8,11.2,21.8z"></path>
		<path id="Path_195" class="st1" d="M11.2,17.2c-1.1,0-1.9,0.9-1.9,1.9s0.9,1.9,1.9,1.9s1.9-0.9,1.9-1.9l0,0    C13.1,18.1,12.2,17.2,11.2,17.2z M12.6,18.6L11,20.2c-0.1,0.1-0.4,0.1-0.5,0l-0.7-0.7c-0.1-0.1-0.1-0.4,0-0.5s0.4-0.1,0.5,0    l0.4,0.4l1.4-1.4c0.1-0.1,0.4-0.1,0.5,0C12.7,18.2,12.7,18.4,12.6,18.6L12.6,18.6L12.6,18.6z"></path>
	</g>
</g>
</svg>
