<?xml version="1.0" encoding="UTF-8"?>
<!-- Generator: Adobe Illustrator 26.5.0, SVG Export Plug-In . SVG Version: 6.00 Build 0)  -->
<svg xmlns="http://www.w3.org/2000/svg" xmlns:xlink="http://www.w3.org/1999/xlink" version="1.1" id="Layer_1" x="0px" y="0px" viewBox="0 0 24 24" style="enable-background:new 0 0 24 24;" xml:space="preserve">
<style type="text/css">
	.st0{fill:none;}
	.st1{fill:#0A163E;}
</style>
<g id="Group_70" transform="translate(-2165 -225)">
	<rect id="Rectangle_101" x="2165" y="225" class="st0" width="24" height="24"></rect>
	<path id="schedule_3_" class="st1" d="M2187.4,232.8h-20.8c-0.2,0-0.3,0-0.5-0.1v14.8c0,0.3,0.2,0.5,0.5,0.5l0,0h20.8   c0.3,0,0.5-0.2,0.5-0.5l0,0v-14.8C2187.7,232.7,2187.5,232.8,2187.4,232.8L2187.4,232.8z M2173.2,245c0,0.3-0.2,0.5-0.5,0.5   c0,0,0,0,0,0h-3.8c-0.3,0-0.5-0.2-0.5-0.5l0,0v-3.8c0-0.3,0.2-0.5,0.5-0.5l0,0h3.8c0.3,0,0.5,0.2,0.5,0.5L2173.2,245z M2179.4,245   c0,0.3-0.2,0.5-0.5,0.5l0,0h-3.8c-0.3,0-0.5-0.2-0.5-0.5l0,0v-3.8c0-0.3,0.2-0.5,0.5-0.5l0,0h3.8c0.3,0,0.5,0.2,0.5,0.5l0,0   L2179.4,245z M2179.4,238.4c0,0.3-0.2,0.5-0.5,0.5l0,0h-3.8c-0.3,0-0.5-0.2-0.5-0.5l0,0v-3.8c0-0.3,0.2-0.5,0.5-0.5l0,0h3.8   c0.3,0,0.5,0.2,0.5,0.5l0,0L2179.4,238.4z M2185.5,245c0,0.3-0.2,0.5-0.5,0.5l0,0h-3.8c-0.3,0-0.5-0.2-0.5-0.5l0,0v-3.8   c0-0.3,0.2-0.5,0.5-0.5l0,0h3.8c0.3,0,0.5,0.2,0.5,0.5l0,0L2185.5,245z M2185.5,238.4c0,0.3-0.2,0.5-0.5,0.5l0,0h-3.8   c-0.3,0-0.5-0.2-0.5-0.5l0,0v-3.8c0-0.3,0.2-0.5,0.5-0.5l0,0h3.8c0.3,0,0.5,0.2,0.5,0.5l0,0L2185.5,238.4z M2169.9,230.4   c-0.3,0-0.5-0.2-0.5-0.5c0,0,0,0,0,0v-3.3c0-0.3,0.2-0.5,0.5-0.4c0.2,0,0.4,0.2,0.4,0.4v3.3   C2170.4,230.2,2170.2,230.4,2169.9,230.4z M2187.8,228.5v3.3c0,0.3-0.2,0.5-0.5,0.5l0,0h-20.8c-0.3,0-0.5-0.2-0.5-0.5v-3.3   c0-0.3,0.2-0.5,0.5-0.5h2.4v1.9c0,0.5,0.4,0.9,0.9,0.9c0.5,0,0.9-0.4,0.9-0.9V228h12.3v1.9c0,0.5,0.4,0.9,0.9,0.9   c0.5,0,0.9-0.4,0.9-0.9V228h2.4C2187.6,228,2187.8,228.2,2187.8,228.5C2187.8,228.5,2187.8,228.5,2187.8,228.5z M2184.1,230.4   c-0.3,0-0.5-0.2-0.5-0.5c0,0,0,0,0,0v-3.3c0-0.3,0.2-0.5,0.4-0.5c0.3,0,0.5,0.2,0.5,0.4c0,0,0,0,0,0v3.3   C2184.5,230.2,2184.3,230.4,2184.1,230.4z"></path>
</g>
</svg>
