<?xml version="1.0" encoding="UTF-8"?>
<svg xmlns="http://www.w3.org/2000/svg" width="90" height="90" viewBox="0 0 90 90">
  <g id="Smart_Technology_latest_1_" data-name="Smart Technology latest (1)" transform="translate(6.631 6.632)">
    <rect id="Rectangle_3" data-name="Rectangle 3" width="90" height="90" transform="translate(-6.631 -6.632)" fill="none"></rect>
    <path id="Path_20" data-name="Path 20" d="M116.748,11.045l-4,3.7-5.282-1.565-1.247-5.24,4-3.7L115.5,5.8l1.247,5.24Z" transform="translate(-42.539 -1.699)" fill="#94e1e4"></path>
    <path id="Path_21" data-name="Path 21" d="M14.064,12.367l1.493-6.253A1.21,1.21,0,0,0,15.2,4.957L10.185.317A1.205,1.205,0,0,0,9.028.047L2.433,2.008a1.191,1.191,0,0,0-.827.869L.029,9.472a1.21,1.21,0,0,0,.354,1.157L5.4,15.269a1.233,1.233,0,0,0,.815.318,1.343,1.343,0,0,0,.342-.048l5.618-1.667L18.806,20.5l1.6-1.607c.03-.03.066-.054.1-.084ZM11.81,11.48,6.528,13.045l-4-3.7,1.247-5.24L9.058,2.541l4,3.7ZM76.355,66.109l-5.018-4.64a1.205,1.205,0,0,0-1.157-.27l-5.618,1.667-6.337-6.331c-.03.03-.054.066-.084.1l-1.607,1.6,6.139,6.139-1.493,6.253a1.21,1.21,0,0,0,.354,1.157l5.018,4.64a1.233,1.233,0,0,0,.815.318,1.343,1.343,0,0,0,.342-.048L74.3,74.73a1.191,1.191,0,0,0,.827-.869l1.577-6.595A1.21,1.21,0,0,0,76.355,66.109Zm-3.393,6.523L67.68,74.2l-4-3.7,1.247-5.24,5.282-1.565,4,3.7Zm3.747-63.16L75.132,2.877a1.191,1.191,0,0,0-.827-.869L67.71.047a1.205,1.205,0,0,0-1.157.27l-5.018,4.64a1.21,1.21,0,0,0-.354,1.157l1.493,6.253-6.445,6.445a.731.731,0,0,1,.1.09l1.6,1.6,6.631-6.631,5.618,1.667a1.343,1.343,0,0,0,.342.048,1.233,1.233,0,0,0,.815-.318l5.018-4.64a1.21,1.21,0,0,0,.354-1.157Zm-6.5,3.573L64.928,11.48,63.681,6.24l4-3.7,5.282,1.565,1.247,5.24ZM14.064,64.37,20.2,58.231l-1.6-1.6c-.03-.03-.06-.066-.09-.1l-6.331,6.331L6.558,61.2a1.205,1.205,0,0,0-1.157.27L.383,66.109a1.21,1.21,0,0,0-.354,1.157l1.577,6.595a1.191,1.191,0,0,0,.827.869l6.595,1.96a1.343,1.343,0,0,0,.342.048,1.233,1.233,0,0,0,.815-.318l5.018-4.64a1.21,1.21,0,0,0,.354-1.157ZM9.058,74.2,3.776,72.632l-1.247-5.24,4-3.7,5.282,1.565,1.247,5.24Zm4.235-52.3a1.2,1.2,0,0,0-1.645.41q-.162.268-.318.54a1.2,1.2,0,1,0,2.077,1.2q.146-.252.3-.5a1.2,1.2,0,0,0-.409-1.645ZM11.552,51.829a1.2,1.2,0,0,0-.469,1.63q.152.275.309.546A1.2,1.2,0,0,0,13.466,52.8q-.145-.249-.285-.5a1.2,1.2,0,0,0-1.63-.469Zm-1.96-13.4v-.062q0-.261,0-.522a1.2,1.2,0,0,0-1.18-1.218H8.4a1.2,1.2,0,0,0-1.2,1.179q0,.28,0,.56v.062a1.2,1.2,0,1,0,2.4,0ZM8.263,46.494a1.2,1.2,0,1,0,2.316-.621q-.076-.281-.145-.563a1.2,1.2,0,0,0-2.328.579q.077.3.157.606ZM9.882,28.94a1.2,1.2,0,0,0-1.484.821q-.087.3-.168.606a1.2,1.2,0,0,0,2.319.614q.074-.28.153-.557a1.2,1.2,0,0,0-.82-1.484Zm35.847-18.4q.279.073.556.153a1.2,1.2,0,0,0,.661-2.306q-.3-.087-.608-.167a1.2,1.2,0,0,0-.609,2.32Zm-7.453-.95h.093q.245,0,.489,0h.022a1.2,1.2,0,1,0,.02-2.4q-.264,0-.531,0h-.093a1.2,1.2,0,0,0,0,2.4Zm-7.752,1.037a1.2,1.2,0,0,0,.313-.042c.186-.05.374-.1.561-.145a1.2,1.2,0,0,0-.579-2.327q-.306.076-.608.158a1.2,1.2,0,0,0,.312,2.357ZM23.31,13.644a1.193,1.193,0,0,0,.6-.164q.249-.146.5-.285a1.2,1.2,0,0,0-1.164-2.1q-.274.152-.545.31a1.2,1.2,0,0,0,.6,2.235ZM63.408,54.9a1.2,1.2,0,0,0,1.648-.4q.164-.27.322-.544a1.2,1.2,0,1,0-2.077-1.2q-.144.251-.294.5a1.2,1.2,0,0,0,.4,1.647ZM64.577,25a1.2,1.2,0,0,0,1.047-1.781q-.152-.275-.312-.547a1.2,1.2,0,1,0-2.07,1.21q.145.248.285.5A1.2,1.2,0,0,0,64.576,25ZM37.819,67.141H37.8a1.2,1.2,0,1,0-.022,2.4c.2,0,.4.005.595.005H38.4a1.186,1.186,0,0,0,1.183-1.2,1.213,1.213,0,0,0-1.215-1.2q-.276,0-.55,0ZM52.674,13.393q.252.144.5.294a1.2,1.2,0,0,0,1.237-2.055q-.269-.162-.543-.319a1.2,1.2,0,1,0-1.193,2.08Zm.1,49.894q-.248.144-.5.284a1.2,1.2,0,1,0,1.158,2.1c.184-.1.366-.2.546-.309a1.2,1.2,0,1,0-1.2-2.075ZM68.457,30.179a1.2,1.2,0,0,0-2.314.63q.076.278.145.558a1.2,1.2,0,0,0,2.328-.579q-.076-.306-.159-.609ZM66.839,47.857a1.2,1.2,0,0,0,1.484-.82q.086-.3.168-.6a1.2,1.2,0,1,0-2.317-.62c-.05.188-.1.374-.156.559a1.2,1.2,0,0,0,.82,1.484Zm-21,18.309q-.279.075-.561.144a1.2,1.2,0,0,0,.576,2.329q.305-.075.608-.156a1.2,1.2,0,1,0-.624-2.316Zm-22.33-3.147a1.2,1.2,0,1,0-1.239,2.053q.269.162.541.319a1.2,1.2,0,1,0,1.2-2.077q-.252-.145-.5-.3ZM67.146,38.244v.125q0,.29-.006.579a1.2,1.2,0,0,0,1.175,1.223h.025A1.2,1.2,0,0,0,69.539,39q.005-.313.005-.627v-.125a1.2,1.2,0,0,0-2.4,0ZM30.4,66.027a1.2,1.2,0,1,0-.664,2.3q.3.087.6.168a1.2,1.2,0,1,0,.618-2.317q-.28-.075-.558-.155Z" transform="translate(0)" fill="#2d4356"></path>
    <path id="Path_22" data-name="Path 22" d="M112.749,106.24l-5.282,1.565-1.247,5.24,4,3.7,5.282-1.565,1.247-5.24Zm-1.265,6.451a1.2,1.2,0,1,1,1.2-1.2A1.2,1.2,0,0,1,111.484,112.691Z" transform="translate(-42.539 -42.547)" fill="#94e1e4"></path>
    <path id="Path_23" data-name="Path 23" d="M68.583,43.231H66.256a19.064,19.064,0,0,0-1.847-4.442l1.649-1.649a3.64,3.64,0,0,0-.2-5.126L64.044,30.2a3.932,3.932,0,0,0-2.752-1.169A3.33,3.33,0,0,0,58.918,30L57.27,31.648a18.9,18.9,0,0,0-4.442-1.841V27.476A3.634,3.634,0,0,0,49.062,24H46.5a3.634,3.634,0,0,0-3.765,3.477v2.332a19,19,0,0,0-4.442,1.841L36.634,30a3.309,3.309,0,0,0-2.374-.965A3.929,3.929,0,0,0,31.514,30.2L29.7,32.014a3.651,3.651,0,0,0-.2,5.126l1.649,1.649a18.689,18.689,0,0,0-1.841,4.442H26.975A3.636,3.636,0,0,0,23.5,47v2.56a3.634,3.634,0,0,0,3.477,3.765h2.332a18.688,18.688,0,0,0,1.841,4.442l-1.655,1.655a3.644,3.644,0,0,0,.21,5.12l1.811,1.817a3.974,3.974,0,0,0,2.746,1.163,3.359,3.359,0,0,0,2.38-.965l1.649-1.649a18.794,18.794,0,0,0,4.442,1.841v2.326A3.635,3.635,0,0,0,46.5,72.56h2.566a3.635,3.635,0,0,0,3.765-3.483V66.751A18.793,18.793,0,0,0,57.27,64.91l1.649,1.643a3.339,3.339,0,0,0,2.38.971,3.9,3.9,0,0,0,2.74-1.169l1.817-1.811a3.932,3.932,0,0,0,1.169-2.752,3.331,3.331,0,0,0-.965-2.368L64.41,57.776a19.215,19.215,0,0,0,1.847-4.448h2.326a3.634,3.634,0,0,0,3.477-3.765V47a3.636,3.636,0,0,0-3.477-3.771Zm1.079,6.331a1.251,1.251,0,0,1-1.079,1.367H65.315a1.2,1.2,0,0,0-1.175.941,16.5,16.5,0,0,1-2.254,5.438,1.205,1.205,0,0,0,.162,1.493l2.314,2.32a.942.942,0,0,1,.264.677,1.52,1.52,0,0,1-.468,1.049l-1.811,1.811a1.52,1.52,0,0,1-1.049.468.956.956,0,0,1-.683-.264L58.3,62.548a1.205,1.205,0,0,0-1.493-.162A16.628,16.628,0,0,1,51.37,64.64a1.2,1.2,0,0,0-.941,1.175v3.261a1.254,1.254,0,0,1-1.367,1.085H46.5a1.271,1.271,0,0,1-1.367-1.085V65.815a1.2,1.2,0,0,0-.941-1.175,16.713,16.713,0,0,1-5.444-2.254A1.189,1.189,0,0,0,38.1,62.2a1.218,1.218,0,0,0-.851.348l-2.308,2.314a.956.956,0,0,1-.683.264,1.54,1.54,0,0,1-1.049-.462L31.4,62.848a1.262,1.262,0,0,1-.21-1.733l2.32-2.308a1.2,1.2,0,0,0,.162-1.5,16.522,16.522,0,0,1-2.254-5.438,1.2,1.2,0,0,0-1.175-.941H26.975A1.271,1.271,0,0,1,25.9,49.562V47a1.273,1.273,0,0,1,1.079-1.373h3.267a1.2,1.2,0,0,0,1.175-.941,16.522,16.522,0,0,1,2.254-5.438,1.2,1.2,0,0,0-.162-1.5l-2.314-2.3a1.261,1.261,0,0,1,.2-1.739L33.211,31.9a1.521,1.521,0,0,1,1.049-.468.956.956,0,0,1,.683.264l2.308,2.314a1.206,1.206,0,0,0,1.493.162,16.691,16.691,0,0,1,5.444-2.254,1.2,1.2,0,0,0,.941-1.175V27.476A1.254,1.254,0,0,1,46.5,26.4h2.566a1.254,1.254,0,0,1,1.367,1.079v3.267a1.2,1.2,0,0,0,.941,1.175,16.553,16.553,0,0,1,5.438,2.254A1.205,1.205,0,0,0,58.3,34.01L60.615,31.7a.951.951,0,0,1,.677-.264,1.535,1.535,0,0,1,1.055.468l1.811,1.811a1.255,1.255,0,0,1,.2,1.733l-2.314,2.314a1.205,1.205,0,0,0-.162,1.493,16.5,16.5,0,0,1,2.254,5.438,1.2,1.2,0,0,0,1.175.941h3.267A1.257,1.257,0,0,1,69.662,47Z" transform="translate(-9.41 -9.61)" fill="#2d4356"></path>
    <path id="Path_24" data-name="Path 24" d="M70.183,47.229H66.915a1.2,1.2,0,0,1-1.175-.941,16.5,16.5,0,0,0-2.254-5.438,1.205,1.205,0,0,1,.162-1.493l2.314-2.314a1.255,1.255,0,0,0-.2-1.733L63.948,33.5a1.535,1.535,0,0,0-1.055-.468.951.951,0,0,0-.677.264L59.9,35.61a1.205,1.205,0,0,1-1.493.162,16.553,16.553,0,0,0-5.438-2.254,1.2,1.2,0,0,1-.941-1.175V29.075A1.254,1.254,0,0,0,50.662,28H48.1a1.254,1.254,0,0,0-1.367,1.079v3.267a1.2,1.2,0,0,1-.941,1.175,16.691,16.691,0,0,0-5.444,2.254,1.206,1.206,0,0,1-1.493-.162L36.543,33.3a.956.956,0,0,0-.683-.264,1.521,1.521,0,0,0-1.049.468L33,35.31a1.261,1.261,0,0,0-.2,1.739l2.314,2.3a1.2,1.2,0,0,1,.162,1.5,16.522,16.522,0,0,0-2.254,5.438,1.2,1.2,0,0,1-1.175.941H28.576A1.273,1.273,0,0,0,27.5,48.6v2.56a1.271,1.271,0,0,0,1.079,1.367h3.267a1.2,1.2,0,0,1,1.175.941,16.522,16.522,0,0,0,2.254,5.438,1.2,1.2,0,0,1-.162,1.5l-2.32,2.308A1.262,1.262,0,0,0,33,64.447l1.811,1.817a1.54,1.54,0,0,0,1.049.462.956.956,0,0,0,.683-.264l2.308-2.314A1.218,1.218,0,0,1,39.7,63.8a1.19,1.19,0,0,1,.641.186,16.713,16.713,0,0,0,5.444,2.254,1.2,1.2,0,0,1,.941,1.175v3.261A1.271,1.271,0,0,0,48.1,71.761h2.566a1.254,1.254,0,0,0,1.367-1.085V67.415a1.2,1.2,0,0,1,.941-1.175,16.629,16.629,0,0,0,5.438-2.254,1.205,1.205,0,0,1,1.493.162l2.314,2.314a.956.956,0,0,0,.683.264,1.52,1.52,0,0,0,1.049-.468l1.811-1.811a1.52,1.52,0,0,0,.468-1.049.942.942,0,0,0-.264-.677L63.648,60.4a1.205,1.205,0,0,1-.162-1.493A16.5,16.5,0,0,0,65.74,53.47a1.2,1.2,0,0,1,1.175-.941h3.267a1.251,1.251,0,0,0,1.079-1.367V48.6a1.257,1.257,0,0,0-1.079-1.373ZM55.375,59.171a1.2,1.2,0,1,1,1.2-1.2A1.2,1.2,0,0,1,55.375,59.171Zm4.335-4.119a1.2,1.2,0,1,1-2.116-1.127,9.293,9.293,0,1,0-8.213,4.946,8.918,8.918,0,0,0,1.445-.114,1.2,1.2,0,0,1,.372,2.374,12.292,12.292,0,0,1-1.817.138,11.692,11.692,0,1,1,10.33-6.217Z" transform="translate(-11.01 -11.21)" fill="#94e1e4"></path>
    <circle id="Ellipse_2" data-name="Ellipse 2" cx="1" cy="1" r="1" transform="translate(67.738 67.998)" fill="#2d4356"></circle>
    <circle id="Ellipse_3" data-name="Ellipse 3" cx="1.199" cy="1.199" r="1.199" transform="translate(67.821 6.444)" fill="#2d4356"></circle>
    <circle id="Ellipse_4" data-name="Ellipse 4" cx="1" cy="1" r="1" transform="translate(6.738 67.998)" fill="#2d4356"></circle>
    <path id="Path_25" data-name="Path 25" d="M10.749,4.24,5.467,5.8,4.22,11.045l4,3.7L13.5,13.179l1.247-5.24ZM9.484,10.691a1.2,1.2,0,1,1,1.2-1.2,1.2,1.2,0,0,1-1.2,1.2Z" transform="translate(-1.691 -1.699)" fill="#94e1e4"></path>
    <circle id="Ellipse_5" data-name="Ellipse 5" cx="1" cy="1" r="1" transform="translate(6.738 6.998)" fill="#2d4356"></circle>
    <path id="Path_26" data-name="Path 26" d="M13.5,107.8,8.219,106.24l-4,3.7,1.247,5.24,5.282,1.565,4-3.7Zm-4.017,4.886a1.2,1.2,0,1,1,1.2-1.2,1.2,1.2,0,0,1-1.2,1.2Z" transform="translate(-1.691 -42.547)" fill="#94e1e4"></path>
    <circle id="Ellipse_6" data-name="Ellipse 6" cx="10.042" cy="10.042" r="10.042" transform="translate(28.477 28.552)" fill="#e1ebf4"></circle>
    <path id="Path_27" data-name="Path 27" d="M67.882,56.191a11.658,11.658,0,0,1-1.361,5.474A1.2,1.2,0,1,1,64.4,60.537a9.293,9.293,0,1,0-8.213,4.946,8.918,8.918,0,0,0,1.445-.114,1.2,1.2,0,0,1,.372,2.374,12.291,12.291,0,0,1-1.817.138A11.691,11.691,0,1,1,67.882,56.191Z" transform="translate(-17.822 -17.822)" fill="#2d4356"></path>
    <path id="Path_28" data-name="Path 28" d="M14.748,10.122,13.5,15.362,8.219,16.926l-4-3.7.468-1.966,3.531,3.267L13.5,12.963,14.28,9.69ZM75.9,71.273l-1.247,5.24-5.282,1.565-4-3.7.468-1.966,3.531,3.267,5.282-1.565.779-3.273Zm0-58.046-4,3.7-5.282-1.565-1.247-5.24.468-.432.779,3.273L71.9,14.528l3.531-3.267ZM14.748,74.379l-4,3.7L5.467,76.513,4.22,71.273l.468-.432.779,3.273,5.282,1.565,3.531-3.267Zm42.159-18.31a1.52,1.52,0,0,1-.468,1.049l-1.811,1.811a1.589,1.589,0,0,1-.905.462,1.154,1.154,0,0,1-.144.006.342.342,0,0,1-.078-.006.292.292,0,0,1-.072-.006.862.862,0,0,1-.534-.252l-2.314-2.314a1.205,1.205,0,0,0-1.493-.162,16.629,16.629,0,0,1-5.438,2.254,1.2,1.2,0,0,0-.941,1.175v-2.4a1.2,1.2,0,0,1,.941-1.175,16.629,16.629,0,0,0,5.438-2.254,1.205,1.205,0,0,1,1.493.162L52.9,56.735a.956.956,0,0,0,.683.264,1.52,1.52,0,0,0,1.049-.468L56.2,54.954l.438.438a.942.942,0,0,1,.264.677Zm-14.2,4.88v2.4a1.254,1.254,0,0,1-1.367,1.085H38.777a1.271,1.271,0,0,1-1.367-1.085v-2.4a1.271,1.271,0,0,0,1.367,1.085h2.566a1.254,1.254,0,0,0,1.367-1.085Zm-5.3-3.261v2.4a1.2,1.2,0,0,0-.941-1.175,16.713,16.713,0,0,1-5.444-2.254,1.189,1.189,0,0,0-.641-.186,1.218,1.218,0,0,0-.851.348l-2.308,2.314a.881.881,0,0,1-.606.258.341.341,0,0,1-.078.006.736.736,0,0,1-.162-.012,1.6,1.6,0,0,1-.887-.45l-1.811-1.817a1.262,1.262,0,0,1-.21-1.733l.438-.438,1.583,1.589A1.54,1.54,0,0,0,26.54,57a.956.956,0,0,0,.683-.264l2.308-2.314a1.218,1.218,0,0,1,.851-.348,1.189,1.189,0,0,1,.641.186,16.713,16.713,0,0,0,5.444,2.254,1.2,1.2,0,0,1,.941,1.175Z" transform="translate(-1.691 -3.881)" fill="#426666" opacity="0.3"></path>
    <path id="Path_29" data-name="Path 29" d="M50.1,32.342v2.4a1.2,1.2,0,0,1-.941,1.175,16.691,16.691,0,0,0-5.444,2.254,1.206,1.206,0,0,1-1.493-.162l-2.308-2.314a.956.956,0,0,0-.683-.264,1.521,1.521,0,0,0-1.049.468L36.6,37.48l-.432-.432a1.261,1.261,0,0,1,.2-1.739L38.182,33.5a1.589,1.589,0,0,1,.905-.462,1.153,1.153,0,0,1,.144-.006.369.369,0,0,1,.078.006.292.292,0,0,1,.072.006.862.862,0,0,1,.534.252l2.308,2.314a1.206,1.206,0,0,0,1.493.162,16.691,16.691,0,0,1,5.444-2.254,1.2,1.2,0,0,0,.941-1.175Zm5.3-3.267v2.4a1.254,1.254,0,0,0-1.367-1.079H51.468A1.254,1.254,0,0,0,50.1,31.473v-2.4A1.254,1.254,0,0,1,51.468,28h2.566A1.254,1.254,0,0,1,55.4,29.075Zm13.933,7.968-.432.438L67.319,35.9a1.535,1.535,0,0,0-1.055-.468.951.951,0,0,0-.677.264l-2.314,2.314a1.205,1.205,0,0,1-1.493.162,16.554,16.554,0,0,0-5.438-2.254,1.2,1.2,0,0,1-.941-1.175v-2.4a1.2,1.2,0,0,0,.941,1.175,16.554,16.554,0,0,1,5.438,2.254,1.205,1.205,0,0,0,1.493-.162L65.587,33.3a.862.862,0,0,1,.534-.252l.144-.012a1.3,1.3,0,0,1,.15.006,1.589,1.589,0,0,1,.905.462L69.13,35.31A1.255,1.255,0,0,1,69.334,37.043Z" transform="translate(-14.382 -11.21)" fill="#f5ffff" opacity="0.3"></path>
    <path id="Path_30" data-name="Path 30" d="M60.455,73.366a1.211,1.211,0,0,0-1.217-.588,8.917,8.917,0,0,1-1.445.114A9.3,9.3,0,0,1,48.5,63.6c0-.2.006-.4.024-.6a9.294,9.294,0,0,0,9.269,8.693,8.918,8.918,0,0,0,1.445-.114,1.206,1.206,0,0,1,1.367,1,1.175,1.175,0,0,1-.15.785ZM67.085,63.6a9.244,9.244,0,0,1-1.061,4.311,1.2,1.2,0,0,1-.018-1.163A9.166,9.166,0,0,0,67.061,63C67.079,63.2,67.085,63.4,67.085,63.6Z" transform="translate(-19.424 -25.231)" fill="#9fa5aa" opacity="0.5"></path>
    <path id="Path_31" data-name="Path 31" d="M67.085,57.793c0,.2-.006.4-.024.6a9.288,9.288,0,0,0-18.537,0c-.018-.2-.024-.4-.024-.6a9.293,9.293,0,0,1,18.585,0Z" transform="translate(-19.424 -19.424)" fill="#fff" opacity="0.5"></path>
    <ellipse id="Ellipse_7" data-name="Ellipse 7" cx="1.5" cy="1" rx="1.5" ry="1" transform="translate(42.738 45.998)" fill="#2d4356"></ellipse>
  </g>
</svg>
