<?xml version="1.0" encoding="UTF-8"?>
<svg xmlns="http://www.w3.org/2000/svg" width="90" height="90" viewBox="0 0 90 90">
  <g id="Supply_chain_latest_1_" data-name="Supply chain latest (1)" transform="translate(4 5.405)">
    <rect id="Rectangle_2" data-name="Rectangle 2" width="90" height="90" transform="translate(-4 -5.405)" fill="none"></rect>
    <path id="Path_32" data-name="Path 32" d="M64.4,48.81a14.8,14.8,0,0,0-14.71,13.6H26.947V53.755a3.422,3.422,0,0,0-.371-1.607l26.329-24.97a3.291,3.291,0,0,0,1.483.371H74.167a3.587,3.587,0,0,0,3.585-3.585V4.186A3.587,3.587,0,0,0,74.167.6H54.389A3.587,3.587,0,0,0,50.8,4.186v8.653H26.947V4.186A3.587,3.587,0,0,0,23.363.6H3.585A3.409,3.409,0,0,0,0,4.062V23.84a3.587,3.587,0,0,0,3.585,3.585H23.363a3.587,3.587,0,0,0,3.585-3.585V15.188H50.8V23.84a2.936,2.936,0,0,0,.371,1.483L24.97,50.417a3.291,3.291,0,0,0-1.483-.371H3.708A3.587,3.587,0,0,0,.124,53.631V73.409a3.587,3.587,0,0,0,3.585,3.585H23.486a3.587,3.587,0,0,0,3.585-3.585V64.756H49.816A14.735,14.735,0,1,0,64.4,48.81ZM53.277,4.062a1.239,1.239,0,0,1,1.236-1.236H74.291a1.239,1.239,0,0,1,1.236,1.236V23.84a1.239,1.239,0,0,1-1.236,1.236H54.513a1.239,1.239,0,0,1-1.236-1.236ZM24.6,23.964A1.239,1.239,0,0,1,23.363,25.2H3.585a1.239,1.239,0,0,1-1.236-1.236V4.186A1.239,1.239,0,0,1,3.585,2.95H23.363A1.239,1.239,0,0,1,24.6,4.186Zm0,49.569a1.239,1.239,0,0,1-1.236,1.236H3.585a1.239,1.239,0,0,1-1.236-1.236V53.755a1.239,1.239,0,0,1,1.236-1.236H23.363A1.239,1.239,0,0,1,24.6,53.755Zm39.8,2.349A12.361,12.361,0,1,1,76.763,63.52,12.4,12.4,0,0,1,64.4,75.881Z" transform="translate(0 0)" fill="#2b2e63"></path>
    <path id="Path_33" data-name="Path 33" d="M64.114,2.5H44.336A1.239,1.239,0,0,0,43.1,3.736V23.514a1.239,1.239,0,0,0,1.236,1.236H64.114a1.239,1.239,0,0,0,1.236-1.236V3.736A1.239,1.239,0,0,0,64.114,2.5ZM56.7,18.94H52a1.188,1.188,0,0,1-1.113-.742.929.929,0,0,1,.247-1.236l1.854-1.978A6.8,6.8,0,0,0,54.6,12.76a1.556,1.556,0,0,0,0-1.483c-.124-.247-.371-.618-.742-.618a2.633,2.633,0,0,0-1.483.494,1.2,1.2,0,0,1-1.607-.371,1.148,1.148,0,0,1,.371-1.607,4.748,4.748,0,0,1,2.719-.865,3,3,0,0,1,2.843,2.1,4.213,4.213,0,0,1,0,3.461,10.006,10.006,0,0,1-2.1,2.843h1.978a1.239,1.239,0,0,1,1.236,1.236A1.09,1.09,0,0,1,56.7,18.94Z" transform="translate(10.177 0.45)" fill="#51bf9f"></path>
    <path id="Path_34" data-name="Path 34" d="M22.914,42.6H3.136A1.239,1.239,0,0,0,1.9,43.836V63.614A1.239,1.239,0,0,0,3.136,64.85H22.914a1.239,1.239,0,0,0,1.236-1.236V43.836A1.168,1.168,0,0,0,22.914,42.6ZM16.363,57.063A4.44,4.44,0,0,1,15.5,58.3a2.947,2.947,0,0,1-1.36.742,6.53,6.53,0,0,1-1.607.124,2.41,2.41,0,0,1-.989-.124,2.292,2.292,0,0,1-.865-.247,2.088,2.088,0,0,0-.618-.247,1.116,1.116,0,0,1-.494-1.607,1.216,1.216,0,0,1,1.607-.494c.124,0,.124.124.247.124s.371.124.494.124a2.918,2.918,0,0,0,1.483-.124.642.642,0,0,0,.494-.247c.124-.124.247-.247.247-.371a.926.926,0,0,0,.124-.618v-.247c0-.124-.124-.124-.124-.247l-.247-.247c-.124,0-.247-.124-.371-.124a1.22,1.22,0,0,1-1.113-1.236,1.2,1.2,0,0,1,.989-1.236c.124,0,.247,0,.247-.124a.121.121,0,0,0,.124-.124.432.432,0,0,0,.124-.247v-.371a.454.454,0,0,0-.124-.371c0-.124-.124-.124-.124-.247-.124-.124-.124-.124-.371-.124a2.107,2.107,0,0,0-1.236,0c-.124,0-.371.124-.494.124a.432.432,0,0,0-.247.124,1.148,1.148,0,0,1-1.607-.371,1.177,1.177,0,0,1,.371-1.607,2.7,2.7,0,0,1,.618-.371,1.787,1.787,0,0,1,.865-.247,5.584,5.584,0,0,1,2.472.124,3.867,3.867,0,0,1,1.236.618,2.223,2.223,0,0,1,.742,1.113,4.392,4.392,0,0,1,.247,1.236,3.422,3.422,0,0,1-.124,1.113l-.371.742a2.692,2.692,0,0,1,.618.989,3.657,3.657,0,0,1,.247,1.236,2.835,2.835,0,0,1-.247,1.854Z" transform="translate(0.449 9.918)" fill="#4ebde5"></path>
    <path id="Path_35" data-name="Path 35" d="M54.461,41.6A12.361,12.361,0,1,0,66.822,53.961,12.4,12.4,0,0,0,54.461,41.6Zm6.181,9.518-7.293,7.293a1.195,1.195,0,0,1-1.731,0L48.157,54.95a1.224,1.224,0,0,1,1.731-1.731l2.6,2.6,6.428-6.428a1.224,1.224,0,1,1,1.731,1.731Z" transform="translate(9.941 9.682)" fill="#f26e61"></path>
    <path id="Path_36" data-name="Path 36" d="M22.914,2.5H3.136A1.239,1.239,0,0,0,1.9,3.736V23.514A1.239,1.239,0,0,0,3.136,24.75H22.914a1.239,1.239,0,0,0,1.236-1.236V3.736A1.168,1.168,0,0,0,22.914,2.5ZM15.5,19.064H10.553a1.236,1.236,0,1,1,0-2.472h1.236V11.153l-.618.371a1.3,1.3,0,0,1-1.607-.494,1.091,1.091,0,0,1,.494-1.607l2.472-1.236a1.443,1.443,0,0,1,1.236,0,1.261,1.261,0,0,1,.618.989v7.417h1.236a1.239,1.239,0,0,1,1.236,1.236,1.439,1.439,0,0,1-1.36,1.236Z" transform="translate(0.449 0.45)" fill="#ffdc7c"></path>
    <path id="Path_37" data-name="Path 37" d="M64.114,2.5H44.336A1.239,1.239,0,0,0,43.1,3.736V23.514a1.239,1.239,0,0,0,1.236,1.236H64.114a1.239,1.239,0,0,0,1.236-1.236V3.736A1.239,1.239,0,0,0,64.114,2.5ZM63.5,22.772H44.954V4.354H63.5Z" transform="translate(10.177 0.45)" fill="#3da580"></path>
    <path id="Path_38" data-name="Path 38" d="M22.914,42.6H3.136A1.239,1.239,0,0,0,1.9,43.836V63.614A1.239,1.239,0,0,0,3.136,64.85H22.914a1.239,1.239,0,0,0,1.236-1.236V43.836A1.168,1.168,0,0,0,22.914,42.6ZM22.3,62.872H3.754V44.331H22.3Z" transform="translate(0.449 9.918)" fill="#36a9db"></path>
    <path id="Path_39" data-name="Path 39" d="M54.461,41.6A12.361,12.361,0,1,0,66.822,53.961,12.4,12.4,0,0,0,54.461,41.6Zm0,22.745A10.507,10.507,0,1,1,64.968,53.838,10.5,10.5,0,0,1,54.461,64.345Z" transform="translate(9.941 9.682)" fill="#e15e5a"></path>
    <path id="Path_40" data-name="Path 40" d="M22.914,2.5H3.136A1.239,1.239,0,0,0,1.9,3.736V23.514A1.239,1.239,0,0,0,3.136,24.75H22.914a1.239,1.239,0,0,0,1.236-1.236V3.736A1.168,1.168,0,0,0,22.914,2.5ZM22.3,22.772H3.754V4.354H22.3Z" transform="translate(0.449 0.45)" fill="#ecc25d"></path>
    <path id="Path_41" data-name="Path 41" d="M15.317,16.769a1.239,1.239,0,0,1-1.236,1.236H9.136a1.236,1.236,0,0,1,0-2.472h1.236V10.094l-.618.371A1.3,1.3,0,0,1,8.147,9.97a1.091,1.091,0,0,1,.494-1.607l2.472-1.236a1.443,1.443,0,0,1,1.236,0,1.261,1.261,0,0,1,.618.989v7.417H14.2a1.451,1.451,0,0,1,1.113,1.236Zm0,47.1a2.636,2.636,0,0,1-.371,1.483,4.439,4.439,0,0,1-.865,1.236,2.947,2.947,0,0,1-1.36.742,3.393,3.393,0,0,1-1.607.247,2.41,2.41,0,0,1-.989-.124A2.292,2.292,0,0,1,9.26,67.2a2.088,2.088,0,0,0-.618-.247,1.116,1.116,0,0,1-.494-1.607,1.216,1.216,0,0,1,1.607-.494c.124,0,.124.124.247.124s.371.124.494.124a2.918,2.918,0,0,0,1.483-.124.642.642,0,0,0,.494-.247c.124-.124.247-.247.247-.371a.926.926,0,0,0,.124-.618v-.247c0-.124-.124-.124-.124-.247L12.474,63c-.124,0-.247-.124-.371-.124A1.22,1.22,0,0,1,10.99,61.64a1.2,1.2,0,0,1,.989-1.236c.124,0,.247,0,.247-.124a.121.121,0,0,0,.124-.124.432.432,0,0,0,.124-.247v-.371a.454.454,0,0,0-.124-.371c0-.124-.124-.124-.124-.247-.124-.124-.124-.124-.371-.124a2.107,2.107,0,0,0-1.236,0c-.124,0-.371.124-.494.124a.432.432,0,0,0-.247.124,1.148,1.148,0,0,1-1.607-.371,1.177,1.177,0,0,1,.371-1.607A2.7,2.7,0,0,1,9.26,56.7a1.787,1.787,0,0,1,.865-.247,5.584,5.584,0,0,1,2.472.124,3.867,3.867,0,0,1,1.236.618,2.223,2.223,0,0,1,.742,1.113,4.392,4.392,0,0,1,.247,1.236,3.422,3.422,0,0,1-.124,1.113l-.371.742a2.692,2.692,0,0,1,.618.989,4.274,4.274,0,0,1,.371,1.483Zm50.8-47.22a1.239,1.239,0,0,1-1.236,1.236h-4.7a1.188,1.188,0,0,1-1.113-.742.929.929,0,0,1,.247-1.236l1.854-1.978A6.8,6.8,0,0,0,62.784,11.7a1.556,1.556,0,0,0,0-1.483c-.124-.247-.371-.618-.742-.618a2.633,2.633,0,0,0-1.483.494,1.2,1.2,0,0,1-1.607-.371,1.148,1.148,0,0,1,.371-1.607,4.748,4.748,0,0,1,2.719-.865,3,3,0,0,1,2.843,2.1,4.213,4.213,0,0,1,0,3.461,10.006,10.006,0,0,1-2.1,2.843h1.978c.865-.124,1.36.371,1.36.989Zm2.6,42.646-7.293,7.293a1.195,1.195,0,0,1-1.731,0l-3.461-3.461a1.224,1.224,0,0,1,1.731-1.731l2.6,2.6,6.428-6.428a1.224,1.224,0,0,1,1.731,1.731Z" transform="translate(1.865 1.509)" fill="#2b2e63"></path>
  </g>
</svg>
